<ttFont>
    <TTGlyph name=".notdef" xMin="69" yMin="0" xMax="621" yMax="1385">
      <contour>
        <pt x="552" y="69" on="1"/>
        <pt x="552" y="1316" on="1"/>
        <pt x="138" y="1316" on="1"/>
        <pt x="138" y="69" on="1"/>
      </contour>
      <contour>
        <pt x="69" y="1385" on="1"/>
        <pt x="621" y="1385" on="1"/>
        <pt x="621" y="0" on="1"/>
        <pt x="69" y="0" on="1"/>
      </contour>
    </TTGlyph>
    <TTGlyph name="A" xMin="46" yMin="0" xMax="1457" yMax="1602">
      <contour>
        <pt x="927" y="1602" on="1"/>
        <pt x="1457" y="0" on="1"/>
        <pt x="1167" y="0" on="1"/>
        <pt x="1049" y="371" on="1"/>
        <pt x="454" y="371" on="1"/>
        <pt x="336" y="0" on="1"/>
        <pt x="46" y="0" on="1"/>
        <pt x="572" y="1602" on="1"/>
      </contour>
      <contour>
        <pt x="492" y="510" on="1"/>
        <pt x="1011" y="510" on="1"/>
        <pt x="755" y="1313" on="1"/>
      </contour>
    </TTGlyph>
    <TTGlyph name="AE" xMin="46" yMin="0" xMax="1901" yMax="1602">
      <contour>
        <pt x="945" y="1421" on="1"/>
        <pt x="549" y="514" on="1"/>
        <pt x="945" y="514" on="1"/>
      </contour>
      <contour>
        <pt x="1882" y="1412" on="1"/>
        <pt x="1213" y="1412" on="1"/>
        <pt x="1213" y="929" on="1"/>
        <pt x="1814" y="929" on="1"/>
        <pt x="1814" y="764" on="1"/>
        <pt x="1214" y="764" on="1"/>
        <pt x="1214" y="189" on="1"/>
        <pt x="1901" y="189" on="1"/>
        <pt x="1901" y="0" on="1"/>
        <pt x="946" y="0" on="1"/>
        <pt x="946" y="365" on="1"/>
        <pt x="494" y="365" on="1"/>
        <pt x="336" y="0" on="1"/>
        <pt x="46" y="0" on="1"/>
        <pt x="778" y="1602" on="1"/>
        <pt x="1882" y="1602" on="1"/>
      </contour>
    </TTGlyph>
    <TTGlyph name="Aacute" xMin="46" yMin="0" xMax="1457" yMax="2396">
      <component glyphName="A" x="0" y="0" flags="0x1204"/>
      <component glyphName="acute" x="172" y="1601" flags="0x1004"/>
    </TTGlyph>
    <TTGlyph name="Abreve" xMin="46" yMin="0" xMax="1457" yMax="2045">
      <component glyphName="A" x="0" y="0" flags="0x1204"/>
      <component glyphName="uni0306" x="231" y="1615" flags="0x1004"/>
    </TTGlyph>
    <TTGlyph name="Acircumflex" xMin="46" yMin="0" xMax="1457" yMax="2340">
      <component glyphName="A" x="0" y="0" flags="0x1204"/>
      <component glyphName="circumflex" x="58" y="1615" flags="0x1004"/>
    </TTGlyph>
    <TTGlyph name="Adieresis" xMin="46" yMin="0" xMax="1457" yMax="2031">
      <component glyphName="A" x="0" y="0" flags="0x1204"/>
      <component glyphName="dieresis" x="173" y="1560" flags="0x1004"/>
    </TTGlyph>
    <TTGlyph name="Agrave" xMin="46" yMin="0" xMax="1457" yMax="2383">
      <component glyphName="A" x="0" y="0" flags="0x1204"/>
      <component glyphName="grave" x="244" y="1601" flags="0x1004"/>
    </TTGlyph>
    <TTGlyph name="Amacron" xMin="46" yMin="0" xMax="1457" yMax="2016">
      <component glyphName="A" x="0" y="0" flags="0x1204"/>
      <component glyphName="macron" x="201" y="1615" flags="0x1004"/>
    </TTGlyph>
    <TTGlyph name="Aogonek" xMin="46" yMin="-619" xMax="1457" yMax="1602">
      <component glyphName="A" x="0" y="0" flags="0x1204"/>
      <component glyphName="ogonek" x="835" y="0" flags="0x1004"/>
    </TTGlyph>
    <TTGlyph name="Aring" xMin="46" yMin="0" xMax="1457" yMax="2311">
      <component glyphName="A" x="0" y="0" flags="0x1204"/>
      <component glyphName="ring" x="91" y="1601" flags="0x1004"/>
    </TTGlyph>
    <TTGlyph name="Atilde" xMin="46" yMin="0" xMax="1457" yMax="2052">
      <component glyphName="A" x="0" y="0" flags="0x1204"/>
      <component glyphName="tilde" x="-2" y="1601" flags="0x1004"/>
    </TTGlyph>
    <TTGlyph name="B" xMin="155" yMin="0" xMax="1344" yMax="1602">
      <contour>
        <pt x="551" y="1602" on="1"/>
        <pt x="738" y="1602" on="0"/>
        <pt x="991" y="1557" on="0"/>
        <pt x="1077" y="1516" on="1"/>
        <pt x="1121" y="1495" on="0"/>
        <pt x="1194" y="1436" on="0"/>
        <pt x="1246" y="1360" on="0"/>
        <pt x="1274" y="1266" on="0"/>
        <pt x="1274" y="1208" on="1"/>
        <pt x="1274" y="1121" on="0"/>
        <pt x="1224" y="997" on="0"/>
        <pt x="1134" y="915" on="0"/>
        <pt x="1010" y="869" on="0"/>
        <pt x="935" y="859" on="1"/>
        <pt x="1020" y="848" on="0"/>
        <pt x="1170" y="799" on="0"/>
        <pt x="1280" y="706" on="0"/>
        <pt x="1344" y="558" on="0"/>
        <pt x="1344" y="448" on="1"/>
        <pt x="1344" y="349" on="0"/>
        <pt x="1294" y="206" on="0"/>
        <pt x="1199" y="106" on="0"/>
        <pt x="1061" y="45" on="0"/>
        <pt x="885" y="11" on="0"/>
        <pt x="672" y="0" on="0"/>
        <pt x="550" y="0" on="1"/>
        <pt x="155" y="0" on="1"/>
        <pt x="155" y="1602" on="1"/>
      </contour>
      <contour>
        <pt x="616" y="192" on="1"/>
        <pt x="738" y="192" on="0"/>
        <pt x="909" y="215" on="0"/>
        <pt x="1016" y="277" on="0"/>
        <pt x="1065" y="384" on="0"/>
        <pt x="1065" y="468" on="1"/>
        <pt x="1065" y="551" on="0"/>
        <pt x="1016" y="662" on="0"/>
        <pt x="913" y="728" on="0"/>
        <pt x="754" y="755" on="0"/>
        <pt x="644" y="755" on="1"/>
        <pt x="442" y="755" on="1"/>
        <pt x="442" y="192" on="1"/>
      </contour>
      <contour>
        <pt x="442" y="935" on="1"/>
        <pt x="643" y="935" on="1"/>
        <pt x="748" y="935" on="0"/>
        <pt x="893" y="964" on="0"/>
        <pt x="983" y="1026" on="0"/>
        <pt x="1023" y="1123" on="0"/>
        <pt x="1023" y="1190" on="1"/>
        <pt x="1023" y="1248" on="0"/>
        <pt x="979" y="1331" on="0"/>
        <pt x="879" y="1385" on="0"/>
        <pt x="717" y="1410" on="0"/>
        <pt x="600" y="1410" on="1"/>
        <pt x="442" y="1410" on="1"/>
      </contour>
    </TTGlyph>
    <TTGlyph name="C" xMin="104" yMin="-35" xMax="1260" yMax="1631">
      <contour>
        <pt x="394" y="786" on="1"/>
        <pt x="394" y="639" on="0"/>
        <pt x="445" y="412" on="0"/>
        <pt x="548" y="257" on="0"/>
        <pt x="706" y="177" on="0"/>
        <pt x="814" y="177" on="1"/>
        <pt x="877" y="177" on="0"/>
        <pt x="992" y="201" on="0"/>
        <pt x="1088" y="235" on="0"/>
        <pt x="1161" y="274" on="0"/>
        <pt x="1181" y="288" on="1"/>
        <pt x="1260" y="85" on="1"/>
        <pt x="1246" y="73" on="0"/>
        <pt x="1163" y="32" on="0"/>
        <pt x="1040" y="-7" on="0"/>
        <pt x="883" y="-35" on="0"/>
        <pt x="796" y="-35" on="1"/>
        <pt x="626" y="-35" on="0"/>
        <pt x="368" y="77" on="0"/>
        <pt x="193" y="289" on="0"/>
        <pt x="104" y="596" on="0"/>
        <pt x="104" y="791" on="1"/>
        <pt x="104" y="904" on="0"/>
        <pt x="139" y="1116" on="0"/>
        <pt x="213" y="1303" on="0"/>
        <pt x="326" y="1458" on="0"/>
        <pt x="480" y="1569" on="0"/>
        <pt x="678" y="1631" on="0"/>
        <pt x="800" y="1631" on="1"/>
        <pt x="874" y="1631" on="0"/>
        <pt x="1014" y="1612" on="0"/>
        <pt x="1132" y="1583" on="0"/>
        <pt x="1222" y="1548" on="0"/>
        <pt x="1246" y="1531" on="1"/>
        <pt x="1172" y="1324" on="1"/>
        <pt x="1148" y="1340" on="0"/>
        <pt x="1077" y="1373" on="0"/>
        <pt x="987" y="1400" on="0"/>
        <pt x="878" y="1418" on="0"/>
        <pt x="817" y="1418" on="1"/>
        <pt x="706" y="1418" on="0"/>
        <pt x="547" y="1333" on="0"/>
        <pt x="443" y="1171" on="0"/>
        <pt x="394" y="936" on="0"/>
      </contour>
    </TTGlyph>
    <TTGlyph name="Cacute" xMin="104" yMin="-35" xMax="1260" yMax="2410">
      <component glyphName="C" x="0" y="0" flags="0x1204"/>
      <component glyphName="acutecomb" x="129" y="1615" flags="0x1004"/>
    </TTGlyph>
    <TTGlyph name="Ccaron" xMin="104" yMin="-35" xMax="1260" yMax="2351">
      <component glyphName="C" x="0" y="0" flags="0x1204"/>
      <component glyphName="caron" x="-10" y="1615" flags="0x1004"/>
    </TTGlyph>
    <TTGlyph name="Ccedilla" xMin="104" yMin="-651" xMax="1260" yMax="1631">
      <component glyphName="C" x="0" y="0" flags="0x1204"/>
      <component glyphName="cedilla" x="349" y="-19" flags="0x1004"/>
    </TTGlyph>
    <TTGlyph name="Ccircumflex" xMin="104" yMin="-35" xMax="1260" yMax="2340">
      <component glyphName="C" x="0" y="0" flags="0x1204"/>
      <component glyphName="circumflex" x="-10" y="1615" flags="0x1004"/>
    </TTGlyph>
    <TTGlyph name="Cdotaccent" xMin="104" yMin="-35" xMax="1260" yMax="2117">
      <component glyphName="C" x="0" y="0" flags="0x1204"/>
      <component glyphName="dotaccent" x="314" y="1615" flags="0x1004"/>
    </TTGlyph>
    <TTGlyph name="D" xMin="157" yMin="0" xMax="1440" yMax="1602">
      <contour>
        <pt x="1149" y="799" on="1"/>
        <pt x="1149" y="944" on="0"/>
        <pt x="1104" y="1172" on="0"/>
        <pt x="997" y="1328" on="0"/>
        <pt x="817" y="1410" on="0"/>
        <pt x="682" y="1410" on="1"/>
        <pt x="442" y="1410" on="1"/>
        <pt x="442" y="192" on="1"/>
        <pt x="671" y="192" on="1"/>
        <pt x="800" y="192" on="0"/>
        <pt x="982" y="274" on="0"/>
        <pt x="1096" y="430" on="0"/>
        <pt x="1149" y="656" on="0"/>
      </contour>
      <contour>
        <pt x="1440" y="800" on="1"/>
        <pt x="1440" y="622" on="0"/>
        <pt x="1361" y="328" on="0"/>
        <pt x="1183" y="117" on="0"/>
        <pt x="896" y="0" on="0"/>
        <pt x="688" y="0" on="1"/>
        <pt x="157" y="0" on="1"/>
        <pt x="157" y="1602" on="1"/>
        <pt x="679" y="1602" on="1"/>
        <pt x="1058" y="1602" on="0"/>
        <pt x="1440" y="1211" on="0"/>
      </contour>
    </TTGlyph>
    <TTGlyph name="Dcaron" xMin="157" yMin="0" xMax="1440" yMax="2351">
      <component glyphName="D" x="0" y="0" flags="0x1204"/>
      <component glyphName="caron" x="105" y="1615" flags="0x1004"/>
    </TTGlyph>
    <TTGlyph name="Dcroat" xMin="3" yMin="0" xMax="1440" yMax="1602">
      <component glyphName="D" x="0" y="0" flags="0x1204"/>
      <component glyphName="macron" x="-270" y="551" flags="0x1004"/>
    </TTGlyph>
    <TTGlyph name="E" xMin="155" yMin="0" xMax="1203" yMax="1602">
      <contour>
        <pt x="155" y="0" on="1"/>
        <pt x="155" y="1602" on="1"/>
        <pt x="1191" y="1602" on="1"/>
        <pt x="1191" y="1410" on="1"/>
        <pt x="442" y="1410" on="1"/>
        <pt x="442" y="924" on="1"/>
        <pt x="1096" y="924" on="1"/>
        <pt x="1096" y="750" on="1"/>
        <pt x="442" y="750" on="1"/>
        <pt x="442" y="189" on="1"/>
        <pt x="1203" y="189" on="1"/>
        <pt x="1203" y="0" on="1"/>
      </contour>
    </TTGlyph>
    <TTGlyph name="Eacute" xMin="155" yMin="0" xMax="1203" yMax="2398">
      <component glyphName="E" x="0" y="0" flags="0x1204"/>
      <component glyphName="acute" x="51" y="1603" flags="0x1004"/>
    </TTGlyph>
    <TTGlyph name="Ecaron" xMin="155" yMin="0" xMax="1203" yMax="2351">
      <component glyphName="E" x="0" y="0" flags="0x1204"/>
      <component glyphName="caron" x="-13" y="1615" flags="0x1004"/>
    </TTGlyph>
    <TTGlyph name="Ecircumflex" xMin="155" yMin="0" xMax="1203" yMax="2340">
      <component glyphName="E" x="0" y="0" flags="0x1204"/>
      <component glyphName="circumflex" x="-13" y="1615" flags="0x1004"/>
    </TTGlyph>
    <TTGlyph name="Edieresis" xMin="155" yMin="0" xMax="1203" yMax="2032">
      <component glyphName="E" x="0" y="0" flags="0x1204"/>
      <component glyphName="dieresis" x="103" y="1561" flags="0x1004"/>
    </TTGlyph>
    <TTGlyph name="Edotaccent" xMin="155" yMin="0" xMax="1203" yMax="2117">
      <component glyphName="E" x="0" y="0" flags="0x1204"/>
      <component glyphName="dotaccent" x="311" y="1615" flags="0x1004"/>
    </TTGlyph>
    <TTGlyph name="Egrave" xMin="155" yMin="0" xMax="1203" yMax="2385">
      <component glyphName="E" x="0" y="0" flags="0x1204"/>
      <component glyphName="grave" x="174" y="1603" flags="0x1004"/>
    </TTGlyph>
    <TTGlyph name="Emacron" xMin="155" yMin="0" xMax="1203" yMax="2016">
      <component glyphName="E" x="0" y="0" flags="0x1204"/>
      <component glyphName="macron" x="129" y="1615" flags="0x1004"/>
    </TTGlyph>
    <TTGlyph name="Eng" xMin="155" yMin="-623" xMax="1486" yMax="1602">
      <contour>
        <pt x="873" y="-436" on="1"/>
        <pt x="975" y="-420" on="0"/>
        <pt x="1103" y="-365" on="0"/>
        <pt x="1174" y="-272" on="0"/>
        <pt x="1186" y="-203" on="1"/>
        <pt x="1195" y="-154" on="0"/>
        <pt x="1198" y="-59" on="1"/>
        <pt x="421" y="1255" on="1"/>
        <pt x="421" y="0" on="1"/>
        <pt x="155" y="0" on="1"/>
        <pt x="155" y="1602" on="1"/>
        <pt x="489" y="1602" on="1"/>
        <pt x="1221" y="360" on="1"/>
        <pt x="1221" y="1602" on="1"/>
        <pt x="1486" y="1602" on="1"/>
        <pt x="1486" y="-15" on="1"/>
        <pt x="1486" y="-156" on="0"/>
        <pt x="1435" y="-374" on="0"/>
        <pt x="1311" y="-527" on="0"/>
        <pt x="1103" y="-614" on="0"/>
        <pt x="947" y="-623" on="1"/>
      </contour>
    </TTGlyph>
    <TTGlyph name="Eogonek" xMin="155" yMin="-619" xMax="1203" yMax="1602">
      <component glyphName="E" x="0" y="0" flags="0x1204"/>
      <component glyphName="ogonek" x="454" y="0" flags="0x1004"/>
    </TTGlyph>
    <TTGlyph name="Eth" xMin="-3" yMin="0" xMax="1439" yMax="1602">
      <contour>
        <pt x="1148" y="798" on="1"/>
        <pt x="1148" y="925" on="0"/>
        <pt x="1116" y="1140" on="0"/>
        <pt x="1027" y="1302" on="0"/>
        <pt x="871" y="1401" on="0"/>
        <pt x="747" y="1411" on="1"/>
        <pt x="715" y="1413" on="0"/>
        <pt x="649" y="1417" on="0"/>
        <pt x="614" y="1417" on="1"/>
        <pt x="447" y="1417" on="1"/>
        <pt x="447" y="919" on="1"/>
        <pt x="699" y="919" on="1"/>
        <pt x="699" y="734" on="1"/>
        <pt x="447" y="734" on="1"/>
        <pt x="447" y="189" on="1"/>
        <pt x="614" y="189" on="1"/>
        <pt x="684" y="189" on="0"/>
        <pt x="746" y="195" on="1"/>
        <pt x="872" y="205" on="0"/>
        <pt x="1029" y="302" on="0"/>
        <pt x="1117" y="461" on="0"/>
        <pt x="1148" y="673" on="0"/>
      </contour>
      <contour>
        <pt x="1439" y="796" on="1"/>
        <pt x="1439" y="618" on="0"/>
        <pt x="1353" y="325" on="0"/>
        <pt x="1172" y="115" on="0"/>
        <pt x="890" y="0" on="0"/>
        <pt x="694" y="0" on="1"/>
        <pt x="160" y="0" on="1"/>
        <pt x="160" y="734" on="1"/>
        <pt x="-3" y="734" on="1"/>
        <pt x="-3" y="919" on="1"/>
        <pt x="160" y="919" on="1"/>
        <pt x="160" y="1602" on="1"/>
        <pt x="694" y="1602" on="1"/>
        <pt x="886" y="1602" on="0"/>
        <pt x="1167" y="1494" on="0"/>
        <pt x="1350" y="1288" on="0"/>
        <pt x="1439" y="988" on="0"/>
      </contour>
    </TTGlyph>
    <TTGlyph name="Euro" xMin="49" yMin="-38" xMax="1181" yMax="1550">
      <contour>
        <pt x="812" y="730" on="1"/>
        <pt x="812" y="572" on="1"/>
        <pt x="451" y="572" on="1"/>
        <pt x="461" y="473" on="0"/>
        <pt x="513" y="326" on="0"/>
        <pt x="595" y="229" on="0"/>
        <pt x="704" y="181" on="0"/>
        <pt x="771" y="181" on="1"/>
        <pt x="827" y="181" on="0"/>
        <pt x="927" y="201" on="0"/>
        <pt x="1007" y="229" on="0"/>
        <pt x="1064" y="259" on="0"/>
        <pt x="1079" y="270" on="1"/>
        <pt x="1138" y="68" on="1"/>
        <pt x="1126" y="56" on="0"/>
        <pt x="1063" y="20" on="0"/>
        <pt x="968" y="-14" on="0"/>
        <pt x="844" y="-38" on="0"/>
        <pt x="770" y="-38" on="1"/>
        <pt x="649" y="-38" on="0"/>
        <pt x="447" y="41" on="0"/>
        <pt x="296" y="196" on="0"/>
        <pt x="202" y="423" on="0"/>
        <pt x="189" y="572" on="1"/>
        <pt x="58" y="572" on="1"/>
        <pt x="58" y="730" on="1"/>
        <pt x="183" y="730" on="1"/>
        <pt x="184" y="762" on="0"/>
        <pt x="185" y="813" on="0"/>
        <pt x="187" y="835" on="1"/>
        <pt x="49" y="835" on="1"/>
        <pt x="49" y="993" on="1"/>
        <pt x="209" y="993" on="1"/>
        <pt x="234" y="1115" on="0"/>
        <pt x="336" y="1320" on="0"/>
        <pt x="488" y="1468" on="0"/>
        <pt x="691" y="1550" on="0"/>
        <pt x="819" y="1550" on="1"/>
        <pt x="892" y="1550" on="0"/>
        <pt x="1015" y="1526" on="0"/>
        <pt x="1108" y="1493" on="0"/>
        <pt x="1169" y="1460" on="0"/>
        <pt x="1181" y="1452" on="1"/>
        <pt x="1116" y="1256" on="1"/>
        <pt x="1102" y="1267" on="0"/>
        <pt x="1042" y="1296" on="0"/>
        <pt x="960" y="1321" on="0"/>
        <pt x="863" y="1338" on="0"/>
        <pt x="812" y="1338" on="1"/>
        <pt x="689" y="1338" on="0"/>
        <pt x="513" y="1165" on="0"/>
        <pt x="475" y="993" on="1"/>
        <pt x="874" y="993" on="1"/>
        <pt x="874" y="835" on="1"/>
        <pt x="447" y="835" on="1"/>
        <pt x="445" y="791" on="0"/>
        <pt x="444" y="730" on="1"/>
      </contour>
    </TTGlyph>
    <TTGlyph name="F" xMin="155" yMin="0" xMax="1172" yMax="1602">
      <contour>
        <pt x="442" y="0" on="1"/>
        <pt x="155" y="0" on="1"/>
        <pt x="155" y="1602" on="1"/>
        <pt x="1172" y="1602" on="1"/>
        <pt x="1172" y="1410" on="1"/>
        <pt x="442" y="1410" on="1"/>
        <pt x="442" y="917" on="1"/>
        <pt x="1097" y="917" on="1"/>
        <pt x="1097" y="743" on="1"/>
        <pt x="442" y="743" on="1"/>
      </contour>
    </TTGlyph>
    <TTGlyph name="G" xMin="104" yMin="-35" xMax="1407" yMax="1631">
      <contour>
        <pt x="1152" y="679" on="1"/>
        <pt x="762" y="679" on="1"/>
        <pt x="762" y="858" on="1"/>
        <pt x="1407" y="858" on="1"/>
        <pt x="1407" y="0" on="1"/>
        <pt x="1241" y="0" on="1"/>
        <pt x="1189" y="171" on="1"/>
        <pt x="1173" y="126" on="0"/>
        <pt x="1103" y="50" on="0"/>
        <pt x="997" y="-5" on="0"/>
        <pt x="857" y="-35" on="0"/>
        <pt x="771" y="-35" on="1"/>
        <pt x="611" y="-35" on="0"/>
        <pt x="363" y="79" on="0"/>
        <pt x="193" y="292" on="0"/>
        <pt x="104" y="598" on="0"/>
        <pt x="104" y="789" on="1"/>
        <pt x="104" y="994" on="0"/>
        <pt x="203" y="1308" on="0"/>
        <pt x="391" y="1521" on="0"/>
        <pt x="664" y="1631" on="0"/>
        <pt x="838" y="1631" on="1"/>
        <pt x="918" y="1631" on="0"/>
        <pt x="1057" y="1610" on="0"/>
        <pt x="1176" y="1574" on="0"/>
        <pt x="1272" y="1526" on="0"/>
        <pt x="1310" y="1499" on="1"/>
        <pt x="1222" y="1305" on="1"/>
        <pt x="1186" y="1327" on="0"/>
        <pt x="1099" y="1368" on="0"/>
        <pt x="1000" y="1399" on="0"/>
        <pt x="893" y="1418" on="0"/>
        <pt x="836" y="1418" on="1"/>
        <pt x="623" y="1418" on="0"/>
        <pt x="395" y="1107" on="0"/>
        <pt x="395" y="791" on="1"/>
        <pt x="395" y="652" on="0"/>
        <pt x="439" y="426" on="0"/>
        <pt x="535" y="265" on="0"/>
        <pt x="688" y="178" on="0"/>
        <pt x="797" y="178" on="1"/>
        <pt x="863" y="178" on="0"/>
        <pt x="979" y="198" on="0"/>
        <pt x="1072" y="240" on="0"/>
        <pt x="1137" y="308" on="0"/>
        <pt x="1152" y="356" on="1"/>
      </contour>
    </TTGlyph>
    <TTGlyph name="Gbreve" xMin="104" yMin="-35" xMax="1407" yMax="2045">
      <component glyphName="G" x="0" y="0" flags="0x1204"/>
      <component glyphName="uni0306" x="235" y="1615" flags="0x1004"/>
    </TTGlyph>
    <TTGlyph name="Gcircumflex" xMin="104" yMin="-35" xMax="1407" yMax="2340">
      <component glyphName="G" x="0" y="0" flags="0x1204"/>
      <component glyphName="circumflex" x="62" y="1615" flags="0x1004"/>
    </TTGlyph>
    <TTGlyph name="Gcommaaccent" xMin="104" yMin="-755" xMax="1407" yMax="1631">
      <component glyphName="G" x="0" y="0" flags="0x1204"/>
      <component glyphName="commaaccent" x="483" y="1" flags="0x1004"/>
    </TTGlyph>
    <TTGlyph name="Gdotaccent" xMin="104" yMin="-35" xMax="1407" yMax="2117">
      <component glyphName="G" x="0" y="0" flags="0x1204"/>
      <component glyphName="dotaccent" x="387" y="1615" flags="0x1004"/>
    </TTGlyph>
    <TTGlyph name="H" xMin="155" yMin="0" xMax="1432" yMax="1602">
      <contour>
        <pt x="1145" y="744" on="1"/>
        <pt x="442" y="744" on="1"/>
        <pt x="442" y="0" on="1"/>
        <pt x="155" y="0" on="1"/>
        <pt x="155" y="1602" on="1"/>
        <pt x="442" y="1602" on="1"/>
        <pt x="442" y="918" on="1"/>
        <pt x="1145" y="918" on="1"/>
        <pt x="1145" y="1602" on="1"/>
        <pt x="1432" y="1602" on="1"/>
        <pt x="1432" y="0" on="1"/>
        <pt x="1145" y="0" on="1"/>
      </contour>
    </TTGlyph>
    <TTGlyph name="Hbar" xMin="66" yMin="0" xMax="1518" yMax="1602">
      <contour>
        <pt x="66" y="1176" on="1"/>
        <pt x="66" y="1378" on="1"/>
        <pt x="1518" y="1378" on="1"/>
        <pt x="1518" y="1176" on="1"/>
      </contour>
      <contour>
        <pt x="1145" y="744" on="1"/>
        <pt x="442" y="744" on="1"/>
        <pt x="442" y="0" on="1"/>
        <pt x="155" y="0" on="1"/>
        <pt x="155" y="1602" on="1"/>
        <pt x="442" y="1602" on="1"/>
        <pt x="442" y="918" on="1"/>
        <pt x="1145" y="918" on="1"/>
        <pt x="1145" y="1602" on="1"/>
        <pt x="1432" y="1602" on="1"/>
        <pt x="1432" y="0" on="1"/>
        <pt x="1145" y="0" on="1"/>
      </contour>
    </TTGlyph>
    <TTGlyph name="Hcircumflex" xMin="155" yMin="0" xMax="1432" yMax="2340">
      <component glyphName="H" x="0" y="0" flags="0x1204"/>
      <component glyphName="circumflex" x="100" y="1615" flags="0x1004"/>
    </TTGlyph>
    <TTGlyph name="I" xMin="88" yMin="0" xMax="751" yMax="1602">
      <contour>
        <pt x="278" y="143" on="1"/>
        <pt x="278" y="1455" on="1"/>
        <pt x="88" y="1455" on="1"/>
        <pt x="88" y="1602" on="1"/>
        <pt x="751" y="1602" on="1"/>
        <pt x="751" y="1455" on="1"/>
        <pt x="559" y="1455" on="1"/>
        <pt x="559" y="143" on="1"/>
        <pt x="751" y="143" on="1"/>
        <pt x="751" y="0" on="1"/>
        <pt x="88" y="0" on="1"/>
        <pt x="88" y="143" on="1"/>
      </contour>
    </TTGlyph>
    <TTGlyph name="Iacute" xMin="88" yMin="0" xMax="751" yMax="2402">
      <component glyphName="I" x="0" y="0" flags="0x1204"/>
      <component glyphName="acute" x="-213" y="1607" flags="0x1004"/>
    </TTGlyph>
    <TTGlyph name="Icircumflex" xMin="52" yMin="0" xMax="789" yMax="2340">
      <component glyphName="I" x="0" y="0" flags="0x1204"/>
      <component glyphName="circumflex" x="-273" y="1615" flags="0x1004"/>
    </TTGlyph>
    <TTGlyph name="Idieresis" xMin="-50" yMin="0" xMax="852" yMax="2037">
      <component glyphName="I" x="0" y="0" flags="0x1204"/>
      <component glyphName="dieresis" x="-161" y="1566" flags="0x1004"/>
    </TTGlyph>
    <TTGlyph name="Idotaccent" xMin="88" yMin="0" xMax="751" yMax="2117">
      <component glyphName="I" x="0" y="0" flags="0x1204"/>
      <component glyphName="dotaccent" x="51" y="1615" flags="0x1004"/>
    </TTGlyph>
    <TTGlyph name="Igrave" xMin="-26" yMin="0" xMax="751" yMax="2389">
      <component glyphName="I" x="0" y="0" flags="0x1204"/>
      <component glyphName="grave" x="-91" y="1607" flags="0x1004"/>
    </TTGlyph>
    <TTGlyph name="Imacron" xMin="88" yMin="0" xMax="751" yMax="2016">
      <component glyphName="I" x="0" y="0" flags="0x1204"/>
      <component glyphName="macron" x="-130" y="1615" flags="0x1004"/>
    </TTGlyph>
    <TTGlyph name="Iogonek" xMin="88" yMin="-619" xMax="751" yMax="1602">
      <component glyphName="I" x="0" y="0" flags="0x1204"/>
      <component glyphName="ogonek" x="73" y="0" flags="0x1004"/>
    </TTGlyph>
    <TTGlyph name="Itilde" xMin="3" yMin="0" xMax="838" yMax="2066">
      <component glyphName="I" x="0" y="0" flags="0x1204"/>
      <component glyphName="tilde" x="-330" y="1615" flags="0x1004"/>
    </TTGlyph>
    <TTGlyph name="J" xMin="40" yMin="-90" xMax="653" yMax="1602">
      <contour>
        <pt x="40" y="97" on="1"/>
        <pt x="142" y="113" on="0"/>
        <pt x="270" y="168" on="0"/>
        <pt x="341" y="261" on="0"/>
        <pt x="366" y="399" on="0"/>
        <pt x="366" y="500" on="1"/>
        <pt x="366" y="1602" on="1"/>
        <pt x="653" y="1602" on="1"/>
        <pt x="653" y="518" on="1"/>
        <pt x="653" y="377" on="0"/>
        <pt x="602" y="159" on="0"/>
        <pt x="478" y="6" on="0"/>
        <pt x="270" y="-81" on="0"/>
        <pt x="114" y="-90" on="1"/>
      </contour>
    </TTGlyph>
    <TTGlyph name="Jcircumflex" xMin="40" yMin="-90" xMax="837" yMax="2340">
      <component glyphName="J" x="0" y="0" flags="0x1204"/>
      <component glyphName="circumflex" x="-225" y="1615" flags="0x1004"/>
    </TTGlyph>
    <TTGlyph name="K" xMin="155" yMin="0" xMax="1430" yMax="1602">
      <contour>
        <pt x="442" y="0" on="1"/>
        <pt x="155" y="0" on="1"/>
        <pt x="155" y="1602" on="1"/>
        <pt x="442" y="1602" on="1"/>
        <pt x="442" y="888" on="1"/>
        <pt x="596" y="888" on="1"/>
        <pt x="1066" y="1602" on="1"/>
        <pt x="1369" y="1602" on="1"/>
        <pt x="823" y="807" on="1"/>
        <pt x="1430" y="0" on="1"/>
        <pt x="1108" y="0" on="1"/>
        <pt x="588" y="719" on="1"/>
        <pt x="442" y="719" on="1"/>
      </contour>
    </TTGlyph>
    <TTGlyph name="Kcircumflex" xMin="155" yMin="0" xMax="1430" yMax="2340">
      <component glyphName="K" x="0" y="0" flags="0x1204"/>
      <component glyphName="circumflex" x="99" y="1615" flags="0x1004"/>
    </TTGlyph>
    <TTGlyph name="Kcommaaccent" xMin="155" yMin="-755" xMax="1430" yMax="1602">
      <component glyphName="K" x="0" y="0" flags="0x1204"/>
      <component glyphName="commaaccent" x="520" y="1" flags="0x1004"/>
    </TTGlyph>
    <TTGlyph name="L" xMin="155" yMin="0" xMax="1166" yMax="1602">
      <contour>
        <pt x="155" y="0" on="1"/>
        <pt x="155" y="1602" on="1"/>
        <pt x="442" y="1602" on="1"/>
        <pt x="442" y="192" on="1"/>
        <pt x="1166" y="192" on="1"/>
        <pt x="1166" y="0" on="1"/>
      </contour>
    </TTGlyph>
    <TTGlyph name="Lacute" xMin="155" yMin="0" xMax="1166" yMax="2410">
      <component glyphName="L" x="0" y="0" flags="0x1204"/>
      <component glyphName="acutecomb" x="107" y="1615" flags="0x1004"/>
    </TTGlyph>
    <TTGlyph name="Lcaron" xMin="155" yMin="0" xMax="1166" yMax="1605">
      <component glyphName="L" x="0" y="0" flags="0x1204"/>
      <component glyphName="quoteright" x="447" y="3" flags="0x1004"/>
    </TTGlyph>
    <TTGlyph name="Lcommaaccent" xMin="155" yMin="-755" xMax="1166" yMax="1602">
      <component glyphName="L" x="0" y="0" flags="0x1204"/>
      <component glyphName="commaaccent" x="388" y="1" flags="0x1004"/>
    </TTGlyph>
    <TTGlyph name="Lslash" xMin="0" yMin="0" xMax="1166" yMax="1602">
      <component glyphName="L" x="0" y="0" flags="0x1204"/>
      <component glyphName="endash" x="-261" y="202" flags="0x1004"/>
    </TTGlyph>
    <TTGlyph name="M" xMin="155" yMin="0" xMax="1820" yMax="1602">
      <contour>
        <pt x="410" y="1288" on="1"/>
        <pt x="410" y="0" on="1"/>
        <pt x="155" y="0" on="1"/>
        <pt x="155" y="1602" on="1"/>
        <pt x="544" y="1602" on="1"/>
        <pt x="983" y="314" on="1"/>
        <pt x="1430" y="1602" on="1"/>
        <pt x="1820" y="1602" on="1"/>
        <pt x="1820" y="0" on="1"/>
        <pt x="1565" y="0" on="1"/>
        <pt x="1565" y="1288" on="1"/>
        <pt x="1126" y="0" on="1"/>
        <pt x="851" y="0" on="1"/>
      </contour>
    </TTGlyph>
    <TTGlyph name="N" xMin="155" yMin="0" xMax="1486" yMax="1602">
      <contour>
        <pt x="1165" y="0" on="1"/>
        <pt x="421" y="1255" on="1"/>
        <pt x="421" y="0" on="1"/>
        <pt x="155" y="0" on="1"/>
        <pt x="155" y="1602" on="1"/>
        <pt x="489" y="1602" on="1"/>
        <pt x="1221" y="360" on="1"/>
        <pt x="1221" y="1602" on="1"/>
        <pt x="1486" y="1602" on="1"/>
        <pt x="1486" y="0" on="1"/>
      </contour>
    </TTGlyph>
    <TTGlyph name="Nacute" xMin="155" yMin="0" xMax="1486" yMax="2410">
      <component glyphName="N" x="0" y="0" flags="0x1204"/>
      <component glyphName="acutecomb" x="267" y="1615" flags="0x1004"/>
    </TTGlyph>
    <TTGlyph name="Ncaron" xMin="155" yMin="0" xMax="1486" yMax="2351">
      <component glyphName="N" x="0" y="0" flags="0x1204"/>
      <component glyphName="caron" x="127" y="1615" flags="0x1004"/>
    </TTGlyph>
    <TTGlyph name="Ncommaaccent" xMin="155" yMin="-755" xMax="1486" yMax="1602">
      <component glyphName="N" x="0" y="0" flags="0x1204"/>
      <component glyphName="commaaccent" x="548" y="1" flags="0x1004"/>
    </TTGlyph>
    <TTGlyph name="Ngrave" xMin="155" yMin="0" xMax="1486" yMax="2361">
      <component glyphName="N" x="0" y="0" flags="0x1004"/>
      <component glyphName="grave" x="380" y="1579" flags="0x1004"/>
    </TTGlyph>
    <TTGlyph name="Ntilde" xMin="155" yMin="0" xMax="1486" yMax="2054">
      <component glyphName="N" x="0" y="0" flags="0x1204"/>
      <component glyphName="tilde" x="54" y="1603" flags="0x1004"/>
    </TTGlyph>
    <TTGlyph name="O" xMin="104" yMin="-36" xMax="1492" yMax="1630">
      <contour>
        <pt x="1492" y="809" on="1"/>
        <pt x="1492" y="630" on="0"/>
        <pt x="1420" y="321" on="0"/>
        <pt x="1257" y="94" on="0"/>
        <pt x="991" y="-36" on="0"/>
        <pt x="797" y="-36" on="1"/>
        <pt x="668" y="-36" on="0"/>
        <pt x="464" y="24" on="0"/>
        <pt x="310" y="134" on="0"/>
        <pt x="202" y="290" on="0"/>
        <pt x="135" y="480" on="0"/>
        <pt x="104" y="701" on="0"/>
        <pt x="104" y="821" on="1"/>
        <pt x="104" y="1010" on="0"/>
        <pt x="192" y="1311" on="0"/>
        <pt x="366" y="1519" on="0"/>
        <pt x="625" y="1630" on="0"/>
        <pt x="797" y="1630" on="1"/>
        <pt x="970" y="1630" on="0"/>
        <pt x="1231" y="1519" on="0"/>
        <pt x="1405" y="1307" on="0"/>
        <pt x="1492" y="1002" on="0"/>
      </contour>
      <contour>
        <pt x="394" y="794" on="1"/>
        <pt x="394" y="651" on="0"/>
        <pt x="439" y="423" on="0"/>
        <pt x="536" y="263" on="0"/>
        <pt x="689" y="178" on="0"/>
        <pt x="797" y="178" on="1"/>
        <pt x="902" y="178" on="0"/>
        <pt x="1055" y="259" on="0"/>
        <pt x="1154" y="416" on="0"/>
        <pt x="1201" y="645" on="0"/>
        <pt x="1201" y="794" on="1"/>
        <pt x="1201" y="944" on="0"/>
        <pt x="1155" y="1176" on="0"/>
        <pt x="1057" y="1336" on="0"/>
        <pt x="906" y="1419" on="0"/>
        <pt x="801" y="1419" on="1"/>
        <pt x="693" y="1419" on="0"/>
        <pt x="539" y="1337" on="0"/>
        <pt x="440" y="1178" on="0"/>
        <pt x="394" y="945" on="0"/>
      </contour>
    </TTGlyph>
    <TTGlyph name="OE" xMin="104" yMin="-36" xMax="2250" yMax="1630">
      <contour>
        <pt x="1203" y="0" on="1"/>
        <pt x="1203" y="1602" on="1"/>
        <pt x="2239" y="1602" on="1"/>
        <pt x="2239" y="1410" on="1"/>
        <pt x="1489" y="1410" on="1"/>
        <pt x="1489" y="924" on="1"/>
        <pt x="2143" y="924" on="1"/>
        <pt x="2143" y="750" on="1"/>
        <pt x="1489" y="750" on="1"/>
        <pt x="1489" y="189" on="1"/>
        <pt x="2250" y="189" on="1"/>
        <pt x="2250" y="0" on="1"/>
      </contour>
      <contour>
        <pt x="1492" y="809" on="1"/>
        <pt x="1492" y="630" on="0"/>
        <pt x="1420" y="321" on="0"/>
        <pt x="1257" y="94" on="0"/>
        <pt x="991" y="-36" on="0"/>
        <pt x="797" y="-36" on="1"/>
        <pt x="668" y="-36" on="0"/>
        <pt x="464" y="24" on="0"/>
        <pt x="310" y="134" on="0"/>
        <pt x="202" y="290" on="0"/>
        <pt x="135" y="480" on="0"/>
        <pt x="104" y="701" on="0"/>
        <pt x="104" y="821" on="1"/>
        <pt x="104" y="1010" on="0"/>
        <pt x="192" y="1311" on="0"/>
        <pt x="366" y="1519" on="0"/>
        <pt x="625" y="1630" on="0"/>
        <pt x="797" y="1630" on="1"/>
        <pt x="970" y="1630" on="0"/>
        <pt x="1231" y="1519" on="0"/>
        <pt x="1405" y="1307" on="0"/>
        <pt x="1492" y="1002" on="0"/>
      </contour>
      <contour>
        <pt x="394" y="794" on="1"/>
        <pt x="394" y="651" on="0"/>
        <pt x="439" y="423" on="0"/>
        <pt x="536" y="263" on="0"/>
        <pt x="689" y="178" on="0"/>
        <pt x="797" y="178" on="1"/>
        <pt x="902" y="178" on="0"/>
        <pt x="1055" y="259" on="0"/>
        <pt x="1154" y="416" on="0"/>
        <pt x="1201" y="645" on="0"/>
        <pt x="1201" y="794" on="1"/>
        <pt x="1201" y="944" on="0"/>
        <pt x="1155" y="1176" on="0"/>
        <pt x="1057" y="1336" on="0"/>
        <pt x="906" y="1419" on="0"/>
        <pt x="801" y="1419" on="1"/>
        <pt x="693" y="1419" on="0"/>
        <pt x="539" y="1337" on="0"/>
        <pt x="440" y="1178" on="0"/>
        <pt x="394" y="945" on="0"/>
      </contour>
    </TTGlyph>
    <TTGlyph name="Oacute" xMin="104" yMin="-36" xMax="1492" yMax="2409">
      <component glyphName="O" x="0" y="0" flags="0x1204"/>
      <component glyphName="acute" x="165" y="1614" flags="0x1004"/>
    </TTGlyph>
    <TTGlyph name="Ocircumflex" xMin="104" yMin="-36" xMax="1492" yMax="2340">
      <component glyphName="O" x="0" y="0" flags="0x1204"/>
      <component glyphName="circumflex" x="105" y="1615" flags="0x1004"/>
    </TTGlyph>
    <TTGlyph name="Odieresis" xMin="104" yMin="-36" xMax="1492" yMax="2043">
      <component glyphName="O" x="0" y="0" flags="0x1204"/>
      <component glyphName="dieresis" x="216" y="1572" flags="0x1004"/>
    </TTGlyph>
    <TTGlyph name="Ograve" xMin="104" yMin="-36" xMax="1492" yMax="2396">
      <component glyphName="O" x="0" y="0" flags="0x1204"/>
      <component glyphName="grave" x="287" y="1614" flags="0x1004"/>
    </TTGlyph>
    <TTGlyph name="Ohungarumlaut" xMin="104" yMin="-36" xMax="1492" yMax="2410">
      <component glyphName="O" x="0" y="0" flags="0x1204"/>
      <component glyphName="hungarumlaut" x="102" y="1615" flags="0x1004"/>
    </TTGlyph>
    <TTGlyph name="Omacron" xMin="104" yMin="-36" xMax="1492" yMax="2016">
      <component glyphName="O" x="0" y="0" flags="0x1204"/>
      <component glyphName="macron" x="248" y="1615" flags="0x1004"/>
    </TTGlyph>
    <TTGlyph name="Oslash" xMin="104" yMin="-166" xMax="1491" yMax="1750">
      <contour>
        <pt x="443" y="45" on="1"/>
        <pt x="364" y="88" on="0"/>
        <pt x="238" y="221" on="0"/>
        <pt x="151" y="406" on="0"/>
        <pt x="104" y="647" on="0"/>
        <pt x="104" y="798" on="1"/>
        <pt x="104" y="954" on="0"/>
        <pt x="155" y="1200" on="0"/>
        <pt x="248" y="1385" on="0"/>
        <pt x="375" y="1514" on="0"/>
        <pt x="528" y="1595" on="0"/>
        <pt x="700" y="1631" on="0"/>
        <pt x="790" y="1631" on="1"/>
        <pt x="878" y="1631" on="0"/>
        <pt x="1031" y="1603" on="0"/>
        <pt x="1099" y="1574" on="1"/>
        <pt x="1175" y="1750" on="1"/>
        <pt x="1293" y="1706" on="1"/>
        <pt x="1210" y="1513" on="1"/>
        <pt x="1283" y="1462" on="0"/>
        <pt x="1389" y="1316" on="0"/>
        <pt x="1458" y="1134" on="0"/>
        <pt x="1491" y="919" on="0"/>
        <pt x="1491" y="798" on="1"/>
        <pt x="1491" y="614" on="0"/>
        <pt x="1413" y="308" on="0"/>
        <pt x="1245" y="87" on="0"/>
        <pt x="982" y="-35" on="0"/>
        <pt x="797" y="-35" on="1"/>
        <pt x="737" y="-35" on="0"/>
        <pt x="620" y="-22" on="0"/>
        <pt x="563" y="-3" on="1"/>
        <pt x="493" y="-166" on="1"/>
        <pt x="373" y="-120" on="1"/>
      </contour>
      <contour>
        <pt x="650" y="203" on="1"/>
        <pt x="664" y="199" on="0"/>
        <pt x="740" y="178" on="0"/>
        <pt x="798" y="178" on="1"/>
        <pt x="920" y="178" on="0"/>
        <pt x="1077" y="279" on="0"/>
        <pt x="1167" y="450" on="0"/>
        <pt x="1201" y="674" on="0"/>
        <pt x="1201" y="798" on="1"/>
        <pt x="1201" y="953" on="0"/>
        <pt x="1156" y="1179" on="0"/>
        <pt x="1105" y="1261" on="1"/>
      </contour>
      <contour>
        <pt x="448" y="569" on="1"/>
        <pt x="449" y="539" on="0"/>
        <pt x="454" y="461" on="0"/>
        <pt x="473" y="380" on="0"/>
        <pt x="509" y="303" on="0"/>
        <pt x="540" y="274" on="1"/>
        <pt x="1009" y="1362" on="1"/>
        <pt x="965" y="1392" on="0"/>
        <pt x="860" y="1418" on="0"/>
        <pt x="801" y="1418" on="1"/>
        <pt x="679" y="1418" on="0"/>
        <pt x="522" y="1322" on="0"/>
        <pt x="431" y="1154" on="0"/>
        <pt x="395" y="928" on="0"/>
        <pt x="395" y="798" on="1"/>
        <pt x="395" y="728" on="0"/>
        <pt x="417" y="608" on="0"/>
      </contour>
    </TTGlyph>
    <TTGlyph name="Otilde" xMin="104" yMin="-36" xMax="1492" yMax="2065">
      <component glyphName="O" x="0" y="0" flags="0x1204"/>
      <component glyphName="tilde" x="39" y="1614" flags="0x1004"/>
    </TTGlyph>
    <TTGlyph name="P" xMin="155" yMin="0" xMax="1322" yMax="1602">
      <contour>
        <pt x="1322" y="1098" on="1"/>
        <pt x="1322" y="962" on="0"/>
        <pt x="1226" y="773" on="0"/>
        <pt x="1036" y="656" on="0"/>
        <pt x="749" y="604" on="0"/>
        <pt x="559" y="604" on="1"/>
        <pt x="442" y="604" on="1"/>
        <pt x="442" y="0" on="1"/>
        <pt x="155" y="0" on="1"/>
        <pt x="155" y="1602" on="1"/>
        <pt x="590" y="1602" on="1"/>
        <pt x="689" y="1602" on="0"/>
        <pt x="874" y="1585" on="0"/>
        <pt x="1036" y="1541" on="0"/>
        <pt x="1170" y="1468" on="0"/>
        <pt x="1267" y="1356" on="0"/>
        <pt x="1321" y="1201" on="0"/>
      </contour>
      <contour>
        <pt x="549" y="789" on="1"/>
        <pt x="669" y="789" on="0"/>
        <pt x="851" y="820" on="0"/>
        <pt x="972" y="889" on="0"/>
        <pt x="1033" y="1001" on="0"/>
        <pt x="1033" y="1083" on="1"/>
        <pt x="1033" y="1188" on="0"/>
        <pt x="969" y="1316" on="0"/>
        <pt x="852" y="1387" on="0"/>
        <pt x="687" y="1410" on="0"/>
        <pt x="587" y="1410" on="1"/>
        <pt x="442" y="1410" on="1"/>
        <pt x="442" y="789" on="1"/>
      </contour>
    </TTGlyph>
    <TTGlyph name="Q" xMin="104" yMin="-429" xMax="1499" yMax="1631">
      <contour>
        <pt x="1499" y="792" on="1"/>
        <pt x="1499" y="627" on="0"/>
        <pt x="1436" y="351" on="0"/>
        <pt x="1305" y="142" on="0"/>
        <pt x="1104" y="5" on="0"/>
        <pt x="966" y="-20" on="1"/>
        <pt x="1304" y="-267" on="1"/>
        <pt x="1155" y="-429" on="1"/>
        <pt x="674" y="-26" on="1"/>
        <pt x="567" y="-12" on="0"/>
        <pt x="399" y="66" on="0"/>
        <pt x="273" y="182" on="0"/>
        <pt x="184" y="334" on="0"/>
        <pt x="129" y="508" on="0"/>
        <pt x="104" y="702" on="0"/>
        <pt x="104" y="803" on="1"/>
        <pt x="104" y="921" on="0"/>
        <pt x="139" y="1135" on="0"/>
        <pt x="212" y="1319" on="0"/>
        <pt x="323" y="1468" on="0"/>
        <pt x="477" y="1574" on="0"/>
        <pt x="673" y="1631" on="0"/>
        <pt x="794" y="1631" on="1"/>
        <pt x="968" y="1631" on="0"/>
        <pt x="1232" y="1522" on="0"/>
        <pt x="1409" y="1309" on="0"/>
        <pt x="1499" y="996" on="0"/>
      </contour>
      <contour>
        <pt x="802" y="1418" on="1"/>
        <pt x="685" y="1418" on="0"/>
        <pt x="529" y="1324" on="0"/>
        <pt x="435" y="1159" on="0"/>
        <pt x="395" y="931" on="0"/>
        <pt x="395" y="798" on="1"/>
        <pt x="395" y="666" on="0"/>
        <pt x="434" y="439" on="0"/>
        <pt x="528" y="273" on="0"/>
        <pt x="684" y="178" on="0"/>
        <pt x="802" y="178" on="1"/>
        <pt x="886" y="178" on="0"/>
        <pt x="1012" y="229" on="0"/>
        <pt x="1103" y="317" on="0"/>
        <pt x="1161" y="437" on="0"/>
        <pt x="1196" y="575" on="0"/>
        <pt x="1209" y="724" on="0"/>
        <pt x="1209" y="798" on="1"/>
        <pt x="1209" y="876" on="0"/>
        <pt x="1195" y="1029" on="0"/>
        <pt x="1159" y="1167" on="0"/>
        <pt x="1099" y="1284" on="0"/>
        <pt x="1009" y="1370" on="0"/>
        <pt x="884" y="1418" on="0"/>
      </contour>
    </TTGlyph>
    <TTGlyph name="R" xMin="155" yMin="0" xMax="1331" yMax="1602">
      <contour>
        <pt x="614" y="894" on="1"/>
        <pt x="726" y="894" on="0"/>
        <pt x="886" y="928" on="0"/>
        <pt x="988" y="997" on="0"/>
        <pt x="1036" y="1100" on="0"/>
        <pt x="1036" y="1169" on="1"/>
        <pt x="1036" y="1253" on="0"/>
        <pt x="967" y="1349" on="0"/>
        <pt x="846" y="1398" on="0"/>
        <pt x="684" y="1410" on="0"/>
        <pt x="591" y="1410" on="1"/>
        <pt x="442" y="1410" on="1"/>
        <pt x="442" y="894" on="1"/>
      </contour>
      <contour>
        <pt x="879" y="803" on="1"/>
        <pt x="988" y="791" on="0"/>
        <pt x="1157" y="735" on="0"/>
        <pt x="1272" y="637" on="0"/>
        <pt x="1331" y="493" on="0"/>
        <pt x="1331" y="395" on="1"/>
        <pt x="1331" y="0" on="1"/>
        <pt x="1046" y="0" on="1"/>
        <pt x="1046" y="415" on="1"/>
        <pt x="1046" y="516" on="0"/>
        <pt x="981" y="635" on="0"/>
        <pt x="862" y="696" on="0"/>
        <pt x="695" y="714" on="0"/>
        <pt x="593" y="714" on="1"/>
        <pt x="442" y="714" on="1"/>
        <pt x="442" y="0" on="1"/>
        <pt x="155" y="0" on="1"/>
        <pt x="155" y="1602" on="1"/>
        <pt x="604" y="1602" on="1"/>
        <pt x="798" y="1602" on="0"/>
        <pt x="1072" y="1554" on="0"/>
        <pt x="1246" y="1455" on="0"/>
        <pt x="1326" y="1303" on="0"/>
        <pt x="1326" y="1199" on="1"/>
        <pt x="1326" y="1095" on="0"/>
        <pt x="1259" y="948" on="0"/>
        <pt x="1140" y="853" on="0"/>
        <pt x="976" y="806" on="0"/>
      </contour>
    </TTGlyph>
    <TTGlyph name="Racute" xMin="155" yMin="0" xMax="1331" yMax="2410">
      <component glyphName="R" x="0" y="0" flags="0x1204"/>
      <component glyphName="acutecomb" x="190" y="1615" flags="0x1004"/>
    </TTGlyph>
    <TTGlyph name="Rcaron" xMin="155" yMin="0" xMax="1331" yMax="2351">
      <component glyphName="R" x="0" y="0" flags="0x1204"/>
      <component glyphName="caron" x="50" y="1615" flags="0x1004"/>
    </TTGlyph>
    <TTGlyph name="Rcommaaccent" xMin="155" yMin="-755" xMax="1331" yMax="1602">
      <component glyphName="R" x="0" y="0" flags="0x1204"/>
      <component glyphName="commaaccent" x="471" y="1" flags="0x1004"/>
    </TTGlyph>
    <TTGlyph name="S" xMin="83" yMin="-35" xMax="1234" yMax="1631">
      <contour>
        <pt x="1234" y="439" on="1"/>
        <pt x="1234" y="338" on="0"/>
        <pt x="1168" y="165" on="0"/>
        <pt x="1026" y="37" on="0"/>
        <pt x="804" y="-35" on="0"/>
        <pt x="649" y="-35" on="1"/>
        <pt x="543" y="-35" on="0"/>
        <pt x="356" y="6" on="0"/>
        <pt x="284" y="31" on="1"/>
        <pt x="200" y="60" on="0"/>
        <pt x="130" y="98" on="1"/>
        <pt x="179" y="306" on="1"/>
        <pt x="179" y="304" on="0"/>
        <pt x="221" y="284" on="0"/>
        <pt x="294" y="257" on="0"/>
        <pt x="390" y="225" on="0"/>
        <pt x="499" y="199" on="0"/>
        <pt x="614" y="181" on="0"/>
        <pt x="668" y="181" on="1"/>
        <pt x="734" y="181" on="0"/>
        <pt x="841" y="205" on="0"/>
        <pt x="916" y="258" on="0"/>
        <pt x="957" y="342" on="0"/>
        <pt x="957" y="403" on="1"/>
        <pt x="957" y="493" on="0"/>
        <pt x="859" y="611" on="0"/>
        <pt x="759" y="649" on="1"/>
        <pt x="416" y="783" on="1"/>
        <pt x="345" y="811" on="0"/>
        <pt x="223" y="887" on="0"/>
        <pt x="134" y="988" on="0"/>
        <pt x="83" y="1116" on="0"/>
        <pt x="83" y="1196" on="1"/>
        <pt x="83" y="1311" on="0"/>
        <pt x="174" y="1475" on="0"/>
        <pt x="327" y="1581" on="0"/>
        <pt x="530" y="1631" on="0"/>
        <pt x="641" y="1631" on="1"/>
        <pt x="738" y="1631" on="0"/>
        <pt x="907" y="1599" on="0"/>
        <pt x="1042" y="1556" on="0"/>
        <pt x="1136" y="1512" on="0"/>
        <pt x="1157" y="1500" on="1"/>
        <pt x="1099" y="1302" on="1"/>
        <pt x="1081" y="1313" on="0"/>
        <pt x="996" y="1352" on="0"/>
        <pt x="881" y="1390" on="0"/>
        <pt x="745" y="1418" on="0"/>
        <pt x="675" y="1418" on="1"/>
        <pt x="604" y="1418" on="0"/>
        <pt x="487" y="1399" on="0"/>
        <pt x="403" y="1353" on="0"/>
        <pt x="356" y="1275" on="0"/>
        <pt x="356" y="1217" on="1"/>
        <pt x="356" y="1190" on="0"/>
        <pt x="371" y="1140" on="0"/>
        <pt x="407" y="1095" on="0"/>
        <pt x="468" y="1054" on="0"/>
        <pt x="515" y="1036" on="1"/>
        <pt x="855" y="909" on="1"/>
        <pt x="937" y="878" on="0"/>
        <pt x="1077" y="792" on="0"/>
        <pt x="1177" y="677" on="0"/>
        <pt x="1234" y="530" on="0"/>
      </contour>
    </TTGlyph>
    <TTGlyph name="Sacute" xMin="83" yMin="-35" xMax="1234" yMax="2410">
      <component glyphName="S" x="0" y="0" flags="0x1204"/>
      <component glyphName="acutecomb" x="105" y="1615" flags="0x1004"/>
    </TTGlyph>
    <TTGlyph name="Scaron" xMin="83" yMin="-35" xMax="1234" yMax="2354">
      <component glyphName="S" x="0" y="0" flags="0x1204"/>
      <component glyphName="caron" x="-26" y="1618" flags="0x1004"/>
    </TTGlyph>
    <TTGlyph name="Scedilla" xMin="83" yMin="-632" xMax="1234" yMax="1631">
      <component glyphName="S" x="0" y="0" flags="0x1204"/>
      <component glyphName="cedilla" x="312" y="0" flags="0x1004"/>
    </TTGlyph>
    <TTGlyph name="Scircumflex" xMin="83" yMin="-35" xMax="1234" yMax="2340">
      <component glyphName="S" x="0" y="0" flags="0x1204"/>
      <component glyphName="circumflex" x="-34" y="1615" flags="0x1004"/>
    </TTGlyph>
    <TTGlyph name="Sgrave" xMin="83" yMin="-35" xMax="1234" yMax="2392">
      <component glyphName="S" x="0" y="0" flags="0x1004"/>
      <component glyphName="grave" x="168" y="1610" flags="0x1004"/>
    </TTGlyph>
    <TTGlyph name="T" xMin="27" yMin="0" xMax="1188" yMax="1602">
      <contour>
        <pt x="753" y="1410" on="1"/>
        <pt x="753" y="0" on="1"/>
        <pt x="466" y="0" on="1"/>
        <pt x="466" y="1410" on="1"/>
        <pt x="27" y="1410" on="1"/>
        <pt x="27" y="1602" on="1"/>
        <pt x="1188" y="1602" on="1"/>
        <pt x="1188" y="1410" on="1"/>
      </contour>
    </TTGlyph>
    <TTGlyph name="Tbar" xMin="27" yMin="0" xMax="1188" yMax="1602">
      <component glyphName="T" x="0" y="0" flags="0x1204"/>
      <component glyphName="macron" x="57" y="532" flags="0x1004"/>
    </TTGlyph>
    <TTGlyph name="Tcaron" xMin="27" yMin="0" xMax="1188" yMax="2351">
      <component glyphName="T" x="0" y="0" flags="0x1204"/>
      <component glyphName="caron" x="-85" y="1615" flags="0x1004"/>
    </TTGlyph>
    <TTGlyph name="Tcommaaccent" xMin="27" yMin="-755" xMax="1188" yMax="1602">
      <component glyphName="T" x="0" y="0" flags="0x1204"/>
      <component glyphName="commaaccent" x="335" y="1" flags="0x1004"/>
    </TTGlyph>
    <TTGlyph name="Thorn" xMin="155" yMin="-113" xMax="1267" yMax="1602">
      <contour>
        <pt x="999" y="876" on="1"/>
        <pt x="999" y="964" on="0"/>
        <pt x="970" y="1095" on="0"/>
        <pt x="902" y="1182" on="0"/>
        <pt x="790" y="1224" on="0"/>
        <pt x="707" y="1224" on="1"/>
        <pt x="629" y="1224" on="0"/>
        <pt x="493" y="1199" on="0"/>
        <pt x="433" y="1188" on="1"/>
        <pt x="433" y="579" on="1"/>
        <pt x="515" y="562" on="0"/>
        <pt x="654" y="543" on="0"/>
        <pt x="714" y="543" on="1"/>
        <pt x="740" y="543" on="0"/>
        <pt x="790" y="547" on="0"/>
        <pt x="814" y="551" on="1"/>
        <pt x="877" y="561" on="0"/>
        <pt x="951" y="627" on="0"/>
        <pt x="988" y="719" on="0"/>
        <pt x="999" y="826" on="0"/>
      </contour>
      <contour>
        <pt x="654" y="337" on="1"/>
        <pt x="519" y="337" on="0"/>
        <pt x="433" y="402" on="1"/>
        <pt x="433" y="-113" on="1"/>
        <pt x="155" y="-113" on="1"/>
        <pt x="155" y="1602" on="1"/>
        <pt x="423" y="1602" on="1"/>
        <pt x="423" y="1340" on="1"/>
        <pt x="459" y="1357" on="0"/>
        <pt x="542" y="1385" on="0"/>
        <pt x="629" y="1404" on="0"/>
        <pt x="718" y="1415" on="0"/>
        <pt x="760" y="1415" on="1"/>
        <pt x="771" y="1415" on="0"/>
        <pt x="792" y="1415" on="0"/>
        <pt x="803" y="1414" on="1"/>
        <pt x="933" y="1404" on="0"/>
        <pt x="1111" y="1319" on="0"/>
        <pt x="1220" y="1181" on="0"/>
        <pt x="1267" y="995" on="0"/>
        <pt x="1267" y="883" on="1"/>
        <pt x="1267" y="755" on="0"/>
        <pt x="1195" y="552" on="0"/>
        <pt x="1045" y="411" on="0"/>
        <pt x="813" y="337" on="0"/>
      </contour>
    </TTGlyph>
    <TTGlyph name="U" xMin="139" yMin="-35" xMax="1436" yMax="1602">
      <contour>
        <pt x="788" y="178" on="1"/>
        <pt x="905" y="178" on="0"/>
        <pt x="1047" y="247" on="0"/>
        <pt x="1124" y="385" on="0"/>
        <pt x="1149" y="590" on="0"/>
        <pt x="1149" y="726" on="1"/>
        <pt x="1149" y="1602" on="1"/>
        <pt x="1436" y="1602" on="1"/>
        <pt x="1436" y="730" on="1"/>
        <pt x="1436" y="544" on="0"/>
        <pt x="1365" y="259" on="0"/>
        <pt x="1210" y="65" on="0"/>
        <pt x="965" y="-35" on="0"/>
        <pt x="792" y="-35" on="1"/>
        <pt x="613" y="-35" on="0"/>
        <pt x="365" y="65" on="0"/>
        <pt x="209" y="259" on="0"/>
        <pt x="139" y="544" on="0"/>
        <pt x="139" y="730" on="1"/>
        <pt x="139" y="1602" on="1"/>
        <pt x="426" y="1602" on="1"/>
        <pt x="426" y="726" on="1"/>
        <pt x="426" y="590" on="0"/>
        <pt x="456" y="385" on="0"/>
        <pt x="536" y="247" on="0"/>
        <pt x="677" y="178" on="0"/>
      </contour>
    </TTGlyph>
    <TTGlyph name="Uacute" xMin="139" yMin="-35" xMax="1436" yMax="2397">
      <component glyphName="U" x="0" y="0" flags="0x1204"/>
      <component glyphName="acute" x="157" y="1602" flags="0x1004"/>
    </TTGlyph>
    <TTGlyph name="Ubreve" xMin="139" yMin="-35" xMax="1436" yMax="2045">
      <component glyphName="U" x="0" y="0" flags="0x1204"/>
      <component glyphName="uni0306" x="267" y="1615" flags="0x1004"/>
    </TTGlyph>
    <TTGlyph name="Ucircumflex" xMin="139" yMin="-35" xMax="1436" yMax="2340">
      <component glyphName="U" x="0" y="0" flags="0x1204"/>
      <component glyphName="circumflex" x="94" y="1615" flags="0x1004"/>
    </TTGlyph>
    <TTGlyph name="Udieresis" xMin="139" yMin="-35" xMax="1436" yMax="2031">
      <component glyphName="U" x="0" y="0" flags="0x1204"/>
      <component glyphName="dieresis" x="209" y="1560" flags="0x1004"/>
    </TTGlyph>
    <TTGlyph name="Ugrave" xMin="139" yMin="-35" xMax="1436" yMax="2384">
      <component glyphName="U" x="0" y="0" flags="0x1204"/>
      <component glyphName="grave" x="279" y="1602" flags="0x1004"/>
    </TTGlyph>
    <TTGlyph name="Uhungarumlaut" xMin="139" yMin="-35" xMax="1436" yMax="2410">
      <component glyphName="U" x="0" y="0" flags="0x1204"/>
      <component glyphName="hungarumlaut" x="91" y="1615" flags="0x1004"/>
    </TTGlyph>
    <TTGlyph name="Umacron" xMin="139" yMin="-35" xMax="1436" yMax="2016">
      <component glyphName="U" x="0" y="0" flags="0x1204"/>
      <component glyphName="macron" x="237" y="1615" flags="0x1004"/>
    </TTGlyph>
    <TTGlyph name="Uogonek" xMin="139" yMin="-619" xMax="1436" yMax="1602">
      <component glyphName="U" x="0" y="0" flags="0x1204"/>
      <component glyphName="ogonek" x="441" y="0" flags="0x1004"/>
    </TTGlyph>
    <TTGlyph name="Uring" xMin="139" yMin="-35" xMax="1436" yMax="2325">
      <component glyphName="U" x="0" y="0" flags="0x1204"/>
      <component glyphName="ring" x="122" y="1615" flags="0x1004"/>
    </TTGlyph>
    <TTGlyph name="Utilde" xMin="139" yMin="-35" xMax="1436" yMax="2066">
      <component glyphName="U" x="0" y="0" flags="0x1204"/>
      <component glyphName="tilde" x="37" y="1615" flags="0x1004"/>
    </TTGlyph>
    <TTGlyph name="V" xMin="46" yMin="0" xMax="1357" yMax="1602">
      <contour>
        <pt x="704" y="349" on="1"/>
        <pt x="1087" y="1602" on="1"/>
        <pt x="1357" y="1602" on="1"/>
        <pt x="857" y="0" on="1"/>
        <pt x="547" y="0" on="1"/>
        <pt x="46" y="1602" on="1"/>
        <pt x="315" y="1602" on="1"/>
      </contour>
    </TTGlyph>
    <TTGlyph name="W" xMin="43" yMin="-3" xMax="1971" yMax="1602">
      <contour>
        <pt x="1176" y="1602" on="1"/>
        <pt x="1430" y="298" on="1"/>
        <pt x="1694" y="1602" on="1"/>
        <pt x="1971" y="1602" on="1"/>
        <pt x="1623" y="-3" on="1"/>
        <pt x="1256" y="-3" on="1"/>
        <pt x="1008" y="1358" on="1"/>
        <pt x="740" y="0" on="1"/>
        <pt x="390" y="0" on="1"/>
        <pt x="43" y="1602" on="1"/>
        <pt x="320" y="1602" on="1"/>
        <pt x="583" y="298" on="1"/>
        <pt x="837" y="1602" on="1"/>
      </contour>
    </TTGlyph>
    <TTGlyph name="Wcircumflex" xMin="43" yMin="-3" xMax="1971" yMax="2340">
      <component glyphName="W" x="0" y="0" flags="0x1204"/>
      <component glyphName="circumflex" x="314" y="1615" flags="0x1004"/>
    </TTGlyph>
    <TTGlyph name="X" xMin="25" yMin="0" xMax="1340" yMax="1602">
      <contour>
        <pt x="1044" y="1602" on="1"/>
        <pt x="1339" y="1602" on="1"/>
        <pt x="843" y="800" on="1"/>
        <pt x="1340" y="0" on="1"/>
        <pt x="1030" y="0" on="1"/>
        <pt x="683" y="567" on="1"/>
        <pt x="335" y="0" on="1"/>
        <pt x="25" y="0" on="1"/>
        <pt x="522" y="800" on="1"/>
        <pt x="26" y="1602" on="1"/>
        <pt x="321" y="1602" on="1"/>
        <pt x="683" y="1011" on="1"/>
      </contour>
    </TTGlyph>
    <TTGlyph name="Y" xMin="-8" yMin="0" xMax="1302" yMax="1602">
      <contour>
        <pt x="1014" y="1602" on="1"/>
        <pt x="1302" y="1602" on="1"/>
        <pt x="783" y="509" on="1"/>
        <pt x="783" y="0" on="1"/>
        <pt x="508" y="0" on="1"/>
        <pt x="508" y="509" on="1"/>
        <pt x="-8" y="1602" on="1"/>
        <pt x="280" y="1602" on="1"/>
        <pt x="648" y="804" on="1"/>
      </contour>
    </TTGlyph>
    <TTGlyph name="Yacute" xMin="-8" yMin="0" xMax="1302" yMax="2398">
      <component glyphName="Y" x="0" y="0" flags="0x1204"/>
      <component glyphName="acute" x="14" y="1603" flags="0x1004"/>
    </TTGlyph>
    <TTGlyph name="Ycircumflex" xMin="-8" yMin="0" xMax="1302" yMax="2340">
      <component glyphName="Y" x="0" y="0" flags="0x1204"/>
      <component glyphName="circumflex" x="-45" y="1615" flags="0x1004"/>
    </TTGlyph>
    <TTGlyph name="Ydieresis" xMin="-8" yMin="0" xMax="1302" yMax="2032">
      <component glyphName="Y" x="0" y="0" flags="0x1204"/>
      <component glyphName="dieresis" x="66" y="1561" flags="0x1004"/>
    </TTGlyph>
    <TTGlyph name="Ygrave" xMin="-8" yMin="0" xMax="1302" yMax="2385">
      <component glyphName="Y" x="0" y="0" flags="0x1204"/>
      <component glyphName="grave" x="136" y="1603" flags="0x1004"/>
    </TTGlyph>
    <TTGlyph name="Z" xMin="83" yMin="0" xMax="1171" yMax="1602">
      <contour>
        <pt x="1169" y="1407" on="1"/>
        <pt x="394" y="192" on="1"/>
        <pt x="1171" y="192" on="1"/>
        <pt x="1171" y="0" on="1"/>
        <pt x="83" y="0" on="1"/>
        <pt x="83" y="208" on="1"/>
        <pt x="859" y="1410" on="1"/>
        <pt x="83" y="1410" on="1"/>
        <pt x="83" y="1602" on="1"/>
        <pt x="1169" y="1602" on="1"/>
      </contour>
    </TTGlyph>
    <TTGlyph name="Zacute" xMin="83" yMin="0" xMax="1171" yMax="2410">
      <component glyphName="Z" x="0" y="0" flags="0x1204"/>
      <component glyphName="acutecomb" x="74" y="1615" flags="0x1004"/>
    </TTGlyph>
    <TTGlyph name="Zcaron" xMin="83" yMin="0" xMax="1171" yMax="2339">
      <component glyphName="Z" x="0" y="0" flags="0x1204"/>
      <component glyphName="caron" x="-60" y="1603" flags="0x1004"/>
    </TTGlyph>
    <TTGlyph name="Zdotaccent" xMin="83" yMin="0" xMax="1171" yMax="2117">
      <component glyphName="Z" x="0" y="0" flags="0x1204"/>
      <component glyphName="dotaccent" x="259" y="1615" flags="0x1004"/>
    </TTGlyph>
    <TTGlyph name="Zgrave" xMin="83" yMin="0" xMax="1171" yMax="2361">
      <component glyphName="Z" x="0" y="0" flags="0x1004"/>
      <component glyphName="grave" x="231" y="1579" flags="0x1004"/>
    </TTGlyph>
    <TTGlyph name="a" xMin="88" yMin="-23" xMax="1102" yMax="1211">
      <contour>
        <pt x="615" y="1022" on="1"/>
        <pt x="516" y="1022" on="0"/>
        <pt x="322" y="966" on="0"/>
        <pt x="239" y="915" on="1"/>
        <pt x="162" y="1089" on="1"/>
        <pt x="214" y="1119" on="0"/>
        <pt x="317" y="1165" on="0"/>
        <pt x="428" y="1195" on="0"/>
        <pt x="550" y="1211" on="0"/>
        <pt x="621" y="1211" on="1"/>
        <pt x="765" y="1211" on="0"/>
        <pt x="951" y="1144" on="0"/>
        <pt x="1060" y="1007" on="0"/>
        <pt x="1102" y="799" on="0"/>
        <pt x="1102" y="659" on="1"/>
        <pt x="1102" y="0" on="1"/>
        <pt x="893" y="0" on="1"/>
        <pt x="854" y="166" on="1"/>
        <pt x="788" y="66" on="0"/>
        <pt x="612" y="-23" on="0"/>
        <pt x="493" y="-23" on="1"/>
        <pt x="399" y="-23" on="0"/>
        <pt x="249" y="25" on="0"/>
        <pt x="144" y="121" on="0"/>
        <pt x="88" y="263" on="0"/>
        <pt x="88" y="357" on="1"/>
        <pt x="88" y="452" on="0"/>
        <pt x="160" y="593" on="0"/>
        <pt x="288" y="686" on="0"/>
        <pt x="465" y="732" on="0"/>
        <pt x="571" y="732" on="1"/>
        <pt x="622" y="732" on="0"/>
        <pt x="707" y="724" on="0"/>
        <pt x="773" y="713" on="0"/>
        <pt x="818" y="703" on="0"/>
        <pt x="828" y="702" on="1"/>
        <pt x="828" y="776" on="0"/>
        <pt x="820" y="895" on="0"/>
        <pt x="780" y="978" on="0"/>
        <pt x="694" y="1022" on="0"/>
      </contour>
      <contour>
        <pt x="564" y="167" on="1"/>
        <pt x="638" y="167" on="0"/>
        <pt x="767" y="231" on="0"/>
        <pt x="828" y="295" on="1"/>
        <pt x="828" y="562" on="1"/>
        <pt x="820" y="562" on="0"/>
        <pt x="782" y="567" on="0"/>
        <pt x="733" y="572" on="0"/>
        <pt x="682" y="576" on="0"/>
        <pt x="663" y="576" on="1"/>
        <pt x="591" y="576" on="0"/>
        <pt x="480" y="558" on="0"/>
        <pt x="403" y="513" on="0"/>
        <pt x="364" y="436" on="0"/>
        <pt x="364" y="377" on="1"/>
        <pt x="364" y="264" on="0"/>
        <pt x="471" y="167" on="0"/>
      </contour>
    </TTGlyph>
    <TTGlyph name="aacute" xMin="88" yMin="-23" xMax="1102" yMax="1975">
      <component glyphName="a" x="0" y="0" flags="0x1204"/>
      <component glyphName="acute" x="-9" y="1180" flags="0x1004"/>
    </TTGlyph>
    <TTGlyph name="abreve" xMin="88" yMin="-23" xMax="1102" yMax="1610">
      <component glyphName="a" x="0" y="0" flags="0x1204"/>
      <component glyphName="uni0306" x="75" y="1180" flags="0x1004"/>
    </TTGlyph>
    <TTGlyph name="acircumflex" xMin="88" yMin="-23" xMax="1102" yMax="1905">
      <component glyphName="a" x="0" y="0" flags="0x1204"/>
      <component glyphName="circumflex" x="-97" y="1180" flags="0x1004"/>
    </TTGlyph>
    <TTGlyph name="acute" xMin="456" yMin="122" xMax="917" yMax="795">
      <contour>
        <pt x="456" y="173" on="1"/>
        <pt x="640" y="795" on="1"/>
        <pt x="917" y="674" on="1"/>
        <pt x="565" y="122" on="1"/>
      </contour>
    </TTGlyph>
    <TTGlyph name="acutecomb" xMin="456" yMin="122" xMax="917" yMax="795">
      <contour>
        <pt x="456" y="173" on="1"/>
        <pt x="640" y="795" on="1"/>
        <pt x="917" y="674" on="1"/>
        <pt x="565" y="122" on="1"/>
      </contour>
    </TTGlyph>
    <TTGlyph name="adieresis" xMin="88" yMin="-23" xMax="1102" yMax="1610">
      <component glyphName="a" x="0" y="0" flags="0x1204"/>
      <component glyphName="dieresis" x="40" y="1139" flags="0x1004"/>
    </TTGlyph>
    <TTGlyph name="ae" xMin="95" yMin="-21" xMax="1817" yMax="1206">
      <contour>
        <pt x="1586" y="689" on="1"/>
        <pt x="1586" y="782" on="0"/>
        <pt x="1549" y="908" on="0"/>
        <pt x="1485" y="985" on="0"/>
        <pt x="1400" y="1017" on="0"/>
        <pt x="1351" y="1017" on="1"/>
        <pt x="1302" y="1017" on="0"/>
        <pt x="1208" y="982" on="0"/>
        <pt x="1134" y="904" on="0"/>
        <pt x="1087" y="779" on="0"/>
        <pt x="1086" y="689" on="1"/>
      </contour>
      <contour>
        <pt x="1760" y="90" on="1"/>
        <pt x="1741" y="76" on="0"/>
        <pt x="1657" y="38" on="0"/>
        <pt x="1549" y="4" on="0"/>
        <pt x="1428" y="-20" on="0"/>
        <pt x="1372" y="-20" on="1"/>
        <pt x="1221" y="-20" on="0"/>
        <pt x="1013" y="84" on="0"/>
        <pt x="944" y="200" on="1"/>
        <pt x="909" y="146" on="0"/>
        <pt x="811" y="63" on="0"/>
        <pt x="695" y="8" on="0"/>
        <pt x="564" y="-21" on="0"/>
        <pt x="496" y="-21" on="1"/>
        <pt x="301" y="-21" on="0"/>
        <pt x="95" y="172" on="0"/>
        <pt x="95" y="361" on="1"/>
        <pt x="95" y="459" on="0"/>
        <pt x="166" y="599" on="0"/>
        <pt x="291" y="689" on="0"/>
        <pt x="463" y="731" on="0"/>
        <pt x="565" y="731" on="1"/>
        <pt x="600" y="731" on="0"/>
        <pt x="672" y="727" on="0"/>
        <pt x="739" y="719" on="0"/>
        <pt x="799" y="709" on="0"/>
        <pt x="822" y="702" on="1"/>
        <pt x="822" y="780" on="0"/>
        <pt x="812" y="894" on="0"/>
        <pt x="770" y="969" on="0"/>
        <pt x="687" y="1005" on="0"/>
        <pt x="614" y="1005" on="1"/>
        <pt x="552" y="1005" on="0"/>
        <pt x="423" y="980" on="0"/>
        <pt x="313" y="947" on="0"/>
        <pt x="236" y="914" on="0"/>
        <pt x="226" y="907" on="1"/>
        <pt x="167" y="1086" on="1"/>
        <pt x="182" y="1099" on="0"/>
        <pt x="277" y="1140" on="0"/>
        <pt x="404" y="1178" on="0"/>
        <pt x="549" y="1206" on="0"/>
        <pt x="615" y="1206" on="1"/>
        <pt x="761" y="1206" on="0"/>
        <pt x="940" y="1118" on="0"/>
        <pt x="982" y="1019" on="1"/>
        <pt x="1036" y="1114" on="0"/>
        <pt x="1234" y="1206" on="0"/>
        <pt x="1354" y="1206" on="1"/>
        <pt x="1465" y="1206" on="0"/>
        <pt x="1637" y="1130" on="0"/>
        <pt x="1756" y="991" on="0"/>
        <pt x="1817" y="798" on="0"/>
        <pt x="1817" y="681" on="1"/>
        <pt x="1817" y="648" on="0"/>
        <pt x="1815" y="578" on="0"/>
        <pt x="1813" y="542" on="1"/>
        <pt x="1086" y="542" on="1"/>
        <pt x="1087" y="460" on="0"/>
        <pt x="1119" y="326" on="0"/>
        <pt x="1190" y="230" on="0"/>
        <pt x="1304" y="178" on="0"/>
        <pt x="1386" y="178" on="1"/>
        <pt x="1437" y="178" on="0"/>
        <pt x="1533" y="198" on="0"/>
        <pt x="1615" y="228" on="0"/>
        <pt x="1678" y="262" on="0"/>
        <pt x="1695" y="277" on="1"/>
      </contour>
      <contour>
        <pt x="359" y="376" on="1"/>
        <pt x="359" y="270" on="0"/>
        <pt x="461" y="171" on="0"/>
        <pt x="564" y="171" on="1"/>
        <pt x="630" y="171" on="0"/>
        <pt x="756" y="235" on="0"/>
        <pt x="822" y="295" on="1"/>
        <pt x="822" y="562" on="1"/>
        <pt x="773" y="569" on="0"/>
        <pt x="688" y="576" on="0"/>
        <pt x="650" y="576" on="1"/>
        <pt x="566" y="576" on="0"/>
        <pt x="455" y="550" on="0"/>
        <pt x="387" y="500" on="0"/>
        <pt x="359" y="425" on="0"/>
      </contour>
    </TTGlyph>
    <TTGlyph name="afii10017" xMin="46" yMin="0" xMax="1457" yMax="1602">
      <component glyphName="A" x="0" y="0" flags="0x1204"/>
    </TTGlyph>
    <TTGlyph name="afii10018" xMin="155" yMin="0" xMax="1411" yMax="1602">
      <contour>
        <pt x="531" y="192" on="1"/>
        <pt x="685" y="192" on="1"/>
        <pt x="813" y="192" on="0"/>
        <pt x="984" y="219" on="0"/>
        <pt x="1087" y="291" on="0"/>
        <pt x="1130" y="418" on="0"/>
        <pt x="1130" y="518" on="1"/>
        <pt x="1130" y="614" on="0"/>
        <pt x="1047" y="729" on="0"/>
        <pt x="911" y="792" on="0"/>
        <pt x="737" y="812" on="0"/>
        <pt x="647" y="812" on="1"/>
        <pt x="531" y="812" on="1"/>
      </contour>
      <contour>
        <pt x="1411" y="504" on="1"/>
        <pt x="1411" y="363" on="0"/>
        <pt x="1319" y="170" on="0"/>
        <pt x="1136" y="51" on="0"/>
        <pt x="862" y="0" on="0"/>
        <pt x="679" y="0" on="1"/>
        <pt x="600" y="0" on="1"/>
        <pt x="244" y="0" on="1"/>
        <pt x="244" y="1383" on="1"/>
        <pt x="155" y="1383" on="1"/>
        <pt x="155" y="1602" on="1"/>
        <pt x="1254" y="1602" on="1"/>
        <pt x="1254" y="1410" on="1"/>
        <pt x="531" y="1410" on="1"/>
        <pt x="531" y="998" on="1"/>
        <pt x="648" y="998" on="1"/>
        <pt x="840" y="998" on="0"/>
        <pt x="1125" y="946" on="0"/>
        <pt x="1314" y="829" on="0"/>
        <pt x="1409" y="640" on="0"/>
      </contour>
    </TTGlyph>
    <TTGlyph name="afii10019" xMin="155" yMin="0" xMax="1344" yMax="1602">
      <component glyphName="B" x="0" y="0" flags="0x1004"/>
    </TTGlyph>
    <TTGlyph name="afii10020" xMin="155" yMin="0" xMax="1145" yMax="1602">
      <contour>
        <pt x="442" y="1410" on="1"/>
        <pt x="442" y="0" on="1"/>
        <pt x="155" y="0" on="1"/>
        <pt x="155" y="1602" on="1"/>
        <pt x="1145" y="1602" on="1"/>
        <pt x="1145" y="1410" on="1"/>
      </contour>
    </TTGlyph>
    <TTGlyph name="afii10021" xMin="42" yMin="-434" xMax="1639" yMax="1593">
      <contour>
        <pt x="1246" y="166" on="1"/>
        <pt x="1246" y="1410" on="1"/>
        <pt x="620" y="1410" on="1"/>
        <pt x="620" y="1021" on="1"/>
        <pt x="620" y="914" on="0"/>
        <pt x="613" y="685" on="0"/>
        <pt x="582" y="462" on="0"/>
        <pt x="518" y="253" on="0"/>
        <pt x="461" y="166" on="1"/>
      </contour>
      <contour>
        <pt x="125" y="166" on="1"/>
        <pt x="164" y="220" on="0"/>
        <pt x="239" y="371" on="0"/>
        <pt x="298" y="597" on="0"/>
        <pt x="333" y="914" on="0"/>
        <pt x="333" y="1136" on="1"/>
        <pt x="333" y="1593" on="1"/>
        <pt x="1534" y="1593" on="1"/>
        <pt x="1534" y="116" on="1"/>
        <pt x="1639" y="116" on="1"/>
        <pt x="1639" y="-434" on="1"/>
        <pt x="1381" y="-434" on="1"/>
        <pt x="1381" y="-11" on="1"/>
        <pt x="341" y="-11" on="1"/>
        <pt x="341" y="-433" on="1"/>
        <pt x="42" y="-433" on="1"/>
        <pt x="42" y="166" on="1"/>
      </contour>
    </TTGlyph>
    <TTGlyph name="afii10022" xMin="155" yMin="0" xMax="1203" yMax="1602">
      <component glyphName="E" x="0" y="0" flags="0x1004"/>
    </TTGlyph>
    <TTGlyph name="afii10023" xMin="170" yMin="0" xMax="1218" yMax="2070">
      <contour>
        <pt x="220" y="1913" on="1"/>
        <pt x="220" y="1945" on="0"/>
        <pt x="244" y="2002" on="0"/>
        <pt x="285" y="2045" on="0"/>
        <pt x="342" y="2070" on="0"/>
        <pt x="375" y="2070" on="1"/>
        <pt x="408" y="2070" on="0"/>
        <pt x="465" y="2046" on="0"/>
        <pt x="507" y="2003" on="0"/>
        <pt x="531" y="1946" on="0"/>
        <pt x="531" y="1913" on="1"/>
        <pt x="531" y="1880" on="0"/>
        <pt x="507" y="1822" on="0"/>
        <pt x="465" y="1779" on="0"/>
        <pt x="408" y="1755" on="0"/>
        <pt x="375" y="1755" on="1"/>
        <pt x="341" y="1755" on="0"/>
        <pt x="284" y="1780" on="0"/>
        <pt x="243" y="1823" on="0"/>
        <pt x="220" y="1881" on="0"/>
      </contour>
      <contour>
        <pt x="810" y="1913" on="1"/>
        <pt x="810" y="1945" on="0"/>
        <pt x="834" y="2002" on="0"/>
        <pt x="875" y="2045" on="0"/>
        <pt x="932" y="2070" on="0"/>
        <pt x="965" y="2070" on="1"/>
        <pt x="998" y="2070" on="0"/>
        <pt x="1055" y="2046" on="0"/>
        <pt x="1097" y="2003" on="0"/>
        <pt x="1121" y="1946" on="0"/>
        <pt x="1121" y="1913" on="1"/>
        <pt x="1121" y="1880" on="0"/>
        <pt x="1097" y="1822" on="0"/>
        <pt x="1055" y="1779" on="0"/>
        <pt x="998" y="1755" on="0"/>
        <pt x="965" y="1755" on="1"/>
        <pt x="931" y="1755" on="0"/>
        <pt x="874" y="1780" on="0"/>
        <pt x="833" y="1823" on="0"/>
        <pt x="810" y="1881" on="0"/>
      </contour>
      <contour>
        <pt x="170" y="0" on="1"/>
        <pt x="170" y="1602" on="1"/>
        <pt x="1206" y="1602" on="1"/>
        <pt x="1206" y="1410" on="1"/>
        <pt x="457" y="1410" on="1"/>
        <pt x="457" y="924" on="1"/>
        <pt x="1111" y="924" on="1"/>
        <pt x="1111" y="750" on="1"/>
        <pt x="457" y="750" on="1"/>
        <pt x="457" y="189" on="1"/>
        <pt x="1218" y="189" on="1"/>
        <pt x="1218" y="0" on="1"/>
      </contour>
    </TTGlyph>
    <TTGlyph name="afii10024" xMin="25" yMin="0" xMax="2185" yMax="1602">
      <contour>
        <pt x="962" y="721" on="1"/>
        <pt x="830" y="721" on="1"/>
        <pt x="325" y="0" on="1"/>
        <pt x="25" y="0" on="1"/>
        <pt x="442" y="586" on="1"/>
        <pt x="478" y="636" on="0"/>
        <pt x="538" y="712" on="0"/>
        <pt x="596" y="766" on="0"/>
        <pt x="659" y="800" on="0"/>
        <pt x="697" y="809" on="1"/>
        <pt x="657" y="820" on="0"/>
        <pt x="593" y="859" on="0"/>
        <pt x="533" y="920" on="0"/>
        <pt x="473" y="1003" on="0"/>
        <pt x="437" y="1059" on="1"/>
        <pt x="87" y="1602" on="1"/>
        <pt x="377" y="1602" on="1"/>
        <pt x="822" y="891" on="1"/>
        <pt x="962" y="891" on="1"/>
        <pt x="962" y="1602" on="1"/>
        <pt x="1249" y="1602" on="1"/>
        <pt x="1249" y="891" on="1"/>
        <pt x="1387" y="891" on="1"/>
        <pt x="1833" y="1602" on="1"/>
        <pt x="2133" y="1602" on="1"/>
        <pt x="1774" y="1060" on="1"/>
        <pt x="1738" y="1005" on="0"/>
        <pt x="1677" y="921" on="0"/>
        <pt x="1617" y="859" on="0"/>
        <pt x="1552" y="819" on="0"/>
        <pt x="1512" y="809" on="1"/>
        <pt x="1550" y="800" on="0"/>
        <pt x="1612" y="767" on="0"/>
        <pt x="1671" y="713" on="0"/>
        <pt x="1732" y="638" on="0"/>
        <pt x="1769" y="587" on="1"/>
        <pt x="2185" y="0" on="1"/>
        <pt x="1885" y="0" on="1"/>
        <pt x="1379" y="721" on="1"/>
        <pt x="1249" y="721" on="1"/>
        <pt x="1249" y="0" on="1"/>
        <pt x="962" y="0" on="1"/>
      </contour>
    </TTGlyph>
    <TTGlyph name="afii10025" xMin="122" yMin="-36" xMax="1156" yMax="1631">
      <contour>
        <pt x="817" y="816" on="1"/>
        <pt x="886" y="809" on="0"/>
        <pt x="1010" y="748" on="0"/>
        <pt x="1102" y="646" on="0"/>
        <pt x="1156" y="505" on="0"/>
        <pt x="1156" y="419" on="1"/>
        <pt x="1156" y="298" on="0"/>
        <pt x="1064" y="126" on="0"/>
        <pt x="905" y="16" on="0"/>
        <pt x="694" y="-36" on="0"/>
        <pt x="576" y="-36" on="1"/>
        <pt x="467" y="-36" on="0"/>
        <pt x="243" y="18" on="0"/>
        <pt x="122" y="69" on="1"/>
        <pt x="187" y="267" on="1"/>
        <pt x="221" y="251" on="0"/>
        <pt x="316" y="219" on="0"/>
        <pt x="421" y="194" on="0"/>
        <pt x="530" y="178" on="0"/>
        <pt x="578" y="178" on="1"/>
        <pt x="640" y="178" on="0"/>
        <pt x="734" y="204" on="0"/>
        <pt x="801" y="247" on="0"/>
        <pt x="845" y="302" on="0"/>
        <pt x="871" y="362" on="0"/>
        <pt x="881" y="422" on="0"/>
        <pt x="881" y="447" on="1"/>
        <pt x="881" y="520" on="0"/>
        <pt x="828" y="621" on="0"/>
        <pt x="720" y="684" on="0"/>
        <pt x="555" y="712" on="0"/>
        <pt x="443" y="712" on="1"/>
        <pt x="338" y="712" on="1"/>
        <pt x="338" y="911" on="1"/>
        <pt x="497" y="911" on="1"/>
        <pt x="687" y="911" on="0"/>
        <pt x="869" y="1047" on="0"/>
        <pt x="869" y="1178" on="1"/>
        <pt x="869" y="1238" on="0"/>
        <pt x="839" y="1328" on="0"/>
        <pt x="770" y="1388" on="0"/>
        <pt x="657" y="1418" on="0"/>
        <pt x="575" y="1418" on="1"/>
        <pt x="510" y="1418" on="0"/>
        <pt x="394" y="1400" on="0"/>
        <pt x="295" y="1375" on="0"/>
        <pt x="218" y="1345" on="0"/>
        <pt x="194" y="1333" on="1"/>
        <pt x="128" y="1527" on="1"/>
        <pt x="174" y="1553" on="0"/>
        <pt x="284" y="1592" on="0"/>
        <pt x="402" y="1618" on="0"/>
        <pt x="524" y="1631" on="0"/>
        <pt x="581" y="1631" on="1"/>
        <pt x="698" y="1631" on="0"/>
        <pt x="901" y="1582" on="0"/>
        <pt x="1050" y="1478" on="0"/>
        <pt x="1136" y="1314" on="0"/>
        <pt x="1136" y="1200" on="1"/>
        <pt x="1136" y="1111" on="0"/>
        <pt x="1085" y="974" on="0"/>
        <pt x="997" y="878" on="0"/>
        <pt x="881" y="823" on="0"/>
      </contour>
    </TTGlyph>
    <TTGlyph name="afii10026" xMin="155" yMin="0" xMax="1468" yMax="1602">
      <contour>
        <pt x="404" y="1602" on="1"/>
        <pt x="404" y="489" on="1"/>
        <pt x="1134" y="1602" on="1"/>
        <pt x="1468" y="1602" on="1"/>
        <pt x="1468" y="0" on="1"/>
        <pt x="1217" y="0" on="1"/>
        <pt x="1217" y="1285" on="1"/>
        <pt x="405" y="102" on="1"/>
        <pt x="405" y="0" on="1"/>
        <pt x="155" y="0" on="1"/>
        <pt x="155" y="1602" on="1"/>
      </contour>
    </TTGlyph>
    <TTGlyph name="afii10027" xMin="155" yMin="0" xMax="1468" yMax="1943">
      <component glyphName="uni0306" x="289" y="1513" flags="0x1004"/>
      <component glyphName="afii10026" x="0" y="0" flags="0x1004"/>
    </TTGlyph>
    <TTGlyph name="afii10028" xMin="155" yMin="0" xMax="1423" yMax="1602">
      <contour>
        <pt x="442" y="0" on="1"/>
        <pt x="155" y="0" on="1"/>
        <pt x="155" y="1602" on="1"/>
        <pt x="442" y="1602" on="1"/>
        <pt x="442" y="891" on="1"/>
        <pt x="596" y="891" on="1"/>
        <pt x="1072" y="1602" on="1"/>
        <pt x="1362" y="1602" on="1"/>
        <pt x="995" y="1060" on="1"/>
        <pt x="954" y="1000" on="0"/>
        <pt x="890" y="914" on="0"/>
        <pt x="830" y="855" on="0"/>
        <pt x="768" y="819" on="0"/>
        <pt x="731" y="809" on="1"/>
        <pt x="770" y="800" on="0"/>
        <pt x="837" y="761" on="0"/>
        <pt x="900" y="701" on="0"/>
        <pt x="963" y="622" on="0"/>
        <pt x="998" y="575" on="1"/>
        <pt x="1423" y="0" on="1"/>
        <pt x="1124" y="0" on="1"/>
        <pt x="588" y="721" on="1"/>
        <pt x="442" y="721" on="1"/>
      </contour>
    </TTGlyph>
    <TTGlyph name="afii10029" xMin="46" yMin="-11" xMax="1655" yMax="1602">
      <contour>
        <pt x="1655" y="0" on="1"/>
        <pt x="1368" y="0" on="1"/>
        <pt x="1368" y="1410" on="1"/>
        <pt x="714" y="1410" on="1"/>
        <pt x="692" y="769" on="1"/>
        <pt x="688" y="650" on="0"/>
        <pt x="668" y="441" on="0"/>
        <pt x="618" y="268" on="0"/>
        <pt x="530" y="132" on="0"/>
        <pt x="389" y="38" on="0"/>
        <pt x="186" y="-11" on="0"/>
        <pt x="46" y="-11" on="1"/>
        <pt x="48" y="235" on="1"/>
        <pt x="156" y="238" on="0"/>
        <pt x="291" y="281" on="0"/>
        <pt x="368" y="386" on="0"/>
        <pt x="400" y="569" on="0"/>
        <pt x="405" y="712" on="1"/>
        <pt x="429" y="1602" on="1"/>
        <pt x="1655" y="1602" on="1"/>
      </contour>
    </TTGlyph>
    <TTGlyph name="afii10030" xMin="155" yMin="0" xMax="1820" yMax="1602">
      <component glyphName="M" x="0" y="0" flags="0x1204"/>
    </TTGlyph>
    <TTGlyph name="afii10031" xMin="155" yMin="0" xMax="1432" yMax="1602">
      <component glyphName="H" x="0" y="0" flags="0x1204"/>
    </TTGlyph>
    <TTGlyph name="afii10032" xMin="104" yMin="-36" xMax="1492" yMax="1630">
      <component glyphName="O" x="0" y="0" flags="0x1204"/>
    </TTGlyph>
    <TTGlyph name="afii10033" xMin="155" yMin="0" xMax="1453" yMax="1602">
      <contour>
        <pt x="1453" y="0" on="1"/>
        <pt x="1166" y="0" on="1"/>
        <pt x="1166" y="1410" on="1"/>
        <pt x="442" y="1410" on="1"/>
        <pt x="442" y="0" on="1"/>
        <pt x="155" y="0" on="1"/>
        <pt x="155" y="1602" on="1"/>
        <pt x="1453" y="1602" on="1"/>
      </contour>
    </TTGlyph>
    <TTGlyph name="afii10034" xMin="155" yMin="0" xMax="1322" yMax="1602">
      <component glyphName="P" x="0" y="0" flags="0x1004"/>
    </TTGlyph>
    <TTGlyph name="afii10035" xMin="102" yMin="-35" xMax="1258" yMax="1631">
      <component glyphName="C" x="-2" y="0" flags="0x1004"/>
    </TTGlyph>
    <TTGlyph name="afii10036" xMin="21" yMin="0" xMax="1182" yMax="1602">
      <component glyphName="T" x="-6" y="0" flags="0x1004"/>
    </TTGlyph>
    <TTGlyph name="afii10037" xMin="-13" yMin="-60" xMax="1205" yMax="1602">
      <contour>
        <pt x="915" y="1602" on="1"/>
        <pt x="1205" y="1602" on="1"/>
        <pt x="727" y="484" on="1"/>
        <pt x="727" y="278" on="1"/>
        <pt x="727" y="150" on="0"/>
        <pt x="633" y="-15" on="0"/>
        <pt x="533" y="-60" on="1"/>
        <pt x="328" y="3" on="1"/>
        <pt x="359" y="26" on="0"/>
        <pt x="411" y="74" on="0"/>
        <pt x="450" y="137" on="0"/>
        <pt x="472" y="222" on="0"/>
        <pt x="472" y="281" on="1"/>
        <pt x="472" y="483" on="1"/>
        <pt x="-13" y="1602" on="1"/>
        <pt x="267" y="1602" on="1"/>
        <pt x="599" y="773" on="1"/>
      </contour>
    </TTGlyph>
    <TTGlyph name="afii10038" xMin="104" yMin="-41" xMax="1662" yMax="1643">
      <contour>
        <pt x="1020" y="-41" on="1"/>
        <pt x="736" y="-41" on="1"/>
        <pt x="736" y="118" on="1"/>
        <pt x="569" y="124" on="0"/>
        <pt x="330" y="234" on="0"/>
        <pt x="176" y="416" on="0"/>
        <pt x="104" y="659" on="0"/>
        <pt x="104" y="799" on="1"/>
        <pt x="104" y="960" on="0"/>
        <pt x="197" y="1209" on="0"/>
        <pt x="364" y="1381" on="0"/>
        <pt x="596" y="1474" on="0"/>
        <pt x="736" y="1480" on="1"/>
        <pt x="736" y="1643" on="1"/>
        <pt x="1020" y="1643" on="1"/>
        <pt x="1020" y="1480" on="1"/>
        <pt x="1159" y="1478" on="0"/>
        <pt x="1394" y="1382" on="0"/>
        <pt x="1565" y="1206" on="0"/>
        <pt x="1662" y="956" on="0"/>
        <pt x="1662" y="800" on="1"/>
        <pt x="1662" y="711" on="0"/>
        <pt x="1631" y="543" on="0"/>
        <pt x="1564" y="394" on="0"/>
        <pt x="1461" y="268" on="0"/>
        <pt x="1319" y="176" on="0"/>
        <pt x="1134" y="121" on="0"/>
        <pt x="1020" y="118" on="1"/>
      </contour>
      <contour>
        <pt x="736" y="1266" on="1"/>
        <pt x="653" y="1258" on="0"/>
        <pt x="525" y="1204" on="0"/>
        <pt x="438" y="1094" on="0"/>
        <pt x="392" y="923" on="0"/>
        <pt x="392" y="800" on="1"/>
        <pt x="392" y="680" on="0"/>
        <pt x="443" y="509" on="0"/>
        <pt x="534" y="396" on="0"/>
        <pt x="661" y="338" on="0"/>
        <pt x="736" y="331" on="1"/>
      </contour>
      <contour>
        <pt x="1020" y="330" on="1"/>
        <pt x="1099" y="335" on="0"/>
        <pt x="1229" y="392" on="0"/>
        <pt x="1322" y="504" on="0"/>
        <pt x="1373" y="678" on="0"/>
        <pt x="1373" y="800" on="1"/>
        <pt x="1373" y="926" on="0"/>
        <pt x="1325" y="1099" on="0"/>
        <pt x="1235" y="1208" on="0"/>
        <pt x="1104" y="1261" on="0"/>
        <pt x="1020" y="1268" on="1"/>
      </contour>
    </TTGlyph>
    <TTGlyph name="afii10039" xMin="25" yMin="0" xMax="1340" yMax="1602">
      <component glyphName="X" x="0" y="0" flags="0x1204"/>
    </TTGlyph>
    <TTGlyph name="afii10040" xMin="155" yMin="-395" xMax="1576" yMax="1602">
      <contour>
        <pt x="155" y="1602" on="1"/>
        <pt x="442" y="1602" on="1"/>
        <pt x="442" y="192" on="1"/>
        <pt x="1156" y="192" on="1"/>
        <pt x="1156" y="1602" on="1"/>
        <pt x="1443" y="1602" on="1"/>
        <pt x="1443" y="88" on="1"/>
        <pt x="1576" y="88" on="1"/>
        <pt x="1576" y="-395" on="1"/>
        <pt x="1300" y="-395" on="1"/>
        <pt x="1300" y="0" on="1"/>
        <pt x="155" y="0" on="1"/>
      </contour>
    </TTGlyph>
    <TTGlyph name="afii10041" xMin="115" yMin="0" xMax="1167" yMax="1602">
      <contour>
        <pt x="889" y="563" on="1"/>
        <pt x="848" y="515" on="0"/>
        <pt x="767" y="449" on="0"/>
        <pt x="681" y="409" on="0"/>
        <pt x="586" y="391" on="0"/>
        <pt x="532" y="391" on="1"/>
        <pt x="433" y="391" on="0"/>
        <pt x="278" y="449" on="0"/>
        <pt x="171" y="566" on="0"/>
        <pt x="115" y="745" on="0"/>
        <pt x="115" y="866" on="1"/>
        <pt x="115" y="1602" on="1"/>
        <pt x="392" y="1602" on="1"/>
        <pt x="392" y="854" on="1"/>
        <pt x="392" y="713" on="0"/>
        <pt x="499" y="583" on="0"/>
        <pt x="591" y="583" on="1"/>
        <pt x="649" y="583" on="0"/>
        <pt x="742" y="606" on="0"/>
        <pt x="814" y="641" on="0"/>
        <pt x="869" y="683" on="0"/>
        <pt x="889" y="703" on="1"/>
        <pt x="889" y="1602" on="1"/>
        <pt x="1167" y="1602" on="1"/>
        <pt x="1167" y="0" on="1"/>
        <pt x="889" y="0" on="1"/>
      </contour>
    </TTGlyph>
    <TTGlyph name="afii10042" xMin="155" yMin="0" xMax="2241" yMax="1602">
      <contour>
        <pt x="1342" y="192" on="1"/>
        <pt x="1954" y="192" on="1"/>
        <pt x="1954" y="1602" on="1"/>
        <pt x="2241" y="1602" on="1"/>
        <pt x="2241" y="0" on="1"/>
        <pt x="155" y="0" on="1"/>
        <pt x="155" y="1602" on="1"/>
        <pt x="442" y="1602" on="1"/>
        <pt x="442" y="192" on="1"/>
        <pt x="1054" y="192" on="1"/>
        <pt x="1054" y="1602" on="1"/>
        <pt x="1342" y="1602" on="1"/>
      </contour>
    </TTGlyph>
    <TTGlyph name="afii10043" xMin="155" yMin="-435" xMax="2339" yMax="1602">
      <contour>
        <pt x="1342" y="191" on="1"/>
        <pt x="1955" y="191" on="1"/>
        <pt x="1955" y="1602" on="1"/>
        <pt x="2233" y="1602" on="1"/>
        <pt x="2233" y="44" on="1"/>
        <pt x="2339" y="44" on="1"/>
        <pt x="2339" y="-435" on="1"/>
        <pt x="2090" y="-435" on="1"/>
        <pt x="2090" y="0" on="1"/>
        <pt x="155" y="0" on="1"/>
        <pt x="155" y="1602" on="1"/>
        <pt x="442" y="1602" on="1"/>
        <pt x="442" y="191" on="1"/>
        <pt x="1054" y="191" on="1"/>
        <pt x="1054" y="1602" on="1"/>
        <pt x="1342" y="1602" on="1"/>
      </contour>
    </TTGlyph>
    <TTGlyph name="afii10044" xMin="34" yMin="0" xMax="1518" yMax="1602">
      <contour>
        <pt x="638" y="192" on="1"/>
        <pt x="792" y="192" on="1"/>
        <pt x="907" y="192" on="0"/>
        <pt x="1075" y="219" on="0"/>
        <pt x="1185" y="291" on="0"/>
        <pt x="1237" y="418" on="0"/>
        <pt x="1237" y="518" on="1"/>
        <pt x="1237" y="614" on="0"/>
        <pt x="1154" y="729" on="0"/>
        <pt x="1018" y="792" on="0"/>
        <pt x="844" y="812" on="0"/>
        <pt x="754" y="812" on="1"/>
        <pt x="638" y="812" on="1"/>
      </contour>
      <contour>
        <pt x="638" y="998" on="1"/>
        <pt x="755" y="998" on="1"/>
        <pt x="947" y="998" on="0"/>
        <pt x="1233" y="946" on="0"/>
        <pt x="1423" y="829" on="0"/>
        <pt x="1518" y="640" on="0"/>
        <pt x="1518" y="504" on="1"/>
        <pt x="1518" y="363" on="0"/>
        <pt x="1426" y="170" on="0"/>
        <pt x="1243" y="51" on="0"/>
        <pt x="969" y="0" on="0"/>
        <pt x="786" y="0" on="1"/>
        <pt x="351" y="0" on="1"/>
        <pt x="351" y="1413" on="1"/>
        <pt x="34" y="1413" on="1"/>
        <pt x="34" y="1602" on="1"/>
        <pt x="638" y="1602" on="1"/>
      </contour>
    </TTGlyph>
    <TTGlyph name="afii10045" xMin="128" yMin="0" xMax="1891" yMax="1619">
      <contour>
        <pt x="1891" y="0" on="1"/>
        <pt x="1605" y="0" on="1"/>
        <pt x="1605" y="1619" on="1"/>
        <pt x="1891" y="1619" on="1"/>
      </contour>
      <contour>
        <pt x="1295" y="504" on="1"/>
        <pt x="1295" y="363" on="0"/>
        <pt x="1203" y="170" on="0"/>
        <pt x="1020" y="51" on="0"/>
        <pt x="746" y="0" on="0"/>
        <pt x="563" y="0" on="1"/>
        <pt x="128" y="0" on="1"/>
        <pt x="128" y="1602" on="1"/>
        <pt x="415" y="1602" on="1"/>
        <pt x="415" y="998" on="1"/>
        <pt x="532" y="998" on="1"/>
        <pt x="724" y="998" on="0"/>
        <pt x="1009" y="946" on="0"/>
        <pt x="1198" y="829" on="0"/>
        <pt x="1293" y="640" on="0"/>
      </contour>
      <contour>
        <pt x="415" y="192" on="1"/>
        <pt x="569" y="192" on="1"/>
        <pt x="687" y="192" on="0"/>
        <pt x="855" y="219" on="0"/>
        <pt x="963" y="291" on="0"/>
        <pt x="1014" y="418" on="0"/>
        <pt x="1014" y="518" on="1"/>
        <pt x="1014" y="614" on="0"/>
        <pt x="931" y="729" on="0"/>
        <pt x="795" y="792" on="0"/>
        <pt x="621" y="812" on="0"/>
        <pt x="531" y="812" on="1"/>
        <pt x="415" y="812" on="1"/>
      </contour>
    </TTGlyph>
    <TTGlyph name="afii10046" xMin="128" yMin="0" xMax="1295" yMax="1602">
      <contour>
        <pt x="1295" y="504" on="1"/>
        <pt x="1295" y="363" on="0"/>
        <pt x="1203" y="170" on="0"/>
        <pt x="1020" y="51" on="0"/>
        <pt x="746" y="0" on="0"/>
        <pt x="563" y="0" on="1"/>
        <pt x="128" y="0" on="1"/>
        <pt x="128" y="1602" on="1"/>
        <pt x="415" y="1602" on="1"/>
        <pt x="415" y="998" on="1"/>
        <pt x="532" y="998" on="1"/>
        <pt x="724" y="998" on="0"/>
        <pt x="1009" y="946" on="0"/>
        <pt x="1198" y="829" on="0"/>
        <pt x="1293" y="640" on="0"/>
      </contour>
      <contour>
        <pt x="415" y="192" on="1"/>
        <pt x="569" y="192" on="1"/>
        <pt x="687" y="192" on="0"/>
        <pt x="855" y="219" on="0"/>
        <pt x="963" y="291" on="0"/>
        <pt x="1014" y="418" on="0"/>
        <pt x="1014" y="518" on="1"/>
        <pt x="1014" y="614" on="0"/>
        <pt x="931" y="729" on="0"/>
        <pt x="795" y="792" on="0"/>
        <pt x="621" y="812" on="0"/>
        <pt x="531" y="812" on="1"/>
        <pt x="415" y="812" on="1"/>
      </contour>
    </TTGlyph>
    <TTGlyph name="afii10047" xMin="65" yMin="-35" xMax="1221" yMax="1631">
      <contour>
        <pt x="1221" y="791" on="1"/>
        <pt x="1221" y="600" on="0"/>
        <pt x="1135" y="294" on="0"/>
        <pt x="962" y="80" on="0"/>
        <pt x="704" y="-35" on="0"/>
        <pt x="532" y="-35" on="1"/>
        <pt x="448" y="-35" on="0"/>
        <pt x="292" y="-7" on="0"/>
        <pt x="166" y="32" on="0"/>
        <pt x="79" y="73" on="0"/>
        <pt x="65" y="85" on="1"/>
        <pt x="145" y="287" on="1"/>
        <pt x="165" y="273" on="0"/>
        <pt x="236" y="236" on="0"/>
        <pt x="334" y="202" on="0"/>
        <pt x="456" y="178" on="0"/>
        <pt x="527" y="178" on="1"/>
        <pt x="633" y="178" on="0"/>
        <pt x="781" y="261" on="0"/>
        <pt x="876" y="406" on="0"/>
        <pt x="924" y="601" on="0"/>
        <pt x="930" y="713" on="1"/>
        <pt x="356" y="713" on="1"/>
        <pt x="356" y="896" on="1"/>
        <pt x="928" y="896" on="1"/>
        <pt x="921" y="1023" on="0"/>
        <pt x="867" y="1218" on="0"/>
        <pt x="765" y="1350" on="0"/>
        <pt x="612" y="1418" on="0"/>
        <pt x="506" y="1418" on="1"/>
        <pt x="444" y="1418" on="0"/>
        <pt x="337" y="1400" on="0"/>
        <pt x="247" y="1373" on="0"/>
        <pt x="177" y="1340" on="0"/>
        <pt x="153" y="1324" on="1"/>
        <pt x="79" y="1531" on="1"/>
        <pt x="95" y="1541" on="0"/>
        <pt x="179" y="1575" on="0"/>
        <pt x="299" y="1608" on="0"/>
        <pt x="445" y="1631" on="0"/>
        <pt x="524" y="1631" on="1"/>
        <pt x="697" y="1631" on="0"/>
        <pt x="958" y="1520" on="0"/>
        <pt x="1133" y="1307" on="0"/>
        <pt x="1221" y="993" on="0"/>
      </contour>
    </TTGlyph>
    <TTGlyph name="afii10048" xMin="155" yMin="-35" xMax="2039" yMax="1631">
      <contour>
        <pt x="656" y="899" on="1"/>
        <pt x="660" y="1054" on="0"/>
        <pt x="745" y="1322" on="0"/>
        <pt x="912" y="1519" on="0"/>
        <pt x="1165" y="1631" on="0"/>
        <pt x="1338" y="1631" on="1"/>
        <pt x="1473" y="1631" on="0"/>
        <pt x="1682" y="1572" on="0"/>
        <pt x="1838" y="1464" on="0"/>
        <pt x="1944" y="1313" on="0"/>
        <pt x="2010" y="1129" on="0"/>
        <pt x="2039" y="918" on="0"/>
        <pt x="2039" y="804" on="1"/>
        <pt x="2039" y="620" on="0"/>
        <pt x="1963" y="312" on="0"/>
        <pt x="1797" y="89" on="0"/>
        <pt x="1533" y="-35" on="0"/>
        <pt x="1345" y="-35" on="1"/>
        <pt x="1218" y="-35" on="0"/>
        <pt x="1019" y="24" on="0"/>
        <pt x="867" y="128" on="0"/>
        <pt x="759" y="271" on="0"/>
        <pt x="690" y="440" on="0"/>
        <pt x="656" y="628" on="0"/>
        <pt x="654" y="725" on="1"/>
        <pt x="442" y="725" on="1"/>
        <pt x="442" y="0" on="1"/>
        <pt x="155" y="0" on="1"/>
        <pt x="155" y="1602" on="1"/>
        <pt x="442" y="1602" on="1"/>
        <pt x="442" y="899" on="1"/>
      </contour>
      <contour>
        <pt x="1749" y="813" on="1"/>
        <pt x="1749" y="891" on="0"/>
        <pt x="1735" y="1041" on="0"/>
        <pt x="1700" y="1176" on="0"/>
        <pt x="1641" y="1289" on="0"/>
        <pt x="1551" y="1372" on="0"/>
        <pt x="1426" y="1418" on="0"/>
        <pt x="1343" y="1418" on="1"/>
        <pt x="1235" y="1418" on="0"/>
        <pt x="1082" y="1330" on="0"/>
        <pt x="986" y="1172" on="0"/>
        <pt x="942" y="952" on="0"/>
        <pt x="942" y="819" on="1"/>
        <pt x="943" y="688" on="0"/>
        <pt x="972" y="456" on="0"/>
        <pt x="1059" y="280" on="0"/>
        <pt x="1217" y="178" on="0"/>
        <pt x="1346" y="178" on="1"/>
        <pt x="1463" y="178" on="0"/>
        <pt x="1618" y="276" on="0"/>
        <pt x="1711" y="447" on="0"/>
        <pt x="1749" y="679" on="0"/>
      </contour>
    </TTGlyph>
    <TTGlyph name="afii10049" xMin="125" yMin="0" xMax="1307" yMax="1602">
      <contour>
        <pt x="583" y="803" on="1"/>
        <pt x="485" y="806" on="0"/>
        <pt x="320" y="855" on="0"/>
        <pt x="202" y="949" on="0"/>
        <pt x="136" y="1089" on="0"/>
        <pt x="136" y="1184" on="1"/>
        <pt x="136" y="1296" on="0"/>
        <pt x="218" y="1455" on="0"/>
        <pt x="401" y="1555" on="0"/>
        <pt x="694" y="1602" on="0"/>
        <pt x="904" y="1602" on="1"/>
        <pt x="1307" y="1602" on="1"/>
        <pt x="1307" y="0" on="1"/>
        <pt x="1020" y="0" on="1"/>
        <pt x="1020" y="714" on="1"/>
        <pt x="870" y="714" on="1"/>
        <pt x="756" y="714" on="0"/>
        <pt x="584" y="687" on="0"/>
        <pt x="468" y="620" on="0"/>
        <pt x="410" y="504" on="0"/>
        <pt x="410" y="415" on="1"/>
        <pt x="410" y="0" on="1"/>
        <pt x="125" y="0" on="1"/>
        <pt x="125" y="395" on="1"/>
        <pt x="125" y="499" on="0"/>
        <pt x="192" y="644" on="0"/>
        <pt x="313" y="739" on="0"/>
        <pt x="482" y="792" on="0"/>
      </contour>
      <contour>
        <pt x="1020" y="894" on="1"/>
        <pt x="1020" y="1410" on="1"/>
        <pt x="886" y="1410" on="1"/>
        <pt x="775" y="1410" on="0"/>
        <pt x="598" y="1394" on="0"/>
        <pt x="476" y="1341" on="0"/>
        <pt x="411" y="1243" on="0"/>
        <pt x="411" y="1161" on="1"/>
        <pt x="411" y="1076" on="0"/>
        <pt x="494" y="972" on="0"/>
        <pt x="633" y="914" on="0"/>
        <pt x="812" y="894" on="0"/>
        <pt x="908" y="894" on="1"/>
      </contour>
    </TTGlyph>
    <TTGlyph name="afii10051" xMin="19" yMin="-255" xMax="1518" yMax="1602">
      <contour>
        <pt x="909" y="-70" on="1"/>
        <pt x="1013" y="-70" on="0"/>
        <pt x="1143" y="-31" on="0"/>
        <pt x="1215" y="58" on="0"/>
        <pt x="1241" y="204" on="0"/>
        <pt x="1241" y="311" on="1"/>
        <pt x="1241" y="748" on="1"/>
        <pt x="1241" y="1019" on="0"/>
        <pt x="1041" y="1019" on="1"/>
        <pt x="991" y="1019" on="0"/>
        <pt x="905" y="1000" on="0"/>
        <pt x="832" y="967" on="0"/>
        <pt x="770" y="924" on="0"/>
        <pt x="745" y="900" on="1"/>
        <pt x="745" y="0" on="1"/>
        <pt x="458" y="0" on="1"/>
        <pt x="458" y="1410" on="1"/>
        <pt x="19" y="1410" on="1"/>
        <pt x="19" y="1602" on="1"/>
        <pt x="1181" y="1602" on="1"/>
        <pt x="1181" y="1410" on="1"/>
        <pt x="745" y="1410" on="1"/>
        <pt x="745" y="1057" on="1"/>
        <pt x="804" y="1132" on="0"/>
        <pt x="986" y="1211" on="0"/>
        <pt x="1109" y="1211" on="1"/>
        <pt x="1305" y="1211" on="0"/>
        <pt x="1518" y="974" on="0"/>
        <pt x="1518" y="736" on="1"/>
        <pt x="1518" y="234" on="1"/>
        <pt x="1518" y="115" on="0"/>
        <pt x="1454" y="-67" on="0"/>
        <pt x="1332" y="-191" on="0"/>
        <pt x="1155" y="-255" on="0"/>
        <pt x="1042" y="-255" on="1"/>
        <pt x="1004" y="-255" on="0"/>
        <pt x="933" y="-247" on="0"/>
        <pt x="899" y="-239" on="1"/>
      </contour>
    </TTGlyph>
    <TTGlyph name="afii10052" xMin="155" yMin="0" xMax="1145" yMax="2369">
      <contour>
        <pt x="634" y="1758" on="1"/>
        <pt x="793" y="2369" on="1"/>
        <pt x="1025" y="2278" on="1"/>
        <pt x="691" y="1732" on="1"/>
      </contour>
      <contour>
        <pt x="442" y="1410" on="1"/>
        <pt x="442" y="0" on="1"/>
        <pt x="155" y="0" on="1"/>
        <pt x="155" y="1602" on="1"/>
        <pt x="1145" y="1602" on="1"/>
        <pt x="1145" y="1410" on="1"/>
      </contour>
    </TTGlyph>
    <TTGlyph name="afii10053" xMin="104" yMin="-35" xMax="1260" yMax="1631">
      <contour>
        <pt x="104" y="791" on="1"/>
        <pt x="104" y="993" on="0"/>
        <pt x="192" y="1307" on="0"/>
        <pt x="367" y="1520" on="0"/>
        <pt x="628" y="1631" on="0"/>
        <pt x="801" y="1631" on="1"/>
        <pt x="917" y="1631" on="0"/>
        <pt x="1132" y="1577" on="0"/>
        <pt x="1246" y="1531" on="1"/>
        <pt x="1172" y="1324" on="1"/>
        <pt x="1116" y="1351" on="0"/>
        <pt x="1022" y="1387" on="0"/>
        <pt x="937" y="1409" on="0"/>
        <pt x="858" y="1418" on="0"/>
        <pt x="818" y="1418" on="1"/>
        <pt x="615" y="1418" on="0"/>
        <pt x="410" y="1161" on="0"/>
        <pt x="397" y="894" on="1"/>
        <pt x="1030" y="894" on="1"/>
        <pt x="1030" y="720" on="1"/>
        <pt x="396" y="720" on="1"/>
        <pt x="409" y="451" on="0"/>
        <pt x="607" y="178" on="0"/>
        <pt x="804" y="178" on="1"/>
        <pt x="904" y="178" on="0"/>
        <pt x="1089" y="233" on="0"/>
        <pt x="1181" y="287" on="1"/>
        <pt x="1260" y="85" on="1"/>
        <pt x="1226" y="62" on="0"/>
        <pt x="1123" y="19" on="0"/>
        <pt x="998" y="-14" on="0"/>
        <pt x="861" y="-35" on="0"/>
        <pt x="793" y="-35" on="1"/>
        <pt x="621" y="-35" on="0"/>
        <pt x="363" y="80" on="0"/>
        <pt x="190" y="294" on="0"/>
        <pt x="104" y="600" on="0"/>
      </contour>
    </TTGlyph>
    <TTGlyph name="afii10054" xMin="83" yMin="-35" xMax="1234" yMax="1631">
      <component glyphName="S" x="0" y="0" flags="0x1204"/>
    </TTGlyph>
    <TTGlyph name="afii10055" xMin="84" yMin="0" xMax="747" yMax="1602">
      <component glyphName="I" x="-4" y="0" flags="0x1004"/>
    </TTGlyph>
    <TTGlyph name="afii10056" xMin="-38" yMin="0" xMax="863" yMax="2052">
      <contour>
        <pt x="-38" y="1895" on="1"/>
        <pt x="-38" y="1927" on="0"/>
        <pt x="-14" y="1984" on="0"/>
        <pt x="27" y="2027" on="0"/>
        <pt x="84" y="2052" on="0"/>
        <pt x="117" y="2052" on="1"/>
        <pt x="150" y="2052" on="0"/>
        <pt x="207" y="2028" on="0"/>
        <pt x="249" y="1985" on="0"/>
        <pt x="273" y="1928" on="0"/>
        <pt x="273" y="1895" on="1"/>
        <pt x="273" y="1862" on="0"/>
        <pt x="249" y="1804" on="0"/>
        <pt x="207" y="1761" on="0"/>
        <pt x="150" y="1737" on="0"/>
        <pt x="117" y="1737" on="1"/>
        <pt x="83" y="1737" on="0"/>
        <pt x="26" y="1762" on="0"/>
        <pt x="-15" y="1805" on="0"/>
        <pt x="-38" y="1863" on="0"/>
      </contour>
      <contour>
        <pt x="552" y="1895" on="1"/>
        <pt x="552" y="1927" on="0"/>
        <pt x="576" y="1984" on="0"/>
        <pt x="617" y="2027" on="0"/>
        <pt x="674" y="2052" on="0"/>
        <pt x="707" y="2052" on="1"/>
        <pt x="740" y="2052" on="0"/>
        <pt x="797" y="2028" on="0"/>
        <pt x="839" y="1985" on="0"/>
        <pt x="863" y="1928" on="0"/>
        <pt x="863" y="1895" on="1"/>
        <pt x="863" y="1862" on="0"/>
        <pt x="839" y="1804" on="0"/>
        <pt x="797" y="1761" on="0"/>
        <pt x="740" y="1737" on="0"/>
        <pt x="707" y="1737" on="1"/>
        <pt x="673" y="1737" on="0"/>
        <pt x="616" y="1762" on="0"/>
        <pt x="575" y="1805" on="0"/>
        <pt x="552" y="1863" on="0"/>
      </contour>
      <contour>
        <pt x="270" y="143" on="1"/>
        <pt x="270" y="1455" on="1"/>
        <pt x="80" y="1455" on="1"/>
        <pt x="80" y="1602" on="1"/>
        <pt x="743" y="1602" on="1"/>
        <pt x="743" y="1455" on="1"/>
        <pt x="551" y="1455" on="1"/>
        <pt x="551" y="143" on="1"/>
        <pt x="743" y="143" on="1"/>
        <pt x="743" y="0" on="1"/>
        <pt x="80" y="0" on="1"/>
        <pt x="80" y="143" on="1"/>
      </contour>
    </TTGlyph>
    <TTGlyph name="afii10057" xMin="40" yMin="-90" xMax="653" yMax="1602">
      <component glyphName="J" x="0" y="0" flags="0x1004"/>
    </TTGlyph>
    <TTGlyph name="afii10058" xMin="63" yMin="-10" xMax="2547" yMax="1602">
      <contour>
        <pt x="2267" y="518" on="1"/>
        <pt x="2267" y="606" on="0"/>
        <pt x="2205" y="720" on="0"/>
        <pt x="2082" y="786" on="0"/>
        <pt x="1901" y="812" on="0"/>
        <pt x="1783" y="812" on="1"/>
        <pt x="1672" y="812" on="1"/>
        <pt x="1672" y="192" on="1"/>
        <pt x="1821" y="192" on="1"/>
        <pt x="1959" y="192" on="0"/>
        <pt x="2133" y="231" on="0"/>
        <pt x="2231" y="311" on="0"/>
        <pt x="2267" y="434" on="0"/>
      </contour>
      <contour>
        <pt x="1385" y="0" on="1"/>
        <pt x="1385" y="1410" on="1"/>
        <pt x="731" y="1410" on="1"/>
        <pt x="713" y="844" on="1"/>
        <pt x="710" y="724" on="0"/>
        <pt x="689" y="500" on="0"/>
        <pt x="665" y="397" on="1"/>
        <pt x="645" y="294" on="0"/>
        <pt x="557" y="141" on="0"/>
        <pt x="410" y="40" on="0"/>
        <pt x="202" y="-10" on="0"/>
        <pt x="63" y="-10" on="1"/>
        <pt x="65" y="236" on="1"/>
        <pt x="152" y="239" on="0"/>
        <pt x="271" y="273" on="0"/>
        <pt x="348" y="334" on="0"/>
        <pt x="391" y="422" on="0"/>
        <pt x="412" y="535" on="0"/>
        <pt x="418" y="674" on="0"/>
        <pt x="421" y="755" on="1"/>
        <pt x="446" y="1602" on="1"/>
        <pt x="1672" y="1602" on="1"/>
        <pt x="1672" y="998" on="1"/>
        <pt x="1784" y="998" on="1"/>
        <pt x="1977" y="998" on="0"/>
        <pt x="2263" y="945" on="0"/>
        <pt x="2453" y="827" on="0"/>
        <pt x="2547" y="640" on="0"/>
        <pt x="2547" y="507" on="1"/>
        <pt x="2547" y="349" on="0"/>
        <pt x="2440" y="152" on="0"/>
        <pt x="2239" y="40" on="0"/>
        <pt x="1950" y="0" on="0"/>
        <pt x="1769" y="0" on="1"/>
      </contour>
    </TTGlyph>
    <TTGlyph name="afii10059" xMin="155" yMin="0" xMax="2307" yMax="1602">
      <contour>
        <pt x="2026" y="518" on="1"/>
        <pt x="2026" y="606" on="0"/>
        <pt x="1964" y="720" on="0"/>
        <pt x="1842" y="786" on="0"/>
        <pt x="1661" y="812" on="0"/>
        <pt x="1543" y="812" on="1"/>
        <pt x="1432" y="812" on="1"/>
        <pt x="1432" y="192" on="1"/>
        <pt x="1581" y="192" on="1"/>
        <pt x="1719" y="192" on="0"/>
        <pt x="1893" y="231" on="0"/>
        <pt x="1990" y="311" on="0"/>
        <pt x="2026" y="434" on="0"/>
      </contour>
      <contour>
        <pt x="1145" y="744" on="1"/>
        <pt x="442" y="744" on="1"/>
        <pt x="442" y="0" on="1"/>
        <pt x="155" y="0" on="1"/>
        <pt x="155" y="1602" on="1"/>
        <pt x="442" y="1602" on="1"/>
        <pt x="442" y="918" on="1"/>
        <pt x="1145" y="918" on="1"/>
        <pt x="1145" y="1602" on="1"/>
        <pt x="1432" y="1602" on="1"/>
        <pt x="1432" y="998" on="1"/>
        <pt x="1544" y="998" on="1"/>
        <pt x="1737" y="998" on="0"/>
        <pt x="2023" y="945" on="0"/>
        <pt x="2213" y="827" on="0"/>
        <pt x="2307" y="640" on="0"/>
        <pt x="2307" y="507" on="1"/>
        <pt x="2307" y="357" on="0"/>
        <pt x="2206" y="161" on="0"/>
        <pt x="2017" y="46" on="0"/>
        <pt x="1746" y="0" on="0"/>
        <pt x="1575" y="0" on="1"/>
        <pt x="1145" y="0" on="1"/>
      </contour>
    </TTGlyph>
    <TTGlyph name="afii10060" xMin="30" yMin="0" xMax="1514" yMax="1602">
      <contour>
        <pt x="742" y="0" on="1"/>
        <pt x="454" y="0" on="1"/>
        <pt x="454" y="1410" on="1"/>
        <pt x="30" y="1410" on="1"/>
        <pt x="30" y="1602" on="1"/>
        <pt x="1192" y="1602" on="1"/>
        <pt x="1192" y="1410" on="1"/>
        <pt x="741" y="1410" on="1"/>
        <pt x="741" y="997" on="1"/>
        <pt x="1106" y="997" on="1"/>
        <pt x="1201" y="997" on="0"/>
        <pt x="1353" y="939" on="0"/>
        <pt x="1458" y="820" on="0"/>
        <pt x="1514" y="641" on="0"/>
        <pt x="1514" y="521" on="1"/>
        <pt x="1514" y="0" on="1"/>
        <pt x="1236" y="0" on="1"/>
        <pt x="1236" y="460" on="1"/>
        <pt x="1236" y="552" on="0"/>
        <pt x="1213" y="682" on="0"/>
        <pt x="1165" y="765" on="0"/>
        <pt x="1090" y="804" on="0"/>
        <pt x="1039" y="804" on="1"/>
        <pt x="742" y="804" on="1"/>
      </contour>
    </TTGlyph>
    <TTGlyph name="afii10061" xMin="155" yMin="0" xMax="1423" yMax="2376">
      <contour>
        <pt x="442" y="0" on="1"/>
        <pt x="155" y="0" on="1"/>
        <pt x="155" y="1602" on="1"/>
        <pt x="442" y="1602" on="1"/>
        <pt x="442" y="891" on="1"/>
        <pt x="596" y="891" on="1"/>
        <pt x="1072" y="1602" on="1"/>
        <pt x="1362" y="1602" on="1"/>
        <pt x="995" y="1060" on="1"/>
        <pt x="954" y="1000" on="0"/>
        <pt x="890" y="914" on="0"/>
        <pt x="830" y="855" on="0"/>
        <pt x="768" y="819" on="0"/>
        <pt x="731" y="809" on="1"/>
        <pt x="770" y="800" on="0"/>
        <pt x="837" y="761" on="0"/>
        <pt x="900" y="701" on="0"/>
        <pt x="963" y="622" on="0"/>
        <pt x="998" y="575" on="1"/>
        <pt x="1423" y="0" on="1"/>
        <pt x="1124" y="0" on="1"/>
        <pt x="588" y="721" on="1"/>
        <pt x="442" y="721" on="1"/>
      </contour>
      <contour>
        <pt x="655" y="1755" on="1"/>
        <pt x="839" y="2376" on="1"/>
        <pt x="1116" y="2256" on="1"/>
        <pt x="764" y="1704" on="1"/>
      </contour>
    </TTGlyph>
    <TTGlyph name="afii10062" xMin="-39" yMin="-60" xMax="1179" yMax="1957">
      <component glyphName="uni0306" x="53" y="1527" flags="0x1004"/>
      <component glyphName="afii10037" x="-26" y="0" flags="0x1004"/>
    </TTGlyph>
    <TTGlyph name="afii10065" xMin="104" yMin="-23" xMax="1118" yMax="1211">
      <component glyphName="a" x="16" y="0" flags="0x1004"/>
    </TTGlyph>
    <TTGlyph name="afii10066" xMin="90" yMin="-24" xMax="1149" yMax="1641">
      <contour>
        <pt x="358" y="607" on="1"/>
        <pt x="358" y="520" on="0"/>
        <pt x="381" y="358" on="0"/>
        <pt x="439" y="235" on="0"/>
        <pt x="540" y="161" on="0"/>
        <pt x="620" y="161" on="1"/>
        <pt x="756" y="161" on="0"/>
        <pt x="881" y="376" on="0"/>
        <pt x="881" y="580" on="1"/>
        <pt x="881" y="693" on="0"/>
        <pt x="849" y="846" on="0"/>
        <pt x="787" y="939" on="0"/>
        <pt x="697" y="979" on="0"/>
        <pt x="639" y="979" on="1"/>
        <pt x="560" y="979" on="0"/>
        <pt x="433" y="910" on="0"/>
        <pt x="383" y="847" on="1"/>
        <pt x="370" y="790" on="0"/>
        <pt x="358" y="670" on="0"/>
      </contour>
      <contour>
        <pt x="618" y="-24" on="1"/>
        <pt x="509" y="-24" on="0"/>
        <pt x="317" y="50" on="0"/>
        <pt x="173" y="215" on="0"/>
        <pt x="90" y="481" on="0"/>
        <pt x="90" y="673" on="1"/>
        <pt x="90" y="852" on="0"/>
        <pt x="130" y="1122" on="0"/>
        <pt x="201" y="1318" on="0"/>
        <pt x="299" y="1446" on="0"/>
        <pt x="417" y="1523" on="0"/>
        <pt x="551" y="1554" on="0"/>
        <pt x="622" y="1554" on="1"/>
        <pt x="635" y="1554" on="0"/>
        <pt x="670" y="1554" on="0"/>
        <pt x="706" y="1554" on="0"/>
        <pt x="739" y="1553" on="0"/>
        <pt x="751" y="1553" on="1"/>
        <pt x="787" y="1553" on="0"/>
        <pt x="834" y="1561" on="0"/>
        <pt x="863" y="1581" on="0"/>
        <pt x="875" y="1615" on="0"/>
        <pt x="875" y="1641" on="1"/>
        <pt x="1094" y="1641" on="1"/>
        <pt x="1094" y="1563" on="0"/>
        <pt x="1052" y="1466" on="0"/>
        <pt x="972" y="1410" on="0"/>
        <pt x="857" y="1390" on="0"/>
        <pt x="784" y="1390" on="1"/>
        <pt x="730" y="1390" on="1"/>
        <pt x="681" y="1390" on="0"/>
        <pt x="587" y="1381" on="0"/>
        <pt x="502" y="1352" on="0"/>
        <pt x="429" y="1299" on="0"/>
        <pt x="374" y="1212" on="0"/>
        <pt x="339" y="1085" on="0"/>
        <pt x="335" y="998" on="1"/>
        <pt x="359" y="1032" on="0"/>
        <pt x="435" y="1092" on="0"/>
        <pt x="529" y="1137" on="0"/>
        <pt x="636" y="1162" on="0"/>
        <pt x="692" y="1162" on="1"/>
        <pt x="781" y="1162" on="0"/>
        <pt x="946" y="1101" on="0"/>
        <pt x="1073" y="963" on="0"/>
        <pt x="1149" y="739" on="0"/>
        <pt x="1149" y="576" on="1"/>
        <pt x="1149" y="415" on="0"/>
        <pt x="1057" y="188" on="0"/>
        <pt x="907" y="43" on="0"/>
        <pt x="716" y="-24" on="0"/>
      </contour>
    </TTGlyph>
    <TTGlyph name="afii10067" xMin="152" yMin="0" xMax="1097" yMax="1181">
      <contour>
        <pt x="545" y="179" on="1"/>
        <pt x="621" y="179" on="0"/>
        <pt x="729" y="197" on="0"/>
        <pt x="799" y="237" on="0"/>
        <pt x="832" y="300" on="0"/>
        <pt x="832" y="345" on="1"/>
        <pt x="832" y="414" on="0"/>
        <pt x="770" y="487" on="0"/>
        <pt x="660" y="521" on="0"/>
        <pt x="510" y="527" on="0"/>
        <pt x="423" y="528" on="1"/>
        <pt x="423" y="179" on="1"/>
      </contour>
      <contour>
        <pt x="423" y="691" on="1"/>
        <pt x="526" y="692" on="0"/>
        <pt x="676" y="699" on="0"/>
        <pt x="774" y="730" on="0"/>
        <pt x="822" y="794" on="0"/>
        <pt x="822" y="852" on="1"/>
        <pt x="822" y="930" on="0"/>
        <pt x="686" y="1003" on="0"/>
        <pt x="532" y="1003" on="1"/>
        <pt x="423" y="1003" on="1"/>
      </contour>
      <contour>
        <pt x="152" y="1181" on="1"/>
        <pt x="584" y="1181" on="1"/>
        <pt x="829" y="1181" on="0"/>
        <pt x="1079" y="1018" on="0"/>
        <pt x="1079" y="864" on="1"/>
        <pt x="1079" y="798" on="0"/>
        <pt x="1036" y="703" on="0"/>
        <pt x="964" y="640" on="0"/>
        <pt x="872" y="608" on="0"/>
        <pt x="823" y="606" on="1"/>
        <pt x="882" y="600" on="0"/>
        <pt x="983" y="556" on="0"/>
        <pt x="1056" y="485" on="0"/>
        <pt x="1097" y="386" on="0"/>
        <pt x="1097" y="324" on="1"/>
        <pt x="1097" y="163" on="0"/>
        <pt x="828" y="0" on="0"/>
        <pt x="579" y="0" on="1"/>
        <pt x="152" y="0" on="1"/>
      </contour>
    </TTGlyph>
    <TTGlyph name="afii10068" xMin="152" yMin="0" xMax="963" yMax="1182">
      <contour>
        <pt x="152" y="0" on="1"/>
        <pt x="152" y="1182" on="1"/>
        <pt x="963" y="1182" on="1"/>
        <pt x="963" y="996" on="1"/>
        <pt x="427" y="996" on="1"/>
        <pt x="427" y="0" on="1"/>
      </contour>
    </TTGlyph>
    <TTGlyph name="afii10069" xMin="57" yMin="-330" xMax="1411" yMax="1182">
      <contour>
        <pt x="57" y="169" on="1"/>
        <pt x="105" y="179" on="0"/>
        <pt x="183" y="239" on="0"/>
        <pt x="243" y="319" on="0"/>
        <pt x="283" y="410" on="0"/>
        <pt x="294" y="453" on="1"/>
        <pt x="316" y="543" on="0"/>
        <pt x="343" y="724" on="0"/>
        <pt x="362" y="907" on="0"/>
        <pt x="378" y="1090" on="0"/>
        <pt x="390" y="1182" on="1"/>
        <pt x="1215" y="1182" on="1"/>
        <pt x="1215" y="175" on="1"/>
        <pt x="1411" y="175" on="1"/>
        <pt x="1411" y="-330" on="1"/>
        <pt x="1163" y="-330" on="1"/>
        <pt x="1163" y="0" on="1"/>
        <pt x="307" y="0" on="1"/>
        <pt x="307" y="-330" on="1"/>
        <pt x="57" y="-330" on="1"/>
      </contour>
      <contour>
        <pt x="939" y="996" on="1"/>
        <pt x="620" y="996" on="1"/>
        <pt x="558" y="509" on="1"/>
        <pt x="551" y="452" on="0"/>
        <pt x="533" y="356" on="0"/>
        <pt x="510" y="275" on="0"/>
        <pt x="480" y="206" on="0"/>
        <pt x="460" y="176" on="1"/>
        <pt x="939" y="176" on="1"/>
      </contour>
    </TTGlyph>
    <TTGlyph name="afii10070" xMin="88" yMin="-23" xMax="1110" yMax="1211">
      <component glyphName="e" x="0" y="0" flags="0x1204"/>
    </TTGlyph>
    <TTGlyph name="afii10071" xMin="88" yMin="-23" xMax="1110" yMax="1559">
      <component glyphName="e" x="0" y="0" flags="0x1004"/>
      <component glyphName="dieresis" x="61" y="1088" flags="0x1004"/>
    </TTGlyph>
    <TTGlyph name="afii10072" xMin="41" yMin="-4" xMax="1719" yMax="1182">
      <contour>
        <pt x="753" y="0" on="1"/>
        <pt x="753" y="502" on="1"/>
        <pt x="620" y="502" on="1"/>
        <pt x="353" y="0" on="1"/>
        <pt x="48" y="0" on="1"/>
        <pt x="331" y="453" on="1"/>
        <pt x="367" y="511" on="0"/>
        <pt x="463" y="582" on="0"/>
        <pt x="518" y="593" on="1"/>
        <pt x="485" y="596" on="0"/>
        <pt x="427" y="624" on="0"/>
        <pt x="375" y="673" on="0"/>
        <pt x="325" y="741" on="0"/>
        <pt x="298" y="783" on="1"/>
        <pt x="41" y="1182" on="1"/>
        <pt x="353" y="1182" on="1"/>
        <pt x="621" y="695" on="1"/>
        <pt x="753" y="695" on="1"/>
        <pt x="753" y="1182" on="1"/>
        <pt x="1006" y="1182" on="1"/>
        <pt x="1006" y="696" on="1"/>
        <pt x="1139" y="696" on="1"/>
        <pt x="1407" y="1182" on="1"/>
        <pt x="1719" y="1182" on="1"/>
        <pt x="1462" y="783" on="1"/>
        <pt x="1409" y="698" on="0"/>
        <pt x="1308" y="599" on="0"/>
        <pt x="1242" y="593" on="1"/>
        <pt x="1296" y="582" on="0"/>
        <pt x="1394" y="510" on="0"/>
        <pt x="1429" y="453" on="1"/>
        <pt x="1713" y="-4" on="1"/>
        <pt x="1399" y="-4" on="1"/>
        <pt x="1143" y="503" on="1"/>
        <pt x="1006" y="503" on="1"/>
        <pt x="1006" y="0" on="1"/>
      </contour>
    </TTGlyph>
    <TTGlyph name="afii10073" xMin="128" yMin="-23" xMax="1010" yMax="1210">
      <contour>
        <pt x="280" y="701" on="1"/>
        <pt x="397" y="701" on="0"/>
        <pt x="570" y="709" on="0"/>
        <pt x="685" y="744" on="0"/>
        <pt x="742" y="816" on="0"/>
        <pt x="742" y="881" on="1"/>
        <pt x="742" y="925" on="0"/>
        <pt x="702" y="980" on="0"/>
        <pt x="633" y="1010" on="0"/>
        <pt x="541" y="1021" on="0"/>
        <pt x="488" y="1021" on="1"/>
        <pt x="436" y="1021" on="0"/>
        <pt x="330" y="999" on="0"/>
        <pt x="245" y="973" on="0"/>
        <pt x="192" y="951" on="0"/>
        <pt x="192" y="950" on="1"/>
        <pt x="141" y="1130" on="1"/>
        <pt x="165" y="1144" on="0"/>
        <pt x="248" y="1172" on="0"/>
        <pt x="353" y="1195" on="0"/>
        <pt x="474" y="1210" on="0"/>
        <pt x="537" y="1210" on="1"/>
        <pt x="637" y="1210" on="0"/>
        <pt x="804" y="1174" on="0"/>
        <pt x="925" y="1099" on="0"/>
        <pt x="993" y="980" on="0"/>
        <pt x="993" y="898" on="1"/>
        <pt x="993" y="817" on="0"/>
        <pt x="940" y="711" on="0"/>
        <pt x="865" y="645" on="0"/>
        <pt x="785" y="613" on="0"/>
        <pt x="757" y="606" on="1"/>
        <pt x="775" y="603" on="0"/>
        <pt x="827" y="588" on="0"/>
        <pt x="883" y="559" on="0"/>
        <pt x="939" y="516" on="0"/>
        <pt x="983" y="452" on="0"/>
        <pt x="1010" y="367" on="0"/>
        <pt x="1010" y="311" on="1"/>
        <pt x="1010" y="231" on="0"/>
        <pt x="943" y="107" on="0"/>
        <pt x="821" y="22" on="0"/>
        <pt x="650" y="-23" on="0"/>
        <pt x="546" y="-23" on="1"/>
        <pt x="477" y="-23" on="0"/>
        <pt x="347" y="-6" on="0"/>
        <pt x="236" y="21" on="0"/>
        <pt x="151" y="54" on="0"/>
        <pt x="128" y="69" on="1"/>
        <pt x="181" y="248" on="1"/>
        <pt x="194" y="239" on="0"/>
        <pt x="263" y="210" on="0"/>
        <pt x="358" y="183" on="0"/>
        <pt x="467" y="164" on="0"/>
        <pt x="521" y="164" on="1"/>
        <pt x="624" y="164" on="0"/>
        <pt x="746" y="240" on="0"/>
        <pt x="751" y="330" on="1"/>
        <pt x="751" y="392" on="0"/>
        <pt x="701" y="465" on="0"/>
        <pt x="589" y="503" on="0"/>
        <pt x="410" y="514" on="0"/>
        <pt x="280" y="514" on="1"/>
      </contour>
    </TTGlyph>
    <TTGlyph name="afii10074" xMin="152" yMin="0" xMax="1296" yMax="1182">
      <contour>
        <pt x="1296" y="0" on="1"/>
        <pt x="1037" y="0" on="1"/>
        <pt x="1037" y="886" on="1"/>
        <pt x="415" y="125" on="1"/>
        <pt x="415" y="0" on="1"/>
        <pt x="152" y="0" on="1"/>
        <pt x="152" y="1182" on="1"/>
        <pt x="412" y="1182" on="1"/>
        <pt x="412" y="437" on="1"/>
        <pt x="1005" y="1182" on="1"/>
        <pt x="1296" y="1182" on="1"/>
      </contour>
    </TTGlyph>
    <TTGlyph name="afii10075" xMin="152" yMin="0" xMax="1296" yMax="1566">
      <component glyphName="uni0306" x="212" y="1136" flags="0x1004"/>
      <component glyphName="afii10074" x="0" y="0" flags="0x1004"/>
    </TTGlyph>
    <TTGlyph name="afii10076" xMin="152" yMin="0" xMax="1221" yMax="1182">
      <contour>
        <pt x="412" y="1182" on="1"/>
        <pt x="412" y="694" on="1"/>
        <pt x="524" y="694" on="1"/>
        <pt x="905" y="1182" on="1"/>
        <pt x="1221" y="1182" on="1"/>
        <pt x="906" y="795" on="1"/>
        <pt x="883" y="767" on="0"/>
        <pt x="819" y="698" on="0"/>
        <pt x="745" y="637" on="0"/>
        <pt x="664" y="595" on="0"/>
        <pt x="625" y="593" on="1"/>
        <pt x="651" y="587" on="0"/>
        <pt x="710" y="566" on="0"/>
        <pt x="771" y="531" on="0"/>
        <pt x="834" y="480" on="0"/>
        <pt x="863" y="443" on="1"/>
        <pt x="1214" y="0" on="1"/>
        <pt x="905" y="0" on="1"/>
        <pt x="525" y="503" on="1"/>
        <pt x="412" y="503" on="1"/>
        <pt x="412" y="0" on="1"/>
        <pt x="152" y="0" on="1"/>
        <pt x="152" y="1182" on="1"/>
      </contour>
    </TTGlyph>
    <TTGlyph name="afii10077" xMin="45" yMin="-10" xMax="1305" yMax="1182">
      <contour>
        <pt x="1305" y="0" on="1"/>
        <pt x="1030" y="0" on="1"/>
        <pt x="1030" y="996" on="1"/>
        <pt x="612" y="996" on="1"/>
        <pt x="582" y="571" on="1"/>
        <pt x="571" y="430" on="0"/>
        <pt x="513" y="214" on="0"/>
        <pt x="392" y="66" on="0"/>
        <pt x="195" y="-10" on="0"/>
        <pt x="45" y="-10" on="1"/>
        <pt x="45" y="213" on="1"/>
        <pt x="104" y="213" on="0"/>
        <pt x="200" y="246" on="0"/>
        <pt x="270" y="317" on="0"/>
        <pt x="313" y="427" on="0"/>
        <pt x="319" y="505" on="1"/>
        <pt x="368" y="1182" on="1"/>
        <pt x="1305" y="1182" on="1"/>
      </contour>
    </TTGlyph>
    <TTGlyph name="afii10078" xMin="152" yMin="0" xMax="1562" yMax="1182">
      <contour>
        <pt x="1562" y="1182" on="1"/>
        <pt x="1562" y="0" on="1"/>
        <pt x="1321" y="0" on="1"/>
        <pt x="1321" y="946" on="1"/>
        <pt x="985" y="0" on="1"/>
        <pt x="726" y="0" on="1"/>
        <pt x="393" y="946" on="1"/>
        <pt x="393" y="0" on="1"/>
        <pt x="152" y="0" on="1"/>
        <pt x="152" y="1182" on="1"/>
        <pt x="532" y="1182" on="1"/>
        <pt x="858" y="273" on="1"/>
        <pt x="1182" y="1182" on="1"/>
      </contour>
    </TTGlyph>
    <TTGlyph name="afii10079" xMin="152" yMin="0" xMax="1257" yMax="1182">
      <contour>
        <pt x="425" y="712" on="1"/>
        <pt x="980" y="712" on="1"/>
        <pt x="980" y="1182" on="1"/>
        <pt x="1257" y="1182" on="1"/>
        <pt x="1257" y="0" on="1"/>
        <pt x="982" y="0" on="1"/>
        <pt x="982" y="535" on="1"/>
        <pt x="427" y="535" on="1"/>
        <pt x="427" y="0" on="1"/>
        <pt x="152" y="0" on="1"/>
        <pt x="152" y="1182" on="1"/>
        <pt x="425" y="1182" on="1"/>
      </contour>
    </TTGlyph>
    <TTGlyph name="afii10080" xMin="88" yMin="-32" xMax="1204" yMax="1204">
      <component glyphName="o" x="3" y="0" flags="0x1204"/>
    </TTGlyph>
    <TTGlyph name="afii10081" xMin="152" yMin="0" xMax="1257" yMax="1182">
      <contour>
        <pt x="1257" y="0" on="1"/>
        <pt x="981" y="0" on="1"/>
        <pt x="981" y="996" on="1"/>
        <pt x="427" y="996" on="1"/>
        <pt x="427" y="0" on="1"/>
        <pt x="152" y="0" on="1"/>
        <pt x="152" y="1182" on="1"/>
        <pt x="1257" y="1182" on="1"/>
      </contour>
    </TTGlyph>
    <TTGlyph name="afii10082" xMin="152" yMin="-453" xMax="1232" yMax="1211">
      <component glyphName="p" x="0" y="0" flags="0x1204"/>
    </TTGlyph>
    <TTGlyph name="afii10083" xMin="88" yMin="-23" xMax="1034" yMax="1211">
      <component glyphName="c" x="0" y="0" flags="0x1004"/>
    </TTGlyph>
    <TTGlyph name="afii10084" xMin="44" yMin="0" xMax="1086" yMax="1182">
      <contour>
        <pt x="1086" y="996" on="1"/>
        <pt x="697" y="996" on="1"/>
        <pt x="697" y="0" on="1"/>
        <pt x="422" y="0" on="1"/>
        <pt x="422" y="996" on="1"/>
        <pt x="44" y="996" on="1"/>
        <pt x="44" y="1182" on="1"/>
        <pt x="1086" y="1182" on="1"/>
      </contour>
    </TTGlyph>
    <TTGlyph name="afii10085" xMin="24" yMin="-471" xMax="1149" yMax="1182">
      <component glyphName="y" x="0" y="0" flags="0x1204"/>
    </TTGlyph>
    <TTGlyph name="afii10086" xMin="88" yMin="-48" xMax="1410" yMax="1227">
      <contour>
        <pt x="626" y="1227" on="1"/>
        <pt x="872" y="1227" on="1"/>
        <pt x="872" y="1117" on="1"/>
        <pt x="984" y="1117" on="0"/>
        <pt x="1180" y="1055" on="0"/>
        <pt x="1326" y="926" on="0"/>
        <pt x="1410" y="726" on="0"/>
        <pt x="1410" y="589" on="1"/>
        <pt x="1410" y="458" on="0"/>
        <pt x="1325" y="261" on="0"/>
        <pt x="1182" y="131" on="0"/>
        <pt x="994" y="66" on="0"/>
        <pt x="890" y="66" on="1"/>
        <pt x="885" y="66" on="0"/>
        <pt x="877" y="67" on="0"/>
        <pt x="872" y="67" on="1"/>
        <pt x="872" y="-48" on="1"/>
        <pt x="626" y="-48" on="1"/>
        <pt x="626" y="67" on="1"/>
        <pt x="516" y="67" on="0"/>
        <pt x="321" y="129" on="0"/>
        <pt x="174" y="258" on="0"/>
        <pt x="88" y="455" on="0"/>
        <pt x="88" y="591" on="1"/>
        <pt x="88" y="723" on="0"/>
        <pt x="169" y="920" on="0"/>
        <pt x="309" y="1051" on="0"/>
        <pt x="499" y="1117" on="0"/>
        <pt x="607" y="1117" on="1"/>
        <pt x="626" y="1117" on="1"/>
      </contour>
      <contour>
        <pt x="626" y="928" on="1"/>
        <pt x="564" y="928" on="0"/>
        <pt x="465" y="894" on="0"/>
        <pt x="396" y="815" on="0"/>
        <pt x="359" y="687" on="0"/>
        <pt x="359" y="593" on="1"/>
        <pt x="359" y="497" on="0"/>
        <pt x="396" y="368" on="0"/>
        <pt x="465" y="289" on="0"/>
        <pt x="564" y="256" on="0"/>
        <pt x="626" y="256" on="1"/>
      </contour>
      <contour>
        <pt x="872" y="256" on="1"/>
        <pt x="932" y="256" on="0"/>
        <pt x="1031" y="290" on="0"/>
        <pt x="1101" y="368" on="0"/>
        <pt x="1139" y="497" on="0"/>
        <pt x="1139" y="593" on="1"/>
        <pt x="1139" y="684" on="0"/>
        <pt x="1103" y="811" on="0"/>
        <pt x="1034" y="891" on="0"/>
        <pt x="935" y="928" on="0"/>
        <pt x="872" y="928" on="1"/>
      </contour>
    </TTGlyph>
    <TTGlyph name="afii10087" xMin="41" yMin="0" xMax="1137" yMax="1182">
      <component glyphName="x" x="4" y="0" flags="0x1004"/>
    </TTGlyph>
    <TTGlyph name="afii10088" xMin="152" yMin="-419" xMax="1342" yMax="1182">
      <contour>
        <pt x="152" y="1182" on="1"/>
        <pt x="427" y="1182" on="1"/>
        <pt x="427" y="176" on="1"/>
        <pt x="953" y="176" on="1"/>
        <pt x="953" y="1182" on="1"/>
        <pt x="1228" y="1182" on="1"/>
        <pt x="1228" y="80" on="1"/>
        <pt x="1342" y="80" on="1"/>
        <pt x="1342" y="-419" on="1"/>
        <pt x="1093" y="-419" on="1"/>
        <pt x="1093" y="0" on="1"/>
        <pt x="152" y="0" on="1"/>
      </contour>
    </TTGlyph>
    <TTGlyph name="afii10089" xMin="134" yMin="0" xMax="1149" yMax="1182">
      <contour>
        <pt x="407" y="810" on="1"/>
        <pt x="407" y="746" on="0"/>
        <pt x="427" y="647" on="0"/>
        <pt x="473" y="580" on="0"/>
        <pt x="547" y="545" on="0"/>
        <pt x="600" y="545" on="1"/>
        <pt x="675" y="545" on="0"/>
        <pt x="805" y="599" on="0"/>
        <pt x="873" y="664" on="1"/>
        <pt x="873" y="1182" on="1"/>
        <pt x="1149" y="1182" on="1"/>
        <pt x="1149" y="0" on="1"/>
        <pt x="877" y="0" on="1"/>
        <pt x="877" y="550" on="1"/>
        <pt x="877" y="508" on="0"/>
        <pt x="812" y="434" on="0"/>
        <pt x="727" y="379" on="0"/>
        <pt x="624" y="348" on="0"/>
        <pt x="564" y="348" on="1"/>
        <pt x="352" y="348" on="0"/>
        <pt x="134" y="578" on="0"/>
        <pt x="134" y="823" on="1"/>
        <pt x="134" y="1182" on="1"/>
        <pt x="407" y="1182" on="1"/>
      </contour>
    </TTGlyph>
    <TTGlyph name="afii10090" xMin="152" yMin="0" xMax="1683" yMax="1182">
      <contour>
        <pt x="152" y="1182" on="1"/>
        <pt x="427" y="1182" on="1"/>
        <pt x="427" y="177" on="1"/>
        <pt x="783" y="177" on="1"/>
        <pt x="783" y="1182" on="1"/>
        <pt x="1057" y="1182" on="1"/>
        <pt x="1057" y="177" on="1"/>
        <pt x="1409" y="177" on="1"/>
        <pt x="1409" y="1182" on="1"/>
        <pt x="1683" y="1182" on="1"/>
        <pt x="1683" y="0" on="1"/>
        <pt x="152" y="0" on="1"/>
      </contour>
    </TTGlyph>
    <TTGlyph name="afii10091" xMin="152" yMin="-342" xMax="1922" yMax="1182">
      <contour>
        <pt x="1922" y="-342" on="1"/>
        <pt x="1657" y="-342" on="1"/>
        <pt x="1657" y="0" on="1"/>
        <pt x="152" y="0" on="1"/>
        <pt x="152" y="1182" on="1"/>
        <pt x="427" y="1182" on="1"/>
        <pt x="427" y="178" on="1"/>
        <pt x="829" y="178" on="1"/>
        <pt x="829" y="1182" on="1"/>
        <pt x="1102" y="1182" on="1"/>
        <pt x="1102" y="178" on="1"/>
        <pt x="1498" y="178" on="1"/>
        <pt x="1498" y="1182" on="1"/>
        <pt x="1772" y="1182" on="1"/>
        <pt x="1772" y="178" on="1"/>
        <pt x="1922" y="178" on="1"/>
      </contour>
    </TTGlyph>
    <TTGlyph name="afii10092" xMin="38" yMin="0" xMax="1380" yMax="1182">
      <contour>
        <pt x="361" y="0" on="1"/>
        <pt x="361" y="996" on="1"/>
        <pt x="38" y="996" on="1"/>
        <pt x="38" y="1182" on="1"/>
        <pt x="637" y="1182" on="1"/>
        <pt x="637" y="835" on="1"/>
        <pt x="814" y="835" on="0"/>
        <pt x="1090" y="803" on="0"/>
        <pt x="1280" y="713" on="0"/>
        <pt x="1380" y="553" on="0"/>
        <pt x="1380" y="426" on="1"/>
        <pt x="1380" y="326" on="0"/>
        <pt x="1330" y="185" on="0"/>
        <pt x="1240" y="90" on="0"/>
        <pt x="1115" y="35" on="0"/>
        <pt x="964" y="7" on="0"/>
        <pt x="793" y="0" on="0"/>
        <pt x="703" y="0" on="1"/>
      </contour>
      <contour>
        <pt x="1100" y="416" on="1"/>
        <pt x="1100" y="502" on="0"/>
        <pt x="1049" y="596" on="0"/>
        <pt x="937" y="640" on="0"/>
        <pt x="761" y="648" on="0"/>
        <pt x="637" y="648" on="1"/>
        <pt x="637" y="185" on="1"/>
        <pt x="752" y="185" on="1"/>
        <pt x="791" y="185" on="0"/>
        <pt x="873" y="189" on="0"/>
        <pt x="950" y="204" on="0"/>
        <pt x="1019" y="233" on="0"/>
        <pt x="1070" y="284" on="0"/>
        <pt x="1100" y="361" on="0"/>
      </contour>
    </TTGlyph>
    <TTGlyph name="afii10093" xMin="152" yMin="0" xMax="1712" yMax="1182">
      <contour>
        <pt x="1441" y="0" on="1"/>
        <pt x="1441" y="1182" on="1"/>
        <pt x="1712" y="1182" on="1"/>
        <pt x="1712" y="0" on="1"/>
      </contour>
      <contour>
        <pt x="890" y="416" on="1"/>
        <pt x="890" y="502" on="0"/>
        <pt x="839" y="596" on="0"/>
        <pt x="728" y="640" on="0"/>
        <pt x="552" y="648" on="0"/>
        <pt x="428" y="648" on="1"/>
        <pt x="428" y="186" on="1"/>
        <pt x="526" y="186" on="1"/>
        <pt x="622" y="186" on="0"/>
        <pt x="760" y="199" on="0"/>
        <pt x="848" y="246" on="0"/>
        <pt x="890" y="337" on="0"/>
      </contour>
      <contour>
        <pt x="152" y="0" on="1"/>
        <pt x="152" y="1180" on="1"/>
        <pt x="428" y="1180" on="1"/>
        <pt x="428" y="835" on="1"/>
        <pt x="606" y="835" on="0"/>
        <pt x="883" y="802" on="0"/>
        <pt x="1072" y="709" on="0"/>
        <pt x="1171" y="545" on="0"/>
        <pt x="1171" y="414" on="1"/>
        <pt x="1171" y="319" on="0"/>
        <pt x="1121" y="184" on="0"/>
        <pt x="1031" y="92" on="0"/>
        <pt x="905" y="37" on="0"/>
        <pt x="754" y="9" on="0"/>
        <pt x="583" y="0" on="0"/>
        <pt x="493" y="0" on="1"/>
      </contour>
    </TTGlyph>
    <TTGlyph name="afii10094" xMin="152" yMin="0" xMax="1171" yMax="1180">
      <contour>
        <pt x="890" y="416" on="1"/>
        <pt x="890" y="502" on="0"/>
        <pt x="839" y="596" on="0"/>
        <pt x="728" y="640" on="0"/>
        <pt x="552" y="648" on="0"/>
        <pt x="428" y="648" on="1"/>
        <pt x="428" y="186" on="1"/>
        <pt x="526" y="186" on="1"/>
        <pt x="622" y="186" on="0"/>
        <pt x="760" y="199" on="0"/>
        <pt x="848" y="246" on="0"/>
        <pt x="890" y="337" on="0"/>
      </contour>
      <contour>
        <pt x="152" y="0" on="1"/>
        <pt x="152" y="1180" on="1"/>
        <pt x="428" y="1180" on="1"/>
        <pt x="428" y="835" on="1"/>
        <pt x="606" y="835" on="0"/>
        <pt x="883" y="802" on="0"/>
        <pt x="1072" y="709" on="0"/>
        <pt x="1171" y="545" on="0"/>
        <pt x="1171" y="414" on="1"/>
        <pt x="1171" y="319" on="0"/>
        <pt x="1121" y="184" on="0"/>
        <pt x="1031" y="92" on="0"/>
        <pt x="905" y="37" on="0"/>
        <pt x="754" y="9" on="0"/>
        <pt x="583" y="0" on="0"/>
        <pt x="493" y="0" on="1"/>
      </contour>
    </TTGlyph>
    <TTGlyph name="afii10095" xMin="94" yMin="-24" xMax="1039" yMax="1211">
      <contour>
        <pt x="488" y="-24" on="1"/>
        <pt x="419" y="-24" on="0"/>
        <pt x="309" y="-6" on="0"/>
        <pt x="215" y="24" on="0"/>
        <pt x="133" y="65" on="0"/>
        <pt x="94" y="88" on="1"/>
        <pt x="156" y="271" on="1"/>
        <pt x="169" y="260" on="0"/>
        <pt x="222" y="225" on="0"/>
        <pt x="297" y="191" on="0"/>
        <pt x="392" y="167" on="0"/>
        <pt x="448" y="167" on="1"/>
        <pt x="587" y="167" on="0"/>
        <pt x="748" y="344" on="0"/>
        <pt x="760" y="517" on="1"/>
        <pt x="397" y="517" on="1"/>
        <pt x="397" y="677" on="1"/>
        <pt x="760" y="677" on="1"/>
        <pt x="746" y="855" on="0"/>
        <pt x="595" y="1021" on="0"/>
        <pt x="465" y="1021" on="1"/>
        <pt x="425" y="1021" on="0"/>
        <pt x="335" y="1005" on="0"/>
        <pt x="251" y="977" on="0"/>
        <pt x="178" y="939" on="0"/>
        <pt x="155" y="917" on="1"/>
        <pt x="94" y="1099" on="1"/>
        <pt x="139" y="1125" on="0"/>
        <pt x="225" y="1166" on="0"/>
        <pt x="321" y="1195" on="0"/>
        <pt x="432" y="1211" on="0"/>
        <pt x="502" y="1211" on="1"/>
        <pt x="628" y="1211" on="0"/>
        <pt x="827" y="1118" on="0"/>
        <pt x="965" y="951" on="0"/>
        <pt x="1039" y="721" on="0"/>
        <pt x="1039" y="584" on="1"/>
        <pt x="1039" y="468" on="0"/>
        <pt x="977" y="249" on="0"/>
        <pt x="844" y="79" on="0"/>
        <pt x="635" y="-24" on="0"/>
      </contour>
    </TTGlyph>
    <TTGlyph name="afii10096" xMin="152" yMin="-24" xMax="1724" yMax="1211">
      <contour>
        <pt x="1166" y="165" on="1"/>
        <pt x="1454" y="165" on="0"/>
        <pt x="1454" y="592" on="1"/>
        <pt x="1454" y="689" on="0"/>
        <pt x="1421" y="847" on="0"/>
        <pt x="1350" y="959" on="0"/>
        <pt x="1239" y="1021" on="0"/>
        <pt x="1161" y="1021" on="1"/>
        <pt x="1086" y="1021" on="0"/>
        <pt x="980" y="959" on="0"/>
        <pt x="911" y="847" on="0"/>
        <pt x="879" y="688" on="0"/>
        <pt x="879" y="592" on="1"/>
        <pt x="879" y="505" on="0"/>
        <pt x="908" y="349" on="0"/>
        <pt x="975" y="233" on="0"/>
        <pt x="1085" y="165" on="0"/>
      </contour>
      <contour>
        <pt x="1724" y="596" on="1"/>
        <pt x="1724" y="450" on="0"/>
        <pt x="1649" y="220" on="0"/>
        <pt x="1507" y="61" on="0"/>
        <pt x="1303" y="-24" on="0"/>
        <pt x="1173" y="-24" on="1"/>
        <pt x="1048" y="-24" on="0"/>
        <pt x="849" y="46" on="0"/>
        <pt x="705" y="184" on="0"/>
        <pt x="621" y="387" on="0"/>
        <pt x="611" y="520" on="1"/>
        <pt x="427" y="520" on="1"/>
        <pt x="427" y="0" on="1"/>
        <pt x="152" y="0" on="1"/>
        <pt x="152" y="1182" on="1"/>
        <pt x="425" y="1182" on="1"/>
        <pt x="425" y="697" on="1"/>
        <pt x="613" y="697" on="1"/>
        <pt x="626" y="813" on="0"/>
        <pt x="711" y="1003" on="0"/>
        <pt x="851" y="1138" on="0"/>
        <pt x="1041" y="1211" on="0"/>
        <pt x="1159" y="1211" on="1"/>
        <pt x="1301" y="1211" on="0"/>
        <pt x="1513" y="1121" on="0"/>
        <pt x="1654" y="958" on="0"/>
        <pt x="1724" y="732" on="0"/>
      </contour>
    </TTGlyph>
    <TTGlyph name="afii10097" xMin="106" yMin="0" xMax="1125" yMax="1181">
      <contour>
        <pt x="1125" y="1181" on="1"/>
        <pt x="1125" y="0" on="1"/>
        <pt x="848" y="0" on="1"/>
        <pt x="848" y="381" on="1"/>
        <pt x="787" y="381" on="0"/>
        <pt x="676" y="384" on="0"/>
        <pt x="625" y="388" on="1"/>
        <pt x="434" y="0" on="1"/>
        <pt x="113" y="0" on="1"/>
        <pt x="377" y="426" on="1"/>
        <pt x="250" y="466" on="0"/>
        <pt x="106" y="642" on="0"/>
        <pt x="106" y="789" on="1"/>
        <pt x="106" y="891" on="0"/>
        <pt x="180" y="1039" on="0"/>
        <pt x="339" y="1135" on="0"/>
        <pt x="591" y="1181" on="0"/>
        <pt x="768" y="1181" on="1"/>
      </contour>
      <contour>
        <pt x="383" y="789" on="1"/>
        <pt x="383" y="712" on="0"/>
        <pt x="437" y="624" on="0"/>
        <pt x="550" y="579" on="0"/>
        <pt x="726" y="567" on="0"/>
        <pt x="848" y="567" on="1"/>
        <pt x="848" y="994" on="1"/>
        <pt x="725" y="994" on="1"/>
        <pt x="657" y="994" on="0"/>
        <pt x="533" y="980" on="0"/>
        <pt x="439" y="936" on="0"/>
        <pt x="383" y="855" on="0"/>
      </contour>
    </TTGlyph>
    <TTGlyph name="afii10099" xMin="16" yMin="-402" xMax="1224" yMax="1698">
      <contour>
        <pt x="450" y="1494" on="1"/>
        <pt x="1037" y="1494" on="1"/>
        <pt x="1037" y="1349" on="1"/>
        <pt x="450" y="1349" on="1"/>
        <pt x="450" y="1039" on="1"/>
        <pt x="492" y="1087" on="0"/>
        <pt x="574" y="1152" on="0"/>
        <pt x="661" y="1193" on="0"/>
        <pt x="754" y="1211" on="0"/>
        <pt x="807" y="1211" on="1"/>
        <pt x="916" y="1211" on="0"/>
        <pt x="1074" y="1142" on="0"/>
        <pt x="1176" y="1016" on="0"/>
        <pt x="1224" y="842" on="0"/>
        <pt x="1224" y="737" on="1"/>
        <pt x="1224" y="312" on="1"/>
        <pt x="1224" y="181" on="0"/>
        <pt x="1207" y="-22" on="0"/>
        <pt x="1165" y="-175" on="0"/>
        <pt x="1095" y="-282" on="0"/>
        <pt x="989" y="-353" on="0"/>
        <pt x="844" y="-393" on="0"/>
        <pt x="749" y="-402" on="1"/>
        <pt x="696" y="-189" on="1"/>
        <pt x="778" y="-185" on="0"/>
        <pt x="877" y="-141" on="0"/>
        <pt x="930" y="-33" on="0"/>
        <pt x="947" y="156" on="0"/>
        <pt x="947" y="307" on="1"/>
        <pt x="947" y="748" on="1"/>
        <pt x="947" y="810" on="0"/>
        <pt x="923" y="911" on="0"/>
        <pt x="874" y="983" on="0"/>
        <pt x="800" y="1022" on="0"/>
        <pt x="751" y="1022" on="1"/>
        <pt x="692" y="1022" on="0"/>
        <pt x="593" y="993" on="0"/>
        <pt x="515" y="952" on="0"/>
        <pt x="462" y="911" on="0"/>
        <pt x="450" y="899" on="1"/>
        <pt x="450" y="0" on="1"/>
        <pt x="175" y="0" on="1"/>
        <pt x="175" y="1349" on="1"/>
        <pt x="16" y="1349" on="1"/>
        <pt x="16" y="1493" on="1"/>
        <pt x="175" y="1493" on="1"/>
        <pt x="175" y="1648" on="1"/>
        <pt x="450" y="1698" on="1"/>
      </contour>
    </TTGlyph>
    <TTGlyph name="afii10100" xMin="152" yMin="0" xMax="963" yMax="2000">
      <contour>
        <pt x="152" y="0" on="1"/>
        <pt x="152" y="1182" on="1"/>
        <pt x="963" y="1182" on="1"/>
        <pt x="963" y="996" on="1"/>
        <pt x="427" y="996" on="1"/>
        <pt x="427" y="0" on="1"/>
      </contour>
      <contour>
        <pt x="470" y="1379" on="1"/>
        <pt x="654" y="2000" on="1"/>
        <pt x="931" y="1880" on="1"/>
        <pt x="579" y="1328" on="1"/>
      </contour>
    </TTGlyph>
    <TTGlyph name="afii10101" xMin="94" yMin="-24" xMax="1039" yMax="1211">
      <contour>
        <pt x="645" y="-24" on="1"/>
        <pt x="498" y="-24" on="0"/>
        <pt x="289" y="79" on="0"/>
        <pt x="156" y="249" on="0"/>
        <pt x="94" y="468" on="0"/>
        <pt x="94" y="584" on="1"/>
        <pt x="94" y="721" on="0"/>
        <pt x="168" y="951" on="0"/>
        <pt x="306" y="1118" on="0"/>
        <pt x="505" y="1211" on="0"/>
        <pt x="631" y="1211" on="1"/>
        <pt x="701" y="1211" on="0"/>
        <pt x="812" y="1195" on="0"/>
        <pt x="908" y="1166" on="0"/>
        <pt x="994" y="1125" on="0"/>
        <pt x="1039" y="1099" on="1"/>
        <pt x="978" y="917" on="1"/>
        <pt x="955" y="939" on="0"/>
        <pt x="882" y="977" on="0"/>
        <pt x="798" y="1005" on="0"/>
        <pt x="708" y="1021" on="0"/>
        <pt x="668" y="1021" on="1"/>
        <pt x="538" y="1021" on="0"/>
        <pt x="387" y="855" on="0"/>
        <pt x="373" y="677" on="1"/>
        <pt x="736" y="677" on="1"/>
        <pt x="736" y="517" on="1"/>
        <pt x="373" y="517" on="1"/>
        <pt x="385" y="344" on="0"/>
        <pt x="546" y="167" on="0"/>
        <pt x="685" y="167" on="1"/>
        <pt x="741" y="167" on="0"/>
        <pt x="836" y="191" on="0"/>
        <pt x="911" y="225" on="0"/>
        <pt x="964" y="260" on="0"/>
        <pt x="977" y="271" on="1"/>
        <pt x="1039" y="88" on="1"/>
        <pt x="1000" y="65" on="0"/>
        <pt x="918" y="24" on="0"/>
        <pt x="824" y="-6" on="0"/>
        <pt x="714" y="-24" on="0"/>
      </contour>
    </TTGlyph>
    <TTGlyph name="afii10102" xMin="102" yMin="-24" xMax="992" yMax="1211">
      <component glyphName="s" x="16" y="0" flags="0x1004"/>
    </TTGlyph>
    <TTGlyph name="afii10103" xMin="176" yMin="0" xMax="486" yMax="1716">
      <component glyphName="i" x="27" y="0" flags="0x1004"/>
    </TTGlyph>
    <TTGlyph name="afii10104" xMin="-90" yMin="0" xMax="812" yMax="1650">
      <component glyphName="idieresis" x="55" y="0" flags="0x1004"/>
    </TTGlyph>
    <TTGlyph name="afii10105" xMin="5" yMin="-366" xMax="496" yMax="1714">
      <component glyphName="j" x="0" y="0" flags="0x1004"/>
    </TTGlyph>
    <TTGlyph name="afii10106" xMin="62" yMin="-10" xMax="2089" yMax="1182">
      <contour>
        <pt x="1346" y="1182" on="1"/>
        <pt x="1346" y="835" on="1"/>
        <pt x="1521" y="835" on="0"/>
        <pt x="1798" y="802" on="0"/>
        <pt x="1988" y="709" on="0"/>
        <pt x="2089" y="545" on="0"/>
        <pt x="2089" y="414" on="1"/>
        <pt x="2089" y="283" on="0"/>
        <pt x="1994" y="121" on="0"/>
        <pt x="1813" y="31" on="0"/>
        <pt x="1549" y="0" on="0"/>
        <pt x="1381" y="0" on="1"/>
        <pt x="1069" y="0" on="1"/>
        <pt x="1069" y="996" on="1"/>
        <pt x="654" y="996" on="1"/>
        <pt x="628" y="571" on="1"/>
        <pt x="619" y="433" on="0"/>
        <pt x="564" y="217" on="0"/>
        <pt x="439" y="68" on="0"/>
        <pt x="227" y="-10" on="0"/>
        <pt x="62" y="-10" on="1"/>
        <pt x="62" y="216" on="1"/>
        <pt x="132" y="217" on="0"/>
        <pt x="238" y="244" on="0"/>
        <pt x="312" y="309" on="0"/>
        <pt x="352" y="420" on="0"/>
        <pt x="357" y="505" on="1"/>
        <pt x="393" y="1182" on="1"/>
      </contour>
      <contour>
        <pt x="1811" y="414" on="1"/>
        <pt x="1811" y="473" on="0"/>
        <pt x="1785" y="553" on="0"/>
        <pt x="1734" y="605" on="0"/>
        <pt x="1657" y="633" on="0"/>
        <pt x="1554" y="645" on="0"/>
        <pt x="1424" y="647" on="0"/>
        <pt x="1346" y="647" on="1"/>
        <pt x="1346" y="185" on="1"/>
        <pt x="1486" y="185" on="1"/>
        <pt x="1559" y="185" on="0"/>
        <pt x="1679" y="196" on="0"/>
        <pt x="1765" y="242" on="0"/>
        <pt x="1811" y="333" on="0"/>
      </contour>
    </TTGlyph>
    <TTGlyph name="afii10107" xMin="152" yMin="0" xMax="1980" yMax="1182">
      <contour>
        <pt x="1702" y="414" on="1"/>
        <pt x="1702" y="499" on="0"/>
        <pt x="1652" y="593" on="0"/>
        <pt x="1542" y="638" on="0"/>
        <pt x="1365" y="647" on="0"/>
        <pt x="1239" y="647" on="1"/>
        <pt x="1239" y="185" on="1"/>
        <pt x="1364" y="185" on="0"/>
        <pt x="1540" y="193" on="0"/>
        <pt x="1651" y="237" on="0"/>
        <pt x="1702" y="330" on="0"/>
      </contour>
      <contour>
        <pt x="426" y="712" on="1"/>
        <pt x="961" y="712" on="1"/>
        <pt x="961" y="1182" on="1"/>
        <pt x="1239" y="1182" on="1"/>
        <pt x="1239" y="835" on="1"/>
        <pt x="1422" y="835" on="0"/>
        <pt x="1699" y="804" on="0"/>
        <pt x="1886" y="714" on="0"/>
        <pt x="1980" y="549" on="0"/>
        <pt x="1980" y="414" on="1"/>
        <pt x="1980" y="323" on="0"/>
        <pt x="1930" y="191" on="0"/>
        <pt x="1835" y="99" on="0"/>
        <pt x="1698" y="42" on="0"/>
        <pt x="1523" y="11" on="0"/>
        <pt x="1312" y="0" on="0"/>
        <pt x="1192" y="0" on="1"/>
        <pt x="961" y="0" on="1"/>
        <pt x="961" y="535" on="1"/>
        <pt x="428" y="535" on="1"/>
        <pt x="428" y="0" on="1"/>
        <pt x="152" y="0" on="1"/>
        <pt x="152" y="1182" on="1"/>
        <pt x="426" y="1182" on="1"/>
      </contour>
    </TTGlyph>
    <TTGlyph name="afii10108" xMin="96" yMin="0" xMax="1322" yMax="1698">
      <contour>
        <pt x="548" y="1461" on="1"/>
        <pt x="1138" y="1461" on="1"/>
        <pt x="1138" y="1305" on="1"/>
        <pt x="548" y="1305" on="1"/>
        <pt x="548" y="1039" on="1"/>
        <pt x="590" y="1087" on="0"/>
        <pt x="672" y="1152" on="0"/>
        <pt x="759" y="1193" on="0"/>
        <pt x="852" y="1211" on="0"/>
        <pt x="905" y="1211" on="1"/>
        <pt x="1004" y="1211" on="0"/>
        <pt x="1159" y="1153" on="0"/>
        <pt x="1266" y="1035" on="0"/>
        <pt x="1322" y="856" on="0"/>
        <pt x="1322" y="736" on="1"/>
        <pt x="1322" y="0" on="1"/>
        <pt x="1046" y="0" on="1"/>
        <pt x="1046" y="748" on="1"/>
        <pt x="1046" y="887" on="0"/>
        <pt x="940" y="1022" on="0"/>
        <pt x="846" y="1022" on="1"/>
        <pt x="787" y="1022" on="0"/>
        <pt x="686" y="991" on="0"/>
        <pt x="609" y="951" on="0"/>
        <pt x="558" y="909" on="0"/>
        <pt x="548" y="899" on="1"/>
        <pt x="548" y="0" on="1"/>
        <pt x="273" y="0" on="1"/>
        <pt x="273" y="1305" on="1"/>
        <pt x="96" y="1305" on="1"/>
        <pt x="96" y="1461" on="1"/>
        <pt x="273" y="1461" on="1"/>
        <pt x="273" y="1648" on="1"/>
        <pt x="548" y="1698" on="1"/>
      </contour>
    </TTGlyph>
    <TTGlyph name="afii10109" xMin="152" yMin="0" xMax="1221" yMax="1959">
      <contour>
        <pt x="412" y="1182" on="1"/>
        <pt x="412" y="694" on="1"/>
        <pt x="524" y="694" on="1"/>
        <pt x="905" y="1182" on="1"/>
        <pt x="1221" y="1182" on="1"/>
        <pt x="906" y="795" on="1"/>
        <pt x="883" y="766" on="0"/>
        <pt x="818" y="698" on="0"/>
        <pt x="744" y="637" on="0"/>
        <pt x="664" y="595" on="0"/>
        <pt x="625" y="593" on="1"/>
        <pt x="651" y="587" on="0"/>
        <pt x="710" y="566" on="0"/>
        <pt x="771" y="531" on="0"/>
        <pt x="834" y="480" on="0"/>
        <pt x="863" y="443" on="1"/>
        <pt x="1214" y="0" on="1"/>
        <pt x="905" y="0" on="1"/>
        <pt x="525" y="503" on="1"/>
        <pt x="412" y="503" on="1"/>
        <pt x="412" y="0" on="1"/>
        <pt x="152" y="0" on="1"/>
        <pt x="152" y="1182" on="1"/>
      </contour>
      <contour>
        <pt x="545" y="1338" on="1"/>
        <pt x="729" y="1959" on="1"/>
        <pt x="1006" y="1839" on="1"/>
        <pt x="654" y="1287" on="1"/>
      </contour>
    </TTGlyph>
    <TTGlyph name="afii10110" xMin="24" yMin="-471" xMax="1149" yMax="1619">
      <contour>
        <pt x="24" y="1182" on="1"/>
        <pt x="300" y="1182" on="1"/>
        <pt x="619" y="317" on="1"/>
        <pt x="869" y="1182" on="1"/>
        <pt x="1149" y="1182" on="1"/>
        <pt x="726" y="-35" on="1"/>
        <pt x="692" y="-132" on="0"/>
        <pt x="608" y="-290" on="0"/>
        <pt x="490" y="-404" on="0"/>
        <pt x="331" y="-468" on="0"/>
        <pt x="223" y="-471" on="1"/>
        <pt x="147" y="-286" on="1"/>
        <pt x="234" y="-276" on="0"/>
        <pt x="348" y="-234" on="0"/>
        <pt x="425" y="-160" on="0"/>
        <pt x="475" y="-48" on="0"/>
        <pt x="498" y="33" on="1"/>
      </contour>
      <contour>
        <pt x="892" y="1619" on="1"/>
        <pt x="892" y="1476" on="0"/>
        <pt x="744" y="1331" on="0"/>
        <pt x="587" y="1331" on="1"/>
        <pt x="430" y="1331" on="0"/>
        <pt x="281" y="1479" on="0"/>
        <pt x="281" y="1619" on="1"/>
        <pt x="447" y="1619" on="1"/>
        <pt x="447" y="1458" on="0"/>
        <pt x="587" y="1458" on="1"/>
        <pt x="659" y="1458" on="0"/>
        <pt x="726" y="1538" on="0"/>
        <pt x="726" y="1619" on="1"/>
      </contour>
    </TTGlyph>
    <TTGlyph name="afii10145" xMin="155" yMin="-395" xMax="1453" yMax="1602">
      <contour>
        <pt x="155" y="1602" on="1"/>
        <pt x="442" y="1602" on="1"/>
        <pt x="442" y="192" on="1"/>
        <pt x="1166" y="192" on="1"/>
        <pt x="1166" y="1602" on="1"/>
        <pt x="1453" y="1602" on="1"/>
        <pt x="1453" y="0" on="1"/>
        <pt x="950" y="0" on="1"/>
        <pt x="950" y="-395" on="1"/>
        <pt x="675" y="-395" on="1"/>
        <pt x="675" y="0" on="1"/>
        <pt x="155" y="0" on="1"/>
      </contour>
    </TTGlyph>
    <TTGlyph name="afii10193" xMin="150" yMin="-395" xMax="1265" yMax="1182">
      <contour>
        <pt x="150" y="1182" on="1"/>
        <pt x="427" y="1182" on="1"/>
        <pt x="427" y="177" on="1"/>
        <pt x="988" y="177" on="1"/>
        <pt x="988" y="1182" on="1"/>
        <pt x="1265" y="1182" on="1"/>
        <pt x="1265" y="0" on="1"/>
        <pt x="856" y="0" on="1"/>
        <pt x="856" y="-395" on="1"/>
        <pt x="580" y="-395" on="1"/>
        <pt x="580" y="0" on="1"/>
        <pt x="150" y="0" on="1"/>
      </contour>
    </TTGlyph>
    <TTGlyph name="afii61352" xMin="155" yMin="-32" xMax="2858" yMax="1602">
      <component glyphName="N" x="0" y="0" flags="0x1004"/>
      <component glyphName="o" x="1657" y="0" flags="0x1004"/>
    </TTGlyph>
    <TTGlyph name="agrave" xMin="88" yMin="-23" xMax="1102" yMax="1962">
      <component glyphName="a" x="0" y="0" flags="0x1204"/>
      <component glyphName="grave" x="111" y="1180" flags="0x1004"/>
    </TTGlyph>
    <TTGlyph name="amacron" xMin="88" yMin="-23" xMax="1102" yMax="1581">
      <component glyphName="a" x="0" y="0" flags="0x1204"/>
      <component glyphName="macron" x="100" y="1180" flags="0x1004"/>
    </TTGlyph>
    <TTGlyph name="ampersand" xMin="147" yMin="-40" xMax="1694" yMax="1552">
      <contour>
        <pt x="399" y="445" on="1"/>
        <pt x="399" y="311" on="0"/>
        <pt x="575" y="167" on="0"/>
        <pt x="766" y="167" on="1"/>
        <pt x="865" y="167" on="0"/>
        <pt x="1010" y="191" on="0"/>
        <pt x="1109" y="229" on="0"/>
        <pt x="1167" y="274" on="0"/>
        <pt x="1180" y="294" on="1"/>
        <pt x="656" y="727" on="1"/>
        <pt x="597" y="713" on="0"/>
        <pt x="502" y="667" on="0"/>
        <pt x="435" y="599" on="0"/>
        <pt x="399" y="506" on="0"/>
      </contour>
      <contour>
        <pt x="766" y="-40" on="1"/>
        <pt x="625" y="-40" on="0"/>
        <pt x="396" y="14" on="0"/>
        <pt x="234" y="128" on="0"/>
        <pt x="147" y="302" on="0"/>
        <pt x="147" y="422" on="1"/>
        <pt x="147" y="516" on="0"/>
        <pt x="199" y="660" on="0"/>
        <pt x="293" y="768" on="0"/>
        <pt x="422" y="845" on="0"/>
        <pt x="500" y="873" on="1"/>
        <pt x="490" y="880" on="0"/>
        <pt x="451" y="910" on="0"/>
        <pt x="404" y="956" on="0"/>
        <pt x="355" y="1016" on="0"/>
        <pt x="315" y="1086" on="0"/>
        <pt x="289" y="1166" on="0"/>
        <pt x="289" y="1209" on="1"/>
        <pt x="289" y="1288" on="0"/>
        <pt x="354" y="1416" on="0"/>
        <pt x="472" y="1504" on="0"/>
        <pt x="636" y="1552" on="0"/>
        <pt x="734" y="1552" on="1"/>
        <pt x="836" y="1552" on="0"/>
        <pt x="997" y="1502" on="0"/>
        <pt x="1110" y="1412" on="0"/>
        <pt x="1170" y="1287" on="0"/>
        <pt x="1170" y="1213" on="1"/>
        <pt x="1170" y="1066" on="0"/>
        <pt x="1006" y="871" on="0"/>
        <pt x="845" y="816" on="1"/>
        <pt x="1258" y="478" on="1"/>
        <pt x="1263" y="536" on="0"/>
        <pt x="1266" y="675" on="0"/>
        <pt x="1266" y="740" on="1"/>
        <pt x="1266" y="782" on="0"/>
        <pt x="1265" y="847" on="0"/>
        <pt x="1265" y="862" on="1"/>
        <pt x="1495" y="862" on="1"/>
        <pt x="1495" y="840" on="0"/>
        <pt x="1492" y="767" on="0"/>
        <pt x="1486" y="679" on="0"/>
        <pt x="1479" y="583" on="0"/>
        <pt x="1471" y="493" on="0"/>
        <pt x="1462" y="415" on="0"/>
        <pt x="1457" y="390" on="1"/>
        <pt x="1444" y="322" on="1"/>
        <pt x="1694" y="114" on="1"/>
        <pt x="1575" y="-32" on="1"/>
        <pt x="1346" y="161" on="1"/>
        <pt x="1279" y="61" on="0"/>
        <pt x="995" y="-40" on="0"/>
      </contour>
      <contour>
        <pt x="955" y="1195" on="1"/>
        <pt x="955" y="1282" on="0"/>
        <pt x="840" y="1369" on="0"/>
        <pt x="739" y="1369" on="1"/>
        <pt x="526" y="1369" on="0"/>
        <pt x="526" y="1198" on="1"/>
        <pt x="526" y="1164" on="0"/>
        <pt x="552" y="1098" on="0"/>
        <pt x="597" y="1037" on="0"/>
        <pt x="658" y="984" on="0"/>
        <pt x="693" y="963" on="1"/>
        <pt x="727" y="973" on="0"/>
        <pt x="817" y="1007" on="0"/>
        <pt x="898" y="1062" on="0"/>
        <pt x="955" y="1140" on="0"/>
      </contour>
    </TTGlyph>
    <TTGlyph name="aogonek" xMin="88" yMin="-619" xMax="1102" yMax="1211">
      <component glyphName="a" x="0" y="0" flags="0x1204"/>
      <component glyphName="ogonek" x="571" y="0" flags="0x1004"/>
    </TTGlyph>
    <TTGlyph name="aring" xMin="88" yMin="-23" xMax="1102" yMax="1890">
      <component glyphName="a" x="0" y="0" flags="0x1204"/>
      <component glyphName="ring" x="-39" y="1180" flags="0x1004"/>
    </TTGlyph>
    <TTGlyph name="asciicircum" xMin="305" yMin="506" xMax="1041" yMax="1114">
      <contour>
        <pt x="762" y="1114" on="1"/>
        <pt x="1041" y="545" on="1"/>
        <pt x="836" y="506" on="1"/>
        <pt x="672" y="892" on="1"/>
        <pt x="509" y="506" on="1"/>
        <pt x="305" y="545" on="1"/>
        <pt x="584" y="1114" on="1"/>
      </contour>
    </TTGlyph>
    <TTGlyph name="asciitilde" xMin="137" yMin="303" xMax="973" yMax="623">
      <contour>
        <pt x="755" y="303" on="1"/>
        <pt x="696" y="303" on="0"/>
        <pt x="584" y="346" on="0"/>
        <pt x="486" y="398" on="0"/>
        <pt x="409" y="441" on="0"/>
        <pt x="386" y="441" on="1"/>
        <pt x="352" y="441" on="0"/>
        <pt x="323" y="387" on="0"/>
        <pt x="323" y="319" on="1"/>
        <pt x="137" y="319" on="1"/>
        <pt x="137" y="479" on="0"/>
        <pt x="255" y="623" on="0"/>
        <pt x="359" y="623" on="1"/>
        <pt x="395" y="623" on="0"/>
        <pt x="461" y="603" on="0"/>
        <pt x="523" y="573" on="0"/>
        <pt x="582" y="537" on="0"/>
        <pt x="639" y="507" on="0"/>
        <pt x="695" y="487" on="0"/>
        <pt x="723" y="487" on="1"/>
        <pt x="742" y="487" on="0"/>
        <pt x="765" y="503" on="0"/>
        <pt x="777" y="532" on="0"/>
        <pt x="781" y="572" on="0"/>
        <pt x="781" y="596" on="1"/>
        <pt x="973" y="596" on="1"/>
        <pt x="973" y="531" on="0"/>
        <pt x="944" y="423" on="0"/>
        <pt x="888" y="346" on="0"/>
        <pt x="807" y="303" on="0"/>
      </contour>
    </TTGlyph>
    <TTGlyph name="asterisk" xMin="41" yMin="791" xMax="895" yMax="1628">
      <contour>
        <pt x="607" y="1628" on="1"/>
        <pt x="759" y="1539" on="1"/>
        <pt x="610" y="1282" on="1"/>
        <pt x="895" y="1282" on="1"/>
        <pt x="895" y="1136" on="1"/>
        <pt x="612" y="1136" on="1"/>
        <pt x="767" y="881" on="1"/>
        <pt x="614" y="791" on="1"/>
        <pt x="472" y="1042" on="1"/>
        <pt x="331" y="792" on="1"/>
        <pt x="179" y="881" on="1"/>
        <pt x="333" y="1136" on="1"/>
        <pt x="41" y="1136" on="1"/>
        <pt x="41" y="1282" on="1"/>
        <pt x="336" y="1282" on="1"/>
        <pt x="186" y="1541" on="1"/>
        <pt x="337" y="1627" on="1"/>
        <pt x="471" y="1375" on="1"/>
      </contour>
    </TTGlyph>
    <TTGlyph name="at" xMin="134" yMin="-146" xMax="1860" yMax="1517">
      <contour>
        <pt x="986" y="-146" on="1"/>
        <pt x="778" y="-146" on="0"/>
        <pt x="460" y="-30" on="0"/>
        <pt x="244" y="174" on="0"/>
        <pt x="134" y="454" on="0"/>
        <pt x="134" y="619" on="1"/>
        <pt x="134" y="748" on="0"/>
        <pt x="193" y="980" on="0"/>
        <pt x="305" y="1180" on="0"/>
        <pt x="465" y="1341" on="0"/>
        <pt x="666" y="1455" on="0"/>
        <pt x="905" y="1517" on="0"/>
        <pt x="1039" y="1517" on="1"/>
        <pt x="1148" y="1517" on="0"/>
        <pt x="1354" y="1476" on="0"/>
        <pt x="1536" y="1393" on="0"/>
        <pt x="1689" y="1271" on="0"/>
        <pt x="1799" y="1110" on="0"/>
        <pt x="1860" y="909" on="0"/>
        <pt x="1860" y="790" on="1"/>
        <pt x="1860" y="700" on="0"/>
        <pt x="1823" y="544" on="0"/>
        <pt x="1760" y="418" on="0"/>
        <pt x="1676" y="323" on="0"/>
        <pt x="1628" y="293" on="1"/>
        <pt x="1583" y="264" on="0"/>
        <pt x="1464" y="239" on="0"/>
        <pt x="1393" y="239" on="1"/>
        <pt x="1354" y="239" on="0"/>
        <pt x="1300" y="262" on="0"/>
        <pt x="1268" y="305" on="0"/>
        <pt x="1254" y="365" on="0"/>
        <pt x="1254" y="402" on="1"/>
        <pt x="1254" y="438" on="0"/>
        <pt x="1255" y="509" on="0"/>
        <pt x="1256" y="545" on="1"/>
        <pt x="1238" y="480" on="0"/>
        <pt x="1179" y="366" on="0"/>
        <pt x="1090" y="281" on="0"/>
        <pt x="968" y="232" on="0"/>
        <pt x="886" y="232" on="1"/>
        <pt x="829" y="232" on="0"/>
        <pt x="726" y="258" on="0"/>
        <pt x="638" y="315" on="0"/>
        <pt x="566" y="404" on="0"/>
        <pt x="541" y="467" on="1"/>
        <pt x="512" y="542" on="0"/>
        <pt x="512" y="634" on="1"/>
        <pt x="512" y="745" on="0"/>
        <pt x="600" y="938" on="0"/>
        <pt x="751" y="1082" on="0"/>
        <pt x="951" y="1164" on="0"/>
        <pt x="1062" y="1164" on="1"/>
        <pt x="1082" y="1164" on="0"/>
        <pt x="1135" y="1160" on="0"/>
        <pt x="1192" y="1154" on="0"/>
        <pt x="1249" y="1145" on="0"/>
        <pt x="1272" y="1140" on="1"/>
        <pt x="1346" y="1124" on="0"/>
        <pt x="1419" y="1044" on="0"/>
        <pt x="1430" y="987" on="1"/>
        <pt x="1430" y="961" on="0"/>
        <pt x="1430" y="913" on="0"/>
        <pt x="1429" y="889" on="1"/>
        <pt x="1387" y="398" on="1"/>
        <pt x="1516" y="409" on="0"/>
        <pt x="1642" y="587" on="0"/>
        <pt x="1642" y="769" on="1"/>
        <pt x="1642" y="920" on="0"/>
        <pt x="1546" y="1131" on="0"/>
        <pt x="1379" y="1264" on="0"/>
        <pt x="1156" y="1324" on="0"/>
        <pt x="1029" y="1324" on="1"/>
        <pt x="881" y="1324" on="0"/>
        <pt x="634" y="1224" on="0"/>
        <pt x="457" y="1040" on="0"/>
        <pt x="358" y="780" on="0"/>
        <pt x="358" y="619" on="1"/>
        <pt x="358" y="479" on="0"/>
        <pt x="445" y="264" on="0"/>
        <pt x="612" y="117" on="0"/>
        <pt x="855" y="41" on="0"/>
        <pt x="1012" y="41" on="1"/>
        <pt x="1078" y="41" on="0"/>
        <pt x="1181" y="61" on="0"/>
        <pt x="1257" y="87" on="0"/>
        <pt x="1306" y="113" on="0"/>
        <pt x="1320" y="120" on="1"/>
        <pt x="1338" y="125" on="0"/>
        <pt x="1374" y="136" on="0"/>
        <pt x="1391" y="144" on="1"/>
        <pt x="1465" y="-9" on="1"/>
        <pt x="1390" y="-73" on="0"/>
        <pt x="1139" y="-146" on="0"/>
      </contour>
      <contour>
        <pt x="1073" y="1012" on="1"/>
        <pt x="997" y="1012" on="0"/>
        <pt x="867" y="959" on="0"/>
        <pt x="771" y="857" on="0"/>
        <pt x="716" y="709" on="0"/>
        <pt x="716" y="613" on="1"/>
        <pt x="716" y="516" on="0"/>
        <pt x="809" y="398" on="0"/>
        <pt x="898" y="398" on="1"/>
        <pt x="982" y="398" on="0"/>
        <pt x="1108" y="483" on="0"/>
        <pt x="1194" y="638" on="0"/>
        <pt x="1243" y="857" on="0"/>
        <pt x="1251" y="992" on="1"/>
        <pt x="1242" y="993" on="0"/>
        <pt x="1203" y="1000" on="0"/>
        <pt x="1154" y="1007" on="0"/>
        <pt x="1099" y="1012" on="0"/>
      </contour>
    </TTGlyph>
    <TTGlyph name="atilde" xMin="88" yMin="-23" xMax="1102" yMax="1631">
      <component glyphName="a" x="0" y="0" flags="0x1204"/>
      <component glyphName="tilde" x="-135" y="1180" flags="0x1004"/>
    </TTGlyph>
    <TTGlyph name="b" xMin="152" yMin="-23" xMax="1223" yMax="1695">
      <contour>
        <pt x="709" y="167" on="1"/>
        <pt x="830" y="167" on="0"/>
        <pt x="957" y="381" on="0"/>
        <pt x="957" y="608" on="1"/>
        <pt x="957" y="722" on="0"/>
        <pt x="927" y="880" on="0"/>
        <pt x="868" y="978" on="0"/>
        <pt x="782" y="1022" on="0"/>
        <pt x="725" y="1022" on="1"/>
        <pt x="650" y="1022" on="0"/>
        <pt x="503" y="959" on="0"/>
        <pt x="427" y="892" on="1"/>
        <pt x="427" y="289" on="1"/>
        <pt x="493" y="224" on="0"/>
        <pt x="631" y="167" on="0"/>
      </contour>
      <contour>
        <pt x="745" y="-23" on="1"/>
        <pt x="630" y="-23" on="0"/>
        <pt x="454" y="79" on="0"/>
        <pt x="401" y="174" on="1"/>
        <pt x="348" y="0" on="1"/>
        <pt x="152" y="0" on="1"/>
        <pt x="152" y="1653" on="1"/>
        <pt x="427" y="1695" on="1"/>
        <pt x="427" y="1061" on="1"/>
        <pt x="462" y="1098" on="0"/>
        <pt x="543" y="1155" on="0"/>
        <pt x="628" y="1192" on="0"/>
        <pt x="714" y="1211" on="0"/>
        <pt x="755" y="1211" on="1"/>
        <pt x="871" y="1211" on="0"/>
        <pt x="1046" y="1131" on="0"/>
        <pt x="1164" y="976" on="0"/>
        <pt x="1223" y="749" on="0"/>
        <pt x="1223" y="603" on="1"/>
        <pt x="1223" y="438" on="0"/>
        <pt x="1154" y="201" on="0"/>
        <pt x="1028" y="49" on="0"/>
        <pt x="852" y="-23" on="0"/>
      </contour>
    </TTGlyph>
    <TTGlyph name="backslash" xMin="144" yMin="-162" xMax="994" yMax="1733">
      <contour>
        <pt x="994" y="-77" on="1"/>
        <pt x="749" y="-162" on="1"/>
        <pt x="144" y="1652" on="1"/>
        <pt x="388" y="1733" on="1"/>
      </contour>
    </TTGlyph>
    <TTGlyph name="bar" xMin="242" yMin="-131" xMax="489" yMax="1706">
      <contour>
        <pt x="242" y="1706" on="1"/>
        <pt x="489" y="1706" on="1"/>
        <pt x="489" y="-131" on="1"/>
        <pt x="242" y="-131" on="1"/>
      </contour>
    </TTGlyph>
    <TTGlyph name="braceleft" xMin="122" yMin="-213" xMax="727" yMax="1541">
      <contour>
        <pt x="552" y="1053" on="1"/>
        <pt x="551" y="955" on="0"/>
        <pt x="520" y="820" on="0"/>
        <pt x="464" y="730" on="0"/>
        <pt x="385" y="678" on="0"/>
        <pt x="337" y="664" on="1"/>
        <pt x="394" y="646" on="0"/>
        <pt x="475" y="584" on="0"/>
        <pt x="527" y="489" on="0"/>
        <pt x="552" y="360" on="0"/>
        <pt x="553" y="275" on="1"/>
        <pt x="554" y="170" on="0"/>
        <pt x="578" y="49" on="0"/>
        <pt x="623" y="-14" on="0"/>
        <pt x="686" y="-31" on="0"/>
        <pt x="727" y="-31" on="1"/>
        <pt x="727" y="-213" on="1"/>
        <pt x="640" y="-213" on="0"/>
        <pt x="494" y="-171" on="0"/>
        <pt x="384" y="-76" on="0"/>
        <pt x="314" y="77" on="0"/>
        <pt x="304" y="188" on="1"/>
        <pt x="295" y="297" on="0"/>
        <pt x="271" y="443" on="0"/>
        <pt x="231" y="531" on="0"/>
        <pt x="168" y="568" on="0"/>
        <pt x="122" y="568" on="1"/>
        <pt x="122" y="760" on="1"/>
        <pt x="171" y="760" on="0"/>
        <pt x="232" y="798" on="0"/>
        <pt x="271" y="887" on="0"/>
        <pt x="294" y="1032" on="0"/>
        <pt x="304" y="1140" on="1"/>
        <pt x="314" y="1250" on="0"/>
        <pt x="383" y="1403" on="0"/>
        <pt x="493" y="1498" on="0"/>
        <pt x="639" y="1541" on="0"/>
        <pt x="727" y="1541" on="1"/>
        <pt x="727" y="1359" on="1"/>
        <pt x="687" y="1359" on="0"/>
        <pt x="623" y="1343" on="0"/>
        <pt x="578" y="1281" on="0"/>
        <pt x="553" y="1159" on="0"/>
      </contour>
    </TTGlyph>
    <TTGlyph name="braceright" xMin="145" yMin="-212" xMax="750" yMax="1542">
      <contour>
        <pt x="320" y="1054" on="1"/>
        <pt x="319" y="1161" on="0"/>
        <pt x="293" y="1284" on="0"/>
        <pt x="247" y="1345" on="0"/>
        <pt x="184" y="1360" on="0"/>
        <pt x="145" y="1360" on="1"/>
        <pt x="145" y="1542" on="1"/>
        <pt x="232" y="1542" on="0"/>
        <pt x="379" y="1500" on="0"/>
        <pt x="489" y="1405" on="0"/>
        <pt x="558" y="1252" on="0"/>
        <pt x="568" y="1141" on="1"/>
        <pt x="572" y="1103" on="0"/>
        <pt x="579" y="1029" on="0"/>
        <pt x="584" y="992" on="1"/>
        <pt x="590" y="927" on="0"/>
        <pt x="617" y="838" on="0"/>
        <pt x="658" y="784" on="0"/>
        <pt x="714" y="760" on="0"/>
        <pt x="750" y="760" on="1"/>
        <pt x="750" y="569" on="1"/>
        <pt x="703" y="569" on="0"/>
        <pt x="641" y="532" on="0"/>
        <pt x="600" y="443" on="0"/>
        <pt x="577" y="297" on="0"/>
        <pt x="568" y="189" on="1"/>
        <pt x="558" y="79" on="0"/>
        <pt x="489" y="-74" on="0"/>
        <pt x="379" y="-169" on="0"/>
        <pt x="233" y="-212" on="0"/>
        <pt x="145" y="-212" on="1"/>
        <pt x="145" y="-31" on="1"/>
        <pt x="184" y="-31" on="0"/>
        <pt x="248" y="-16" on="0"/>
        <pt x="293" y="45" on="0"/>
        <pt x="318" y="168" on="0"/>
        <pt x="319" y="275" on="1"/>
        <pt x="320" y="360" on="0"/>
        <pt x="345" y="489" on="0"/>
        <pt x="397" y="584" on="0"/>
        <pt x="478" y="647" on="0"/>
        <pt x="535" y="665" on="1"/>
        <pt x="485" y="680" on="0"/>
        <pt x="406" y="733" on="0"/>
        <pt x="350" y="823" on="0"/>
        <pt x="321" y="958" on="0"/>
      </contour>
    </TTGlyph>
    <TTGlyph name="bracketleft" xMin="252" yMin="0" xMax="970" yMax="1602">
      <contour>
        <pt x="970" y="1602" on="1"/>
        <pt x="970" y="1410" on="1"/>
        <pt x="520" y="1410" on="1"/>
        <pt x="520" y="192" on="1"/>
        <pt x="970" y="192" on="1"/>
        <pt x="970" y="0" on="1"/>
        <pt x="252" y="0" on="1"/>
        <pt x="252" y="1602" on="1"/>
      </contour>
    </TTGlyph>
    <TTGlyph name="bracketright" xMin="198" yMin="0" xMax="916" yMax="1602">
      <contour>
        <pt x="916" y="1602" on="1"/>
        <pt x="916" y="0" on="1"/>
        <pt x="198" y="0" on="1"/>
        <pt x="198" y="192" on="1"/>
        <pt x="648" y="192" on="1"/>
        <pt x="648" y="1410" on="1"/>
        <pt x="198" y="1410" on="1"/>
        <pt x="198" y="1602" on="1"/>
      </contour>
    </TTGlyph>
    <TTGlyph name="breve" xMin="215" yMin="139" xMax="826" yMax="430">
      <contour>
        <pt x="826" y="430" on="1"/>
        <pt x="826" y="287" on="0"/>
        <pt x="678" y="139" on="0"/>
        <pt x="521" y="139" on="1"/>
        <pt x="364" y="139" on="0"/>
        <pt x="215" y="290" on="0"/>
        <pt x="215" y="430" on="1"/>
        <pt x="381" y="430" on="1"/>
        <pt x="381" y="349" on="0"/>
        <pt x="449" y="273" on="0"/>
        <pt x="521" y="273" on="1"/>
        <pt x="593" y="273" on="0"/>
        <pt x="660" y="349" on="0"/>
        <pt x="660" y="430" on="1"/>
      </contour>
    </TTGlyph>
    <TTGlyph name="brokenbar" xMin="240" yMin="-76" xMax="493" yMax="1648">
      <contour>
        <pt x="240" y="1648" on="1"/>
        <pt x="493" y="1648" on="1"/>
        <pt x="493" y="919" on="1"/>
        <pt x="240" y="919" on="1"/>
      </contour>
      <contour>
        <pt x="240" y="653" on="1"/>
        <pt x="493" y="653" on="1"/>
        <pt x="493" y="-76" on="1"/>
        <pt x="240" y="-76" on="1"/>
      </contour>
    </TTGlyph>
    <TTGlyph name="bullet" xMin="261" yMin="342" xMax="1013" yMax="1051">
      <contour>
        <pt x="639" y="342" on="1"/>
        <pt x="564" y="342" on="0"/>
        <pt x="427" y="395" on="0"/>
        <pt x="323" y="489" on="0"/>
        <pt x="261" y="619" on="0"/>
        <pt x="261" y="696" on="1"/>
        <pt x="261" y="769" on="0"/>
        <pt x="320" y="898" on="0"/>
        <pt x="422" y="995" on="0"/>
        <pt x="558" y="1051" on="0"/>
        <pt x="635" y="1051" on="1"/>
        <pt x="710" y="1051" on="0"/>
        <pt x="847" y="997" on="0"/>
        <pt x="951" y="903" on="0"/>
        <pt x="1013" y="772" on="0"/>
        <pt x="1013" y="696" on="1"/>
        <pt x="1013" y="620" on="0"/>
        <pt x="952" y="491" on="0"/>
        <pt x="849" y="396" on="0"/>
        <pt x="714" y="342" on="0"/>
      </contour>
    </TTGlyph>
    <TTGlyph name="c" xMin="88" yMin="-23" xMax="1034" yMax="1211">
      <contour>
        <pt x="646" y="-23" on="1"/>
        <pt x="498" y="-23" on="0"/>
        <pt x="286" y="77" on="0"/>
        <pt x="151" y="245" on="0"/>
        <pt x="88" y="464" on="0"/>
        <pt x="88" y="584" on="1"/>
        <pt x="88" y="714" on="0"/>
        <pt x="163" y="943" on="0"/>
        <pt x="306" y="1113" on="0"/>
        <pt x="515" y="1211" on="0"/>
        <pt x="649" y="1211" on="1"/>
        <pt x="715" y="1211" on="0"/>
        <pt x="828" y="1193" on="0"/>
        <pt x="924" y="1162" on="0"/>
        <pt x="1002" y="1121" on="0"/>
        <pt x="1034" y="1098" on="1"/>
        <pt x="972" y="916" on="1"/>
        <pt x="949" y="936" on="0"/>
        <pt x="884" y="974" on="0"/>
        <pt x="808" y="1004" on="0"/>
        <pt x="722" y="1022" on="0"/>
        <pt x="678" y="1022" on="1"/>
        <pt x="589" y="1017" on="0"/>
        <pt x="469" y="956" on="0"/>
        <pt x="395" y="846" on="0"/>
        <pt x="364" y="688" on="0"/>
        <pt x="364" y="588" on="1"/>
        <pt x="364" y="377" on="0"/>
        <pt x="526" y="167" on="0"/>
        <pt x="677" y="167" on="1"/>
        <pt x="775" y="167" on="0"/>
        <pt x="913" y="228" on="0"/>
        <pt x="972" y="277" on="1"/>
        <pt x="1034" y="94" on="1"/>
        <pt x="1004" y="73" on="0"/>
        <pt x="928" y="31" on="0"/>
        <pt x="832" y="-2" on="0"/>
        <pt x="716" y="-23" on="0"/>
      </contour>
    </TTGlyph>
    <TTGlyph name="cacute" xMin="88" yMin="-23" xMax="1034" yMax="1975">
      <component glyphName="c" x="0" y="0" flags="0x1204"/>
      <component glyphName="acutecomb" x="8" y="1180" flags="0x1004"/>
    </TTGlyph>
    <TTGlyph name="caron" xMin="325" yMin="127" xMax="1062" yMax="736">
      <contour>
        <pt x="604" y="127" on="1"/>
        <pt x="325" y="697" on="1"/>
        <pt x="530" y="736" on="1"/>
        <pt x="694" y="349" on="1"/>
        <pt x="858" y="736" on="1"/>
        <pt x="1062" y="697" on="1"/>
        <pt x="783" y="127" on="1"/>
      </contour>
    </TTGlyph>
    <TTGlyph name="ccaron" xMin="88" yMin="-23" xMax="1034" yMax="1916">
      <component glyphName="c" x="0" y="0" flags="0x1204"/>
      <component glyphName="caron" x="-131" y="1180" flags="0x1004"/>
    </TTGlyph>
    <TTGlyph name="ccedilla" xMin="88" yMin="-632" xMax="1034" yMax="1211">
      <component glyphName="c" x="0" y="0" flags="0x1204"/>
      <component glyphName="cedilla" x="215" y="0" flags="0x1004"/>
    </TTGlyph>
    <TTGlyph name="ccircumflex" xMin="88" yMin="-23" xMax="1034" yMax="1905">
      <component glyphName="c" x="0" y="0" flags="0x1204"/>
      <component glyphName="circumflex" x="-131" y="1180" flags="0x1004"/>
    </TTGlyph>
    <TTGlyph name="cdotaccent" xMin="88" yMin="-23" xMax="1034" yMax="1682">
      <component glyphName="c" x="0" y="0" flags="0x1204"/>
      <component glyphName="dotaccent" x="193" y="1180" flags="0x1004"/>
    </TTGlyph>
    <TTGlyph name="cedilla" xMin="298" yMin="-632" xMax="775" yMax="50">
      <contour>
        <pt x="298" y="-456" on="1"/>
        <pt x="331" y="-468" on="0"/>
        <pt x="364" y="-478" on="1"/>
        <pt x="392" y="-486" on="0"/>
        <pt x="453" y="-499" on="0"/>
        <pt x="476" y="-499" on="1"/>
        <pt x="506" y="-499" on="0"/>
        <pt x="555" y="-490" on="0"/>
        <pt x="590" y="-464" on="0"/>
        <pt x="609" y="-415" on="0"/>
        <pt x="609" y="-376" on="1"/>
        <pt x="609" y="-298" on="0"/>
        <pt x="483" y="-232" on="0"/>
        <pt x="349" y="-232" on="1"/>
        <pt x="359" y="50" on="1"/>
        <pt x="481" y="50" on="1"/>
        <pt x="475" y="-130" on="1"/>
        <pt x="527" y="-130" on="0"/>
        <pt x="634" y="-156" on="0"/>
        <pt x="721" y="-214" on="0"/>
        <pt x="775" y="-308" on="0"/>
        <pt x="775" y="-376" on="1"/>
        <pt x="775" y="-497" on="0"/>
        <pt x="636" y="-632" on="0"/>
        <pt x="500" y="-632" on="1"/>
        <pt x="462" y="-632" on="0"/>
        <pt x="397" y="-620" on="0"/>
        <pt x="345" y="-604" on="0"/>
        <pt x="308" y="-588" on="0"/>
        <pt x="298" y="-585" on="1"/>
      </contour>
    </TTGlyph>
    <TTGlyph name="cent" xMin="111" yMin="-155" xMax="1057" yMax="1373">
      <contour>
        <pt x="387" y="592" on="1"/>
        <pt x="387" y="416" on="0"/>
        <pt x="506" y="209" on="0"/>
        <pt x="627" y="186" on="1"/>
        <pt x="627" y="1003" on="1"/>
        <pt x="557" y="991" on="0"/>
        <pt x="465" y="917" on="0"/>
        <pt x="410" y="807" on="0"/>
        <pt x="387" y="668" on="0"/>
      </contour>
      <contour>
        <pt x="627" y="-18" on="1"/>
        <pt x="512" y="-12" on="0"/>
        <pt x="322" y="76" on="0"/>
        <pt x="186" y="231" on="0"/>
        <pt x="111" y="452" on="0"/>
        <pt x="111" y="592" on="1"/>
        <pt x="111" y="732" on="0"/>
        <pt x="190" y="953" on="0"/>
        <pt x="328" y="1110" on="0"/>
        <pt x="517" y="1198" on="0"/>
        <pt x="627" y="1205" on="1"/>
        <pt x="627" y="1373" on="1"/>
        <pt x="762" y="1373" on="1"/>
        <pt x="762" y="1199" on="1"/>
        <pt x="841" y="1191" on="0"/>
        <pt x="991" y="1137" on="0"/>
        <pt x="1057" y="1098" on="1"/>
        <pt x="995" y="915" on="1"/>
        <pt x="955" y="947" on="0"/>
        <pt x="831" y="995" on="0"/>
        <pt x="762" y="1003" on="1"/>
        <pt x="762" y="182" on="1"/>
        <pt x="795" y="182" on="0"/>
        <pt x="864" y="201" on="0"/>
        <pt x="927" y="226" on="0"/>
        <pt x="979" y="253" on="0"/>
        <pt x="994" y="262" on="1"/>
        <pt x="1051" y="78" on="1"/>
        <pt x="1038" y="71" on="0"/>
        <pt x="976" y="41" on="0"/>
        <pt x="895" y="11" on="0"/>
        <pt x="804" y="-12" on="0"/>
        <pt x="762" y="-12" on="1"/>
        <pt x="762" y="-155" on="1"/>
        <pt x="627" y="-155" on="1"/>
      </contour>
    </TTGlyph>
    <TTGlyph name="circumflex" xMin="325" yMin="116" xMax="1062" yMax="725">
      <contour>
        <pt x="783" y="725" on="1"/>
        <pt x="1062" y="155" on="1"/>
        <pt x="857" y="116" on="1"/>
        <pt x="693" y="503" on="1"/>
        <pt x="529" y="116" on="1"/>
        <pt x="325" y="155" on="1"/>
        <pt x="604" y="725" on="1"/>
      </contour>
    </TTGlyph>
    <TTGlyph name="colon" xMin="188" yMin="0" xMax="538" yMax="1033">
      <contour>
        <pt x="188" y="363" on="1"/>
        <pt x="538" y="363" on="1"/>
        <pt x="538" y="0" on="1"/>
        <pt x="188" y="0" on="1"/>
      </contour>
      <contour>
        <pt x="188" y="1033" on="1"/>
        <pt x="538" y="1033" on="1"/>
        <pt x="538" y="670" on="1"/>
        <pt x="188" y="670" on="1"/>
      </contour>
    </TTGlyph>
    <TTGlyph name="comma" xMin="150" yMin="-285" xMax="496" yMax="360">
      <contour>
        <pt x="150" y="360" on="1"/>
        <pt x="496" y="360" on="1"/>
        <pt x="496" y="49" on="1"/>
        <pt x="496" y="-26" on="0"/>
        <pt x="448" y="-136" on="0"/>
        <pt x="367" y="-214" on="0"/>
        <pt x="259" y="-267" on="0"/>
        <pt x="199" y="-285" on="1"/>
        <pt x="151" y="-179" on="1"/>
        <pt x="194" y="-164" on="0"/>
        <pt x="254" y="-131" on="0"/>
        <pt x="291" y="-89" on="0"/>
        <pt x="307" y="-36" on="0"/>
        <pt x="307" y="0" on="1"/>
        <pt x="150" y="0" on="1"/>
      </contour>
    </TTGlyph>
    <TTGlyph name="commaaccent" xMin="84" yMin="-756" xMax="430" yMax="-111">
      <contour>
        <pt x="84" y="-111" on="1"/>
        <pt x="430" y="-111" on="1"/>
        <pt x="430" y="-422" on="1"/>
        <pt x="430" y="-497" on="0"/>
        <pt x="382" y="-607" on="0"/>
        <pt x="301" y="-685" on="0"/>
        <pt x="193" y="-738" on="0"/>
        <pt x="133" y="-756" on="1"/>
        <pt x="85" y="-650" on="1"/>
        <pt x="128" y="-635" on="0"/>
        <pt x="188" y="-602" on="0"/>
        <pt x="225" y="-560" on="0"/>
        <pt x="241" y="-507" on="0"/>
        <pt x="241" y="-471" on="1"/>
        <pt x="84" y="-471" on="1"/>
      </contour>
    </TTGlyph>
    <TTGlyph name="copyright" xMin="151" yMin="-80" xMax="1974" yMax="1720">
      <contour>
        <pt x="1053" y="102" on="1"/>
        <pt x="1160" y="102" on="0"/>
        <pt x="1349" y="153" on="0"/>
        <pt x="1508" y="246" on="0"/>
        <pt x="1634" y="376" on="0"/>
        <pt x="1722" y="535" on="0"/>
        <pt x="1768" y="718" on="0"/>
        <pt x="1768" y="817" on="1"/>
        <pt x="1768" y="929" on="0"/>
        <pt x="1711" y="1122" on="0"/>
        <pt x="1610" y="1282" on="0"/>
        <pt x="1474" y="1407" on="0"/>
        <pt x="1318" y="1492" on="0"/>
        <pt x="1147" y="1537" on="0"/>
        <pt x="1063" y="1537" on="1"/>
        <pt x="978" y="1537" on="0"/>
        <pt x="806" y="1492" on="0"/>
        <pt x="650" y="1407" on="0"/>
        <pt x="514" y="1282" on="0"/>
        <pt x="414" y="1122" on="0"/>
        <pt x="357" y="928" on="0"/>
        <pt x="357" y="817" on="1"/>
        <pt x="357" y="668" on="0"/>
        <pt x="454" y="407" on="0"/>
        <pt x="635" y="214" on="0"/>
        <pt x="892" y="102" on="0"/>
      </contour>
      <contour>
        <pt x="792" y="819" on="1"/>
        <pt x="792" y="720" on="0"/>
        <pt x="831" y="589" on="0"/>
        <pt x="906" y="511" on="0"/>
        <pt x="1016" y="478" on="0"/>
        <pt x="1087" y="478" on="1"/>
        <pt x="1119" y="478" on="0"/>
        <pt x="1184" y="487" on="0"/>
        <pt x="1256" y="507" on="0"/>
        <pt x="1338" y="541" on="0"/>
        <pt x="1386" y="565" on="1"/>
        <pt x="1386" y="389" on="1"/>
        <pt x="1301" y="346" on="0"/>
        <pt x="1163" y="307" on="0"/>
        <pt x="1100" y="307" on="1"/>
        <pt x="999" y="307" on="0"/>
        <pt x="845" y="348" on="0"/>
        <pt x="732" y="421" on="0"/>
        <pt x="655" y="520" on="0"/>
        <pt x="609" y="635" on="0"/>
        <pt x="590" y="761" on="0"/>
        <pt x="590" y="824" on="1"/>
        <pt x="590" y="929" on="0"/>
        <pt x="646" y="1114" on="0"/>
        <pt x="767" y="1252" on="0"/>
        <pt x="958" y="1331" on="0"/>
        <pt x="1092" y="1331" on="1"/>
        <pt x="1125" y="1331" on="0"/>
        <pt x="1200" y="1319" on="0"/>
        <pt x="1276" y="1298" on="0"/>
        <pt x="1350" y="1269" on="0"/>
        <pt x="1382" y="1251" on="1"/>
        <pt x="1382" y="1079" on="1"/>
        <pt x="1301" y="1121" on="0"/>
        <pt x="1151" y="1160" on="0"/>
        <pt x="1083" y="1160" on="1"/>
        <pt x="1004" y="1160" on="0"/>
        <pt x="893" y="1116" on="0"/>
        <pt x="824" y="1029" on="0"/>
        <pt x="792" y="902" on="0"/>
      </contour>
      <contour>
        <pt x="1057" y="-80" on="1"/>
        <pt x="938" y="-80" on="0"/>
        <pt x="711" y="-22" on="0"/>
        <pt x="509" y="87" on="0"/>
        <pt x="341" y="245" on="0"/>
        <pt x="219" y="445" on="0"/>
        <pt x="151" y="684" on="0"/>
        <pt x="151" y="820" on="1"/>
        <pt x="151" y="956" on="0"/>
        <pt x="222" y="1196" on="0"/>
        <pt x="347" y="1396" on="0"/>
        <pt x="519" y="1553" on="0"/>
        <pt x="721" y="1662" on="0"/>
        <pt x="947" y="1720" on="0"/>
        <pt x="1063" y="1720" on="1"/>
        <pt x="1177" y="1720" on="0"/>
        <pt x="1401" y="1662" on="0"/>
        <pt x="1604" y="1553" on="0"/>
        <pt x="1776" y="1395" on="0"/>
        <pt x="1903" y="1195" on="0"/>
        <pt x="1974" y="956" on="0"/>
        <pt x="1974" y="820" on="1"/>
        <pt x="1974" y="685" on="0"/>
        <pt x="1905" y="447" on="0"/>
        <pt x="1782" y="247" on="0"/>
        <pt x="1611" y="89" on="0"/>
        <pt x="1407" y="-22" on="0"/>
        <pt x="1177" y="-80" on="0"/>
      </contour>
    </TTGlyph>
    <TTGlyph name="currency" xMin="140" yMin="425" xMax="1275" yMax="1560">
      <contour>
        <pt x="334" y="748" on="1"/>
        <pt x="264" y="854" on="0"/>
        <pt x="264" y="983" on="1"/>
        <pt x="264" y="1115" on="0"/>
        <pt x="341" y="1231" on="1"/>
        <pt x="140" y="1432" on="1"/>
        <pt x="269" y="1560" on="1"/>
        <pt x="470" y="1360" on="1"/>
        <pt x="585" y="1439" on="0"/>
        <pt x="720" y="1439" on="1"/>
        <pt x="847" y="1439" on="0"/>
        <pt x="955" y="1369" on="1"/>
        <pt x="1147" y="1560" on="1"/>
        <pt x="1275" y="1432" on="1"/>
        <pt x="1082" y="1238" on="1"/>
        <pt x="1145" y="1137" on="0"/>
        <pt x="1145" y="1012" on="1"/>
        <pt x="1145" y="879" on="0"/>
        <pt x="1066" y="763" on="1"/>
        <pt x="1275" y="554" on="1"/>
        <pt x="1147" y="425" on="1"/>
        <pt x="937" y="635" on="1"/>
        <pt x="823" y="557" on="0"/>
        <pt x="691" y="557" on="1"/>
        <pt x="565" y="557" on="0"/>
        <pt x="465" y="620" on="1"/>
        <pt x="269" y="425" on="1"/>
        <pt x="140" y="554" on="1"/>
      </contour>
      <contour>
        <pt x="713" y="1276" on="1"/>
        <pt x="656" y="1276" on="0"/>
        <pt x="553" y="1229" on="0"/>
        <pt x="473" y="1149" on="0"/>
        <pt x="426" y="1046" on="0"/>
        <pt x="426" y="989" on="1"/>
        <pt x="426" y="932" on="0"/>
        <pt x="471" y="834" on="0"/>
        <pt x="546" y="760" on="0"/>
        <pt x="645" y="718" on="0"/>
        <pt x="700" y="718" on="1"/>
        <pt x="755" y="718" on="0"/>
        <pt x="858" y="766" on="0"/>
        <pt x="936" y="845" on="0"/>
        <pt x="983" y="949" on="0"/>
        <pt x="983" y="1005" on="1"/>
        <pt x="983" y="1060" on="0"/>
        <pt x="939" y="1159" on="0"/>
        <pt x="865" y="1233" on="0"/>
        <pt x="767" y="1276" on="0"/>
      </contour>
    </TTGlyph>
    <TTGlyph name="d" xMin="88" yMin="-23" xMax="1166" yMax="1696">
      <contour>
        <pt x="359" y="594" on="1"/>
        <pt x="359" y="479" on="0"/>
        <pt x="394" y="317" on="0"/>
        <pt x="460" y="214" on="0"/>
        <pt x="554" y="167" on="0"/>
        <pt x="612" y="167" on="1"/>
        <pt x="692" y="167" on="0"/>
        <pt x="838" y="227" on="0"/>
        <pt x="891" y="290" on="1"/>
        <pt x="891" y="892" on="1"/>
        <pt x="817" y="951" on="0"/>
        <pt x="673" y="1022" on="0"/>
        <pt x="593" y="1022" on="1"/>
        <pt x="525" y="1022" on="0"/>
        <pt x="435" y="961" on="0"/>
        <pt x="381" y="849" on="0"/>
        <pt x="359" y="691" on="0"/>
      </contour>
      <contour>
        <pt x="542" y="1211" on="1"/>
        <pt x="651" y="1211" on="0"/>
        <pt x="825" y="1133" on="0"/>
        <pt x="891" y="1052" on="1"/>
        <pt x="891" y="1653" on="1"/>
        <pt x="1166" y="1696" on="1"/>
        <pt x="1166" y="0" on="1"/>
        <pt x="969" y="0" on="1"/>
        <pt x="916" y="175" on="1"/>
        <pt x="892" y="132" on="0"/>
        <pt x="817" y="59" on="0"/>
        <pt x="725" y="7" on="0"/>
        <pt x="621" y="-23" on="0"/>
        <pt x="567" y="-23" on="1"/>
        <pt x="436" y="-23" on="0"/>
        <pt x="254" y="80" on="0"/>
        <pt x="140" y="257" on="0"/>
        <pt x="88" y="492" on="0"/>
        <pt x="88" y="625" on="1"/>
        <pt x="88" y="744" on="0"/>
        <pt x="151" y="957" on="0"/>
        <pt x="268" y="1117" on="0"/>
        <pt x="437" y="1211" on="0"/>
      </contour>
    </TTGlyph>
    <TTGlyph name="dagger" xMin="112" yMin="0" xMax="966" yMax="1468">
      <contour>
        <pt x="448" y="1020" on="1"/>
        <pt x="112" y="1020" on="1"/>
        <pt x="112" y="1161" on="1"/>
        <pt x="447" y="1161" on="1"/>
        <pt x="447" y="1468" on="1"/>
        <pt x="640" y="1468" on="1"/>
        <pt x="640" y="1161" on="1"/>
        <pt x="966" y="1161" on="1"/>
        <pt x="966" y="1020" on="1"/>
        <pt x="638" y="1020" on="1"/>
        <pt x="638" y="0" on="1"/>
        <pt x="448" y="0" on="1"/>
      </contour>
    </TTGlyph>
    <TTGlyph name="daggerdbl" xMin="202" yMin="0" xMax="1056" yMax="1468">
      <contour>
        <pt x="202" y="444" on="1"/>
        <pt x="537" y="444" on="1"/>
        <pt x="537" y="1020" on="1"/>
        <pt x="202" y="1020" on="1"/>
        <pt x="202" y="1161" on="1"/>
        <pt x="537" y="1161" on="1"/>
        <pt x="537" y="1468" on="1"/>
        <pt x="730" y="1468" on="1"/>
        <pt x="730" y="1161" on="1"/>
        <pt x="1056" y="1161" on="1"/>
        <pt x="1056" y="1020" on="1"/>
        <pt x="728" y="1020" on="1"/>
        <pt x="728" y="444" on="1"/>
        <pt x="1054" y="444" on="1"/>
        <pt x="1054" y="305" on="1"/>
        <pt x="728" y="305" on="1"/>
        <pt x="728" y="0" on="1"/>
        <pt x="537" y="0" on="1"/>
        <pt x="537" y="305" on="1"/>
        <pt x="202" y="305" on="1"/>
      </contour>
    </TTGlyph>
    <TTGlyph name="dcaron" xMin="88" yMin="-23" xMax="1744" yMax="1696">
      <component glyphName="d" x="0" y="0" flags="0x1004"/>
      <component glyphName="quoteright" x="1312" y="0" flags="0x1004"/>
    </TTGlyph>
    <TTGlyph name="dcroat" xMin="88" yMin="-23" xMax="1311" yMax="1696">
      <component glyphName="d" x="0" y="0" flags="0x1204"/>
      <component glyphName="hyphen" x="410" y="762" flags="0x1004"/>
    </TTGlyph>
    <TTGlyph name="degree" xMin="142" yMin="725" xMax="661" yMax="1224">
      <contour>
        <pt x="189" y="974" on="1"/>
        <pt x="189" y="929" on="0"/>
        <pt x="222" y="853" on="0"/>
        <pt x="279" y="796" on="0"/>
        <pt x="358" y="764" on="0"/>
        <pt x="404" y="764" on="1"/>
        <pt x="449" y="764" on="0"/>
        <pt x="527" y="796" on="0"/>
        <pt x="583" y="852" on="0"/>
        <pt x="615" y="929" on="0"/>
        <pt x="615" y="974" on="1"/>
        <pt x="615" y="1019" on="0"/>
        <pt x="583" y="1097" on="0"/>
        <pt x="526" y="1153" on="0"/>
        <pt x="449" y="1185" on="0"/>
        <pt x="404" y="1185" on="1"/>
        <pt x="358" y="1185" on="0"/>
        <pt x="279" y="1153" on="0"/>
        <pt x="222" y="1096" on="0"/>
        <pt x="189" y="1019" on="0"/>
      </contour>
      <contour>
        <pt x="403" y="1224" on="1"/>
        <pt x="457" y="1224" on="0"/>
        <pt x="551" y="1186" on="0"/>
        <pt x="621" y="1119" on="0"/>
        <pt x="661" y="1026" on="0"/>
        <pt x="661" y="972" on="1"/>
        <pt x="661" y="917" on="0"/>
        <pt x="618" y="826" on="0"/>
        <pt x="546" y="761" on="0"/>
        <pt x="451" y="725" on="0"/>
        <pt x="398" y="725" on="1"/>
        <pt x="346" y="725" on="0"/>
        <pt x="253" y="764" on="0"/>
        <pt x="183" y="833" on="0"/>
        <pt x="142" y="924" on="0"/>
        <pt x="142" y="977" on="1"/>
        <pt x="142" y="1030" on="0"/>
        <pt x="185" y="1120" on="0"/>
        <pt x="257" y="1186" on="0"/>
        <pt x="351" y="1224" on="0"/>
      </contour>
    </TTGlyph>
    <TTGlyph name="dieresis" xMin="111" yMin="156" xMax="1013" yMax="471">
      <contour>
        <pt x="111" y="314" on="1"/>
        <pt x="111" y="346" on="0"/>
        <pt x="134" y="403" on="0"/>
        <pt x="176" y="446" on="0"/>
        <pt x="233" y="471" on="0"/>
        <pt x="266" y="471" on="1"/>
        <pt x="299" y="471" on="0"/>
        <pt x="357" y="446" on="0"/>
        <pt x="399" y="403" on="0"/>
        <pt x="423" y="346" on="0"/>
        <pt x="423" y="314" on="1"/>
        <pt x="423" y="281" on="0"/>
        <pt x="399" y="224" on="0"/>
        <pt x="357" y="181" on="0"/>
        <pt x="299" y="156" on="0"/>
        <pt x="266" y="156" on="1"/>
        <pt x="232" y="156" on="0"/>
        <pt x="175" y="181" on="0"/>
        <pt x="134" y="224" on="0"/>
        <pt x="111" y="281" on="0"/>
      </contour>
      <contour>
        <pt x="700" y="314" on="1"/>
        <pt x="700" y="346" on="0"/>
        <pt x="724" y="403" on="0"/>
        <pt x="766" y="446" on="0"/>
        <pt x="823" y="471" on="0"/>
        <pt x="856" y="471" on="1"/>
        <pt x="889" y="471" on="0"/>
        <pt x="947" y="446" on="0"/>
        <pt x="989" y="403" on="0"/>
        <pt x="1013" y="346" on="0"/>
        <pt x="1013" y="314" on="1"/>
        <pt x="1013" y="281" on="0"/>
        <pt x="989" y="224" on="0"/>
        <pt x="947" y="181" on="0"/>
        <pt x="889" y="156" on="0"/>
        <pt x="856" y="156" on="1"/>
        <pt x="821" y="156" on="0"/>
        <pt x="764" y="181" on="0"/>
        <pt x="723" y="224" on="0"/>
        <pt x="700" y="281" on="0"/>
      </contour>
    </TTGlyph>
    <TTGlyph name="divide" xMin="160" yMin="150" xMax="1018" yMax="1164">
      <contour>
        <pt x="436" y="1006" on="1"/>
        <pt x="436" y="1039" on="0"/>
        <pt x="458" y="1096" on="0"/>
        <pt x="499" y="1139" on="0"/>
        <pt x="555" y="1164" on="0"/>
        <pt x="589" y="1164" on="1"/>
        <pt x="622" y="1164" on="0"/>
        <pt x="678" y="1139" on="0"/>
        <pt x="718" y="1097" on="0"/>
        <pt x="741" y="1039" on="0"/>
        <pt x="741" y="1006" on="1"/>
        <pt x="741" y="973" on="0"/>
        <pt x="719" y="916" on="0"/>
        <pt x="678" y="873" on="0"/>
        <pt x="622" y="849" on="0"/>
        <pt x="589" y="849" on="1"/>
        <pt x="555" y="849" on="0"/>
        <pt x="499" y="874" on="0"/>
        <pt x="458" y="917" on="0"/>
        <pt x="436" y="974" on="0"/>
      </contour>
      <contour>
        <pt x="436" y="307" on="1"/>
        <pt x="436" y="340" on="0"/>
        <pt x="459" y="397" on="0"/>
        <pt x="500" y="440" on="0"/>
        <pt x="556" y="465" on="0"/>
        <pt x="590" y="465" on="1"/>
        <pt x="623" y="465" on="0"/>
        <pt x="678" y="440" on="0"/>
        <pt x="719" y="398" on="0"/>
        <pt x="741" y="340" on="0"/>
        <pt x="741" y="307" on="1"/>
        <pt x="741" y="274" on="0"/>
        <pt x="719" y="217" on="0"/>
        <pt x="679" y="174" on="0"/>
        <pt x="623" y="150" on="0"/>
        <pt x="590" y="150" on="1"/>
        <pt x="556" y="150" on="0"/>
        <pt x="499" y="175" on="0"/>
        <pt x="459" y="218" on="0"/>
        <pt x="436" y="275" on="0"/>
      </contour>
      <contour>
        <pt x="160" y="559" on="1"/>
        <pt x="160" y="760" on="1"/>
        <pt x="1018" y="760" on="1"/>
        <pt x="1018" y="559" on="1"/>
      </contour>
    </TTGlyph>
    <TTGlyph name="dollar" xMin="104" yMin="-165" xMax="1157" yMax="1576">
      <contour>
        <pt x="701" y="196" on="1"/>
        <pt x="746" y="201" on="0"/>
        <pt x="819" y="232" on="0"/>
        <pt x="872" y="282" on="0"/>
        <pt x="900" y="348" on="0"/>
        <pt x="900" y="389" on="1"/>
        <pt x="900" y="428" on="0"/>
        <pt x="881" y="485" on="0"/>
        <pt x="834" y="532" on="0"/>
        <pt x="758" y="574" on="0"/>
        <pt x="701" y="597" on="1"/>
      </contour>
      <contour>
        <pt x="593" y="1229" on="1"/>
        <pt x="470" y="1228" on="0"/>
        <pt x="359" y="1148" on="0"/>
        <pt x="359" y="1069" on="1"/>
        <pt x="359" y="1044" on="0"/>
        <pt x="374" y="1002" on="0"/>
        <pt x="424" y="961" on="0"/>
        <pt x="516" y="917" on="0"/>
        <pt x="593" y="890" on="1"/>
      </contour>
      <contour>
        <pt x="593" y="1576" on="1"/>
        <pt x="701" y="1576" on="1"/>
        <pt x="701" y="1438" on="1"/>
        <pt x="767" y="1435" on="0"/>
        <pt x="892" y="1413" on="0"/>
        <pt x="997" y="1386" on="0"/>
        <pt x="1075" y="1358" on="0"/>
        <pt x="1094" y="1348" on="1"/>
        <pt x="1031" y="1153" on="1"/>
        <pt x="974" y="1173" on="0"/>
        <pt x="917" y="1190" on="1"/>
        <pt x="867" y="1204" on="0"/>
        <pt x="752" y="1227" on="0"/>
        <pt x="701" y="1227" on="1"/>
        <pt x="701" y="854" on="1"/>
        <pt x="738" y="840" on="0"/>
        <pt x="807" y="815" on="0"/>
        <pt x="840" y="801" on="1"/>
        <pt x="996" y="738" on="0"/>
        <pt x="1157" y="552" on="0"/>
        <pt x="1157" y="420" on="1"/>
        <pt x="1157" y="311" on="0"/>
        <pt x="1091" y="150" on="0"/>
        <pt x="971" y="41" on="0"/>
        <pt x="803" y="-19" on="0"/>
        <pt x="701" y="-27" on="1"/>
        <pt x="701" y="-165" on="1"/>
        <pt x="593" y="-165" on="1"/>
        <pt x="593" y="-29" on="1"/>
        <pt x="559" y="-29" on="0"/>
        <pt x="484" y="-20" on="0"/>
        <pt x="409" y="-4" on="0"/>
        <pt x="336" y="15" on="0"/>
        <pt x="303" y="26" on="1"/>
        <pt x="226" y="51" on="0"/>
        <pt x="150" y="82" on="1"/>
        <pt x="208" y="290" on="1"/>
        <pt x="275" y="261" on="0"/>
        <pt x="343" y="239" on="1"/>
        <pt x="401" y="219" on="0"/>
        <pt x="535" y="188" on="0"/>
        <pt x="593" y="188" on="1"/>
        <pt x="593" y="635" on="1"/>
        <pt x="469" y="676" on="0"/>
        <pt x="285" y="756" on="0"/>
        <pt x="164" y="854" on="0"/>
        <pt x="104" y="979" on="0"/>
        <pt x="104" y="1066" on="1"/>
        <pt x="104" y="1176" on="0"/>
        <pt x="179" y="1318" on="0"/>
        <pt x="311" y="1403" on="0"/>
        <pt x="490" y="1439" on="0"/>
        <pt x="593" y="1443" on="1"/>
      </contour>
    </TTGlyph>
    <TTGlyph name="dotaccent" xMin="191" yMin="142" xMax="537" yMax="502">
      <contour>
        <pt x="191" y="502" on="1"/>
        <pt x="537" y="502" on="1"/>
        <pt x="537" y="142" on="1"/>
        <pt x="191" y="142" on="1"/>
      </contour>
    </TTGlyph>
    <TTGlyph name="dotlessi" xMin="177" yMin="0" xMax="359" yMax="1169">
      <contour>
        <pt x="177" y="1169" on="1"/>
        <pt x="359" y="1169" on="1"/>
        <pt x="359" y="0" on="1"/>
        <pt x="177" y="0" on="1"/>
      </contour>
    </TTGlyph>
    <TTGlyph name="dotlessigrave" xMin="-78" yMin="0" xMax="385" yMax="1951">
      <component glyphName="grave" x="-143" y="1169" flags="0x1004"/>
      <component glyphName="dotlessi" x="0" y="0" flags="0x1004"/>
    </TTGlyph>
    <TTGlyph name="e" xMin="88" yMin="-23" xMax="1110" yMax="1211">
      <contour>
        <pt x="1053" y="86" on="1"/>
        <pt x="1009" y="59" on="0"/>
        <pt x="909" y="19" on="0"/>
        <pt x="806" y="-9" on="0"/>
        <pt x="706" y="-23" on="0"/>
        <pt x="662" y="-23" on="1"/>
        <pt x="525" y="-23" on="0"/>
        <pt x="312" y="60" on="0"/>
        <pt x="165" y="215" on="0"/>
        <pt x="88" y="434" on="0"/>
        <pt x="88" y="570" on="1"/>
        <pt x="88" y="709" on="0"/>
        <pt x="158" y="944" on="0"/>
        <pt x="295" y="1115" on="0"/>
        <pt x="498" y="1211" on="0"/>
        <pt x="630" y="1211" on="1"/>
        <pt x="747" y="1211" on="0"/>
        <pt x="926" y="1136" on="0"/>
        <pt x="1048" y="998" on="0"/>
        <pt x="1110" y="804" on="0"/>
        <pt x="1110" y="685" on="1"/>
        <pt x="1110" y="648" on="0"/>
        <pt x="1108" y="576" on="0"/>
        <pt x="1106" y="542" on="1"/>
        <pt x="368" y="542" on="1"/>
        <pt x="369" y="445" on="0"/>
        <pt x="413" y="303" on="0"/>
        <pt x="494" y="211" on="0"/>
        <pt x="611" y="167" on="0"/>
        <pt x="684" y="167" on="1"/>
        <pt x="777" y="167" on="0"/>
        <pt x="919" y="220" on="0"/>
        <pt x="988" y="273" on="1"/>
      </contour>
      <contour>
        <pt x="879" y="706" on="1"/>
        <pt x="879" y="862" on="0"/>
        <pt x="753" y="1020" on="0"/>
        <pt x="641" y="1022" on="1"/>
        <pt x="573" y="1020" on="0"/>
        <pt x="474" y="967" on="0"/>
        <pt x="407" y="877" on="0"/>
        <pt x="371" y="757" on="0"/>
        <pt x="368" y="689" on="1"/>
        <pt x="879" y="689" on="1"/>
      </contour>
    </TTGlyph>
    <TTGlyph name="eacute" xMin="88" yMin="-23" xMax="1110" yMax="1986">
      <component glyphName="e" x="0" y="0" flags="0x1204"/>
      <component glyphName="acute" x="-2" y="1191" flags="0x1004"/>
    </TTGlyph>
    <TTGlyph name="ecaron" xMin="88" yMin="-23" xMax="1110" yMax="1916">
      <component glyphName="e" x="0" y="0" flags="0x1204"/>
      <component glyphName="caron" x="-93" y="1180" flags="0x1004"/>
    </TTGlyph>
    <TTGlyph name="ecircumflex" xMin="88" yMin="-23" xMax="1110" yMax="1905">
      <component glyphName="e" x="0" y="0" flags="0x1204"/>
      <component glyphName="circumflex" x="-93" y="1180" flags="0x1004"/>
    </TTGlyph>
    <TTGlyph name="edieresis" xMin="88" yMin="-23" xMax="1110" yMax="1621">
      <component glyphName="e" x="0" y="0" flags="0x1204"/>
      <component glyphName="dieresis" x="48" y="1150" flags="0x1004"/>
    </TTGlyph>
    <TTGlyph name="edotaccent" xMin="88" yMin="-23" xMax="1110" yMax="1682">
      <component glyphName="e" x="0" y="0" flags="0x1204"/>
      <component glyphName="dotaccent" x="231" y="1180" flags="0x1004"/>
    </TTGlyph>
    <TTGlyph name="egrave" xMin="88" yMin="-23" xMax="1110" yMax="1973">
      <component glyphName="e" x="0" y="0" flags="0x1204"/>
      <component glyphName="grave" x="118" y="1191" flags="0x1004"/>
    </TTGlyph>
</ttFont>
